<svg width="81" height="66" viewBox="0 0 81 66" fill="none" xmlns="http://www.w3.org/2000/svg">
<path d="M0 43.2C0 34.752 2.112 26.688 6.336 19.008C10.752 11.328 16.416 4.992 23.328 0L33.984 8.64001C29.376 11.712 25.248 15.84 21.6 21.024C17.952 26.016 15.936 30.816 15.552 35.424H16.992C17.952 35.232 18.72 35.136 19.296 35.136C23.328 35.136 26.592 36.576 29.088 39.456C31.776 42.144 33.12 45.6 33.12 49.824C33.12 54.048 31.584 57.696 28.512 60.768C25.632 63.648 22.08 65.088 17.856 65.088C12.864 65.088 8.64 63.168 5.184 59.328C1.728 55.296 0 49.92 0 43.2ZM46.08 43.2C46.08 34.752 48.192 26.688 52.416 19.008C56.832 11.328 62.496 4.992 69.408 0L80.064 8.64001C75.456 11.712 71.328 15.84 67.68 21.024C64.224 26.016 62.208 30.816 61.632 35.424H63.072C64.032 35.232 64.8 35.136 65.376 35.136C69.408 35.136 72.768 36.576 75.456 39.456C78.144 42.144 79.488 45.6 79.488 49.824C79.488 54.048 77.952 57.696 74.88 60.768C71.808 63.648 68.16 65.088 63.936 65.088C58.944 65.088 54.72 63.168 51.264 59.328C47.808 55.296 46.08 49.92 46.08 43.2Z" fill="url(#paint0_linear)"/>
<defs>
<linearGradient id="paint0_linear" x1="79.95" y1="32.2023" x2="-0.102267" y2="32.2023" gradientUnits="userSpaceOnUse">
<stop stop-color="#FFCC80"/>
<stop offset="1" stop-color="#FF8080"/>
</linearGradient>
</defs>
</svg>
