<svg width="24" height="24" viewBox="0 0 24 24" fill="none" xmlns="http://www.w3.org/2000/svg">
<g clip-path="url(#clip0)">
<path d="M18.25 9H11V13H18.25C18.66 13 19 12.66 19 12.25V9.75C19 9.34 18.66 9 18.25 9ZM5 9.75V12.25C5 12.66 5.34 13 5.75 13H9V9H5.75C5.34 9 5 9.34 5 9.75Z" fill="white"/>
<path d="M18.25 15H11V19H18.25C18.66 19 19 18.66 19 18.25V15.75C19 15.34 18.66 15 18.25 15ZM5 15.75V18.25C5 18.66 5.34 19 5.75 19H9V15H5.75C5.34 15 5 15.34 5 15.75Z" fill="white"/>
<path d="M21 1H3C1.346 1 0 2.346 0 4V20C0 21.654 1.346 23 3 23H21C22.654 23 24 21.654 24 20V4C24 2.346 22.654 1 21 1ZM21 21H3C2.449 21 2 20.552 2 20V6H22V20C22 20.552 21.551 21 21 21Z" fill="white"/>
</g>
<defs>
<clipPath id="clip0">
<rect width="24" height="24" fill="white"/>
</clipPath>
</defs>
</svg>
