<svg width="27" height="35" viewBox="0 0 27 35" fill="none" xmlns="http://www.w3.org/2000/svg">
<g clip-path="url(#clip0)">
<path d="M17.0598 7.13371C15.0652 4.6103 10.9632 5.63528 9.19329 7.8845C8.31762 8.99709 8.00219 10.5516 8.41466 11.9134C8.6587 12.7194 9.54605 14.1509 10.5729 13.8819C10.6309 13.8668 10.6719 13.812 10.6725 13.7541C10.6803 13.0508 10.2407 12.4103 10.2188 11.6745C10.1884 10.6484 10.55 9.69868 11.2702 8.94397C12.7429 7.40137 14.9375 7.70351 16.8873 7.54098C17.1119 7.52234 17.1909 7.2996 17.0598 7.13371Z" fill="#E0DFE6"/>
<path d="M22.6767 5.98051C21.8504 3.95981 20.4183 2.00248 18.1477 1.50183C17.8623 1.43883 17.7003 1.80584 17.9492 1.96241C22.2605 4.67426 21.4923 10.5145 19.8778 14.4954C19.0252 16.5975 18.0546 18.6928 16.9238 20.6678C16.0824 22.1372 15.0844 23.5053 14.0738 24.8649C13.0515 23.9513 11.8495 23.1942 10.7277 22.4123C9.64033 21.6544 8.40195 20.6223 7.0916 20.2963C6.98728 20.2704 6.87015 20.367 6.90823 20.4758C7.33832 21.7064 8.51947 22.7871 9.43936 23.6891C10.4674 24.6971 11.6175 25.7474 12.8747 26.4925C12.2415 27.5331 13.8834 28.6962 14.7594 27.7922C16.6683 25.822 18.1949 23.5197 19.6787 21.235C21.2139 18.8708 22.5586 16.3379 23.1349 13.5735C23.6643 11.0322 23.6723 8.41594 22.6767 5.98051Z" fill="#E0DFE6"/>
<path d="M11.158 4.56026C9.31517 4.84787 7.85744 6.06223 7.0945 7.7053C6.4667 9.05721 6.36851 10.5154 6.84759 11.8744C6.96205 12.4319 7.15728 12.9771 7.43539 13.4936C8.14435 14.8093 9.82124 16.5387 11.5048 15.973C11.9106 15.8367 12.1807 15.3862 11.9912 14.9859C12.173 14.7894 12.178 14.4742 11.9784 14.2526C10.458 12.5661 8.21632 11.2999 8.95131 8.65572C9.02902 8.37613 9.1431 8.11163 9.28588 7.86597C9.73702 7.20818 10.3792 6.68684 11.1471 6.35804C11.1806 6.34369 11.2141 6.33232 11.2476 6.31908C11.3343 6.29299 11.4221 6.26931 11.5119 6.24993C12.1428 6.11386 12.8741 6.1394 13.5067 6.26298C13.9902 6.35748 14.4092 6.55822 14.9088 6.49448C15.0797 6.47267 15.1689 6.36027 15.144 6.19233C14.9133 4.63016 12.3928 4.36753 11.158 4.56026Z" fill="#E0DFE6"/>
<path d="M24.0535 6.52098C24.0319 6.46301 23.954 6.4755 23.9469 6.53515C23.4848 10.5249 23.1147 14.4096 21.487 18.1518C20.7124 19.9324 19.7354 21.6292 18.556 23.1837C17.353 24.7694 15.8287 26.0437 14.5187 27.5259C14.2083 26.9682 13.5196 26.7092 13.0126 26.3559C12.4393 25.9567 11.903 25.4896 11.3688 25.0419C11.1489 24.8575 10.825 25.0857 10.9644 25.3472C11.3179 26.0111 11.7639 26.5716 12.2952 27.1107C12.7871 27.6096 13.3374 28.2156 14.0842 28.2601C14.1296 28.2629 14.1717 28.2577 14.2119 28.2488C14.2634 28.7334 14.7748 29.1291 15.3443 28.8355C19.0114 26.9455 21.6504 22.5412 23.1411 18.9091C24.6957 15.1218 25.5241 10.4541 24.0535 6.52098Z" fill="#E0DFE6"/>
<path d="M26.6262 32.3386C26.4262 31.786 26.2262 31.2335 26.0262 30.6808C25.8704 30.0003 25.7301 29.3166 25.6204 28.627C25.4347 27.4616 25.312 26.3448 24.7947 25.2655C24.5738 24.8048 23.8736 25.2059 24.0936 25.6646C24.6482 26.8212 24.6986 28.0844 24.9195 29.3231C24.9798 29.6611 25.0479 29.9975 25.1197 30.333C25.104 30.3908 25.099 30.4551 25.1113 30.5261C25.1834 30.9457 25.2726 31.3552 25.3796 31.7601C25.2896 31.7541 25.1985 31.7524 25.1057 31.7603C19.2535 32.2592 13.3658 32.3532 7.49694 32.0434C7.48354 31.9571 7.44794 31.8676 7.38018 31.7767C7.20466 31.5412 7.02915 31.3058 6.85363 31.0704C6.81343 30.7135 6.6582 30.3837 6.30353 30.1237C6.2218 30.0639 6.12706 30.0076 6.02351 29.9573C5.91269 29.8085 5.80167 29.6598 5.69085 29.511C5.17597 28.8206 3.84821 29.2803 3.93606 29.9358C3.82256 29.9882 3.7169 30.0497 3.62426 30.1237C3.29715 30.3849 3.03589 30.7394 3.06938 31.1058C3.09561 31.3942 3.08297 31.6797 3.03149 31.9664C3.03972 31.9217 3.04795 31.8769 3.05599 31.8322C3.02192 32.0684 3.02881 32.2898 3.13216 32.5101C2.64045 33.2961 3.19112 34.5316 4.76962 34.6488C11.54 35.1513 18.347 35.1142 25.1065 34.5381C26.1309 34.4507 26.9897 33.9621 27.0012 33.1491C27.004 32.8749 26.8616 32.5839 26.6262 32.3386Z" fill="#E0DFE6"/>
<path d="M13.1568 16.0506C10.1728 16.0506 7.55518 13.6096 7.55518 10.8267C7.55518 7.16687 10.4327 5.49976 13.1061 5.49976C13.869 5.49976 14.6052 5.63359 15.2944 5.89771C16.6832 6.42949 17.62 7.09026 18.1578 7.91766C18.5766 8.56165 18.7718 9.35066 18.7718 10.4008C18.7718 13.9373 15.917 16.0506 13.1568 16.0506ZM13.1061 6.21402C10.7082 6.21402 8.28883 7.64012 8.28883 10.8265C8.28883 13.1867 10.6092 15.3362 13.1568 15.3362C15.5562 15.3362 18.0382 13.4901 18.0382 10.4006C18.0382 9.49176 17.8793 8.8241 17.5382 8.2994C17.0865 7.60471 16.2646 7.03639 15.0259 6.56202C14.4224 6.33107 13.7766 6.21402 13.1061 6.21402Z" fill="#525D7D"/>
<path d="M14.0232 29.2195C13.9351 29.2195 13.8496 29.1886 13.7826 29.1319C9.33473 25.3657 1.87305 17.8748 1.87305 10.0215C1.87305 6.82986 3.20235 4.28893 5.824 2.46991C5.98957 2.35546 6.21811 2.39293 6.33563 2.55342C6.45315 2.71409 6.41468 2.9372 6.24988 3.05165C3.83226 4.72901 2.6067 7.07404 2.6067 10.0215C2.6067 17.432 9.60499 24.5973 13.9843 28.3543C18.8682 22.719 23.196 16.9624 23.196 8.93462C23.196 3.25612 18.6322 0.714449 14.1093 0.714449C11.7095 0.714449 9.42986 1.26319 7.93997 1.7234C7.74761 1.78249 7.5409 1.67904 7.47946 1.49097C7.41802 1.3029 7.52501 1.10215 7.71814 1.0425C9.25721 0.567011 11.6155 0 14.1091 0C20.893 0 23.9295 4.48744 23.9295 8.93462C23.9295 18.0316 18.3655 24.4249 14.3032 29.0934C14.2398 29.1662 14.1489 29.2113 14.0511 29.2186C14.0419 29.2192 14.0325 29.2195 14.0232 29.2195Z" fill="#525D7D"/>
<path d="M3.16934 33.8902C3.04589 33.8902 2.93066 33.8298 2.86271 33.729C2.40583 33.0509 1.97173 32.3499 1.55198 31.6719C1.07596 30.9033 0.583669 30.1081 0.0624759 29.3549C0.017496 29.2898 -0.00413265 29.2123 0.000652443 29.134C0.111667 27.3193 0.27704 26.1959 0.451983 25.0069C0.606446 23.9582 0.766076 22.8741 0.890489 21.2467C0.897762 21.1517 0.943699 21.0635 1.01796 21.0016C1.09223 20.9397 1.18927 20.9095 1.28612 20.9172C3.33184 21.0805 5.34197 21.292 7.2095 21.4963C7.41066 21.5183 7.55574 21.695 7.53297 21.8911C7.51057 22.0872 7.32778 22.2309 7.12757 22.2061C5.37776 22.0147 3.50258 21.8169 1.59313 21.659C1.47159 23.114 1.32249 24.1267 1.17798 25.1081C1.00897 26.2557 0.849337 27.3411 0.740237 29.0566C1.24573 29.794 1.72042 30.5605 2.17998 31.3031C2.56164 31.9193 2.95535 32.5549 3.36438 33.1704L13.9306 32.8837L24.6845 32.616L23.3046 22.7319L18.9351 23.0896C18.7272 23.1056 18.5557 22.9602 18.5389 22.7638C18.5218 22.5671 18.6717 22.3944 18.8735 22.378L23.5904 21.9917C23.7839 21.9753 23.9583 22.111 23.9845 22.2995L25.4662 32.9148C25.4801 33.0155 25.4495 33.1171 25.3821 33.1944C25.3146 33.2716 25.2164 33.3172 25.1121 33.3199L13.9498 33.5976C13.9504 33.5978 3.17949 33.89 3.16934 33.8902Z" fill="#525D7D"/>
<path d="M3.23474 33.6714C3.03204 33.6714 2.86801 33.5115 2.86801 33.3143C2.86801 32.2321 3.07415 31.168 3.2734 30.1389C3.32355 29.8792 3.37408 29.619 3.42136 29.3581C2.99529 29.3676 2.50472 29.3555 2.03942 29.3418C1.53775 29.3271 1.03742 29.3128 0.544174 29.331C0.340329 29.3398 0.171702 29.1847 0.163854 28.9877C0.156007 28.7907 0.314106 28.6248 0.51642 28.6173C1.02613 28.5985 1.54234 28.613 2.06124 28.6278C2.68139 28.6457 3.33255 28.6572 3.83441 28.6259C3.94695 28.619 4.05433 28.6615 4.12936 28.7418C4.2042 28.822 4.23789 28.9312 4.22028 29.0384C4.1529 29.4513 4.07328 29.8617 3.99404 30.2708C3.7923 31.3135 3.60147 32.2986 3.60147 33.3139C3.60147 33.5115 3.43724 33.6714 3.23474 33.6714Z" fill="#525D7D"/>
<path d="M12.1582 33.3601C12.016 33.3601 11.8808 33.2792 11.8209 33.1441C11.7409 32.9627 11.827 32.7528 12.0131 32.6747L12.9115 32.2986C13.0981 32.2207 13.3133 32.3045 13.3935 32.4857C13.4735 32.6671 13.3874 32.877 13.2013 32.9551L12.3029 33.3312C12.2556 33.3508 12.2066 33.3601 12.1582 33.3601ZM15.0784 32.1375C14.9362 32.1375 14.8009 32.0566 14.7412 31.9213C14.6612 31.7401 14.7473 31.5301 14.9335 31.4522L15.8322 31.076C16.0178 30.9981 16.2341 31.0818 16.3139 31.2633C16.3939 31.4445 16.3078 31.6546 16.1218 31.7325L15.2231 32.1086C15.1758 32.1282 15.1266 32.1375 15.0784 32.1375ZM17.9987 30.915C17.8564 30.915 17.7213 30.8341 17.6614 30.6989C17.5814 30.5176 17.6675 30.3077 17.8536 30.2296L18.752 29.8534C18.9385 29.7755 19.1536 29.8594 19.234 30.0406C19.314 30.222 19.2279 30.4318 19.0418 30.5099L18.1434 30.8861C18.0961 30.9056 18.0469 30.915 17.9987 30.915ZM20.9187 29.6924C20.7765 29.6924 20.6414 29.6115 20.5815 29.4764C20.5015 29.295 20.5876 29.0851 20.7736 29.007L21.6721 28.6309C21.8585 28.553 22.0736 28.6369 22.154 28.818C22.234 28.9994 22.1479 29.2093 21.9619 29.2874L21.0634 29.6635C21.0161 29.6831 20.9671 29.6924 20.9187 29.6924ZM23.839 28.4697C23.6968 28.4697 23.5614 28.3888 23.5017 28.2536C23.4217 28.0723 23.5078 27.8624 23.6939 27.7843L24.1967 27.5738C24.3833 27.4957 24.5986 27.58 24.6787 27.761C24.7587 27.9423 24.6725 28.1522 24.4865 28.2303L23.9837 28.4408C23.9362 28.4605 23.8872 28.4697 23.839 28.4697Z" fill="#525D7D"/>
<path d="M3.4691 31.4346C3.30583 31.4346 3.15692 31.3277 3.11423 31.1667C3.0637 30.9757 3.18161 30.7809 3.37761 30.7317L8.53135 29.437L6.26493 26.8849C6.18473 26.7946 6.15622 26.6716 6.18875 26.5566C6.2211 26.4416 6.3101 26.3499 6.42629 26.3122L10.2021 25.0865C10.3943 25.0248 10.602 25.1253 10.6661 25.3124C10.73 25.4996 10.6263 25.7018 10.4341 25.7643L7.17812 26.8211L9.47286 29.4049C9.55593 29.4985 9.58349 29.6271 9.54559 29.7449C9.50789 29.8629 9.40989 29.9535 9.2872 29.9844L3.56097 31.423C3.53035 31.431 3.49953 31.4346 3.4691 31.4346Z" fill="#525D7D"/>
</g>
<defs>
<clipPath id="clip0">
<rect width="27" height="35" fill="white"/>
</clipPath>
</defs>
</svg>
