<svg width="12" height="12" viewBox="0 0 12 12" fill="none" xmlns="http://www.w3.org/2000/svg">
<path fill-rule="evenodd" clip-rule="evenodd" d="M10.8995 1.70711C11.29 1.31658 11.29 0.683418 10.8995 0.292893C10.509 -0.0976311 9.87581 -0.0976311 9.48528 0.292893L5.59668 4.18149L1.70809 0.292893C1.31756 -0.0976311 0.6844 -0.0976311 0.293875 0.292893C-0.0966491 0.683418 -0.0966491 1.31658 0.293875 1.70711L4.18247 5.5957L0.292893 9.48528C-0.0976313 9.87581 -0.097631 10.509 0.292893 10.8995C0.683418 11.29 1.31658 11.29 1.70711 10.8995L5.59668 7.00992L9.48626 10.8995C9.87679 11.29 10.51 11.29 10.9005 10.8995C11.291 10.509 11.291 9.87581 10.9005 9.48528L7.0109 5.5957L10.8995 1.70711Z" fill="#FF8080"/>
</svg>
