<svg width="176" height="164" viewBox="0 0 176 164" fill="none" xmlns="http://www.w3.org/2000/svg">
<g clip-path="url(#clip0)">
<path d="M173.182 49.7471C172.388 37.9641 172.738 24.1771 168.554 13.0491C168.201 12.1111 166.627 11.8621 166.391 13.0491C164.621 21.9271 165.928 31.6301 166.065 40.6391C166.216 50.6221 166.28 60.5981 166.085 70.5811C165.899 80.1331 165.948 89.6811 165.807 99.2351C165.73 104.433 165.75 109.667 165.427 114.857C165.058 120.779 163.404 122.645 158.003 124.175C155.642 124.844 155.295 128.035 157.333 129.301C163.819 133.331 171.144 127.912 172.909 121.385C174.134 116.852 173.881 111.694 174.068 107.047C174.33 100.538 174.512 94.0271 174.617 87.5141C174.821 74.9161 174.029 62.3131 173.182 49.7471Z" fill="#E0DFE6"/>
<path d="M174.701 107.406C174.645 103.066 175.147 98.808 174.631 94.478C174.294 91.652 170.347 91.537 170.144 94.478C169.601 102.337 170.056 109.231 166.205 116.467C163.194 122.126 158.853 123.56 152.686 124.101C139.744 125.237 126.564 125.086 113.58 125.554C100 126.043 86.4083 126.035 72.8283 126.495C59.6603 126.941 45.9383 126.45 33.1263 129.871C32.1953 130.12 32.1583 131.565 33.1263 131.794C42.4663 134.007 52.3583 134.376 62.1883 134.319C61.3863 137.06 62.4963 139.581 64.6893 140.707C64.7413 140.744 64.7883 140.788 64.8413 140.822C69.7893 144.054 76.7963 143.253 82.4913 142.936C88.9503 142.577 95.4003 141.626 101.637 139.909C103.297 139.452 104.459 138.552 105.191 137.441C105.848 140.906 108.69 143.796 112.517 145.184C115.045 146.101 117.31 145.98 119.239 148.185C119.54 148.679 119.84 149.173 120.141 149.667C121.444 151.569 121.224 151.711 119.48 150.094C114.845 150.441 110.011 149.467 105.297 149.766C95.8863 150.362 86.5143 151.863 77.1983 153.274C66.2833 154.927 55.3803 154.584 44.5183 155.932C42.9003 156.133 41.6993 158.516 43.5743 159.416C53.2603 164.063 65.5513 163.114 76.0093 162.624C88.6573 162.033 101.135 160.614 113.822 161.264C121.353 161.65 133.783 161.625 132.698 150.491C132.328 146.696 129.447 142.801 126.796 140.2C124.909 138.348 117.288 133.597 115.318 136.671C115.92 135.732 116.159 134.798 116.134 133.919C120.54 133.925 124.946 133.939 129.354 133.974C140.903 134.064 156.804 136.849 167.341 130.664C171.524 128.209 174.598 123.717 175.297 118.932C175.858 115.101 174.75 111.237 174.701 107.406Z" fill="#E0DFE6"/>
<path d="M153.851 103.31C154.34 99.757 153.843 95.904 153.787 92.501C153.695 86.918 153.654 81.332 153.509 75.75C153.208 64.15 152.648 52.564 152.392 40.96C152.255 34.772 154.552 22.314 148.181 18.615C147.862 18.429 147.42 18.663 147.431 19.045C147.879 34.484 147.831 49.97 147.307 65.442C147.031 73.605 146.97 81.756 146.932 89.924C146.916 93.31 147.973 99.061 146.833 102.301C146.661 102.789 146.469 103.212 146.268 103.608C132.423 104.613 118.577 105.612 104.729 106.579C97.4526 107.087 90.1736 107.525 82.9106 108.192C81.1476 108.354 79.3426 108.435 77.5226 108.501C77.6726 107.555 77.2936 106.593 76.1056 106.423C66.9626 105.108 56.6346 107.381 47.3856 107.887C38.4786 108.375 27.4996 107.54 19.0246 110.392C18.6026 110.534 18.6206 111.084 19.0246 111.233C27.3676 114.307 38.5916 113.291 47.3856 113.022C52.7526 112.858 58.9076 113.033 64.8126 112.556C76.6306 116.424 91.5226 114.282 103.438 113.604C113.938 113.006 124.439 112.438 134.939 111.862C135.156 112.632 135.729 113.288 136.704 113.516C140.914 114.503 146.129 113.768 149.672 111.047C150.614 110.996 151.555 110.942 152.497 110.891C156.954 110.651 157.386 104.343 153.851 103.31Z" fill="#E0DFE6"/>
<path d="M167.888 91.9441C167.551 72.9951 167.305 54.0431 166.878 35.0961C166.754 29.6151 169.43 -0.165941 156.122 5.20706C155.827 5.32606 155.828 5.68806 156.122 5.80806C163.532 8.82306 160.815 23.9081 160.771 29.8071C160.719 36.8571 160.818 43.9091 160.873 50.9591C160.978 64.6201 161.083 78.2811 161.189 91.9421C161.24 98.5521 161.312 105.162 161.364 111.772C161.366 111.967 161.36 112.158 161.358 112.351C161.141 112.422 160.922 112.509 160.702 112.629C150.9 117.966 139.841 117.995 128.961 118.258C117.003 118.547 105.065 118.979 93.1148 119.512C81.6088 120.026 70.1028 120.539 58.5968 121.053C51.8208 121.356 44.3838 121.191 37.2638 121.998C31.3718 121.805 25.5198 122.119 20.5378 124.122C20.0488 124.319 19.9038 124.955 20.3888 125.261C28.8598 130.608 42.0508 130.105 51.7488 130.545C63.4078 131.075 75.0768 131.171 86.7448 130.919C98.4078 130.667 110.063 130.06 121.689 129.097C130.642 128.355 140.148 127.964 149.175 126.386C152.348 126.567 155.526 127.263 158.691 127.002C163.645 126.593 167.11 123.471 167.998 118.589C169.524 110.203 168.039 100.439 167.888 91.9441Z" fill="#E0DFE6"/>
<path d="M69.684 17.046C60.287 18.239 50.857 19.038 41.391 18.663C36.652 18.475 31.886 18.673 27.137 18.736C25.615 18.756 24.02 18.729 22.555 19.113C21.378 18.794 20.165 18.67 18.831 18.874C17.381 19.096 16.58 20.917 16.936 22.212C17.097 22.798 17.445 23.27 17.891 23.61C16.023 28.174 16.325 34.993 16.149 38.844C15.765 47.22 16.214 55.342 18.163 63.498C18.246 63.845 18.814 63.864 18.884 63.498C20.058 57.346 20.892 51.197 21.583 44.972C21.991 41.292 22.518 37.626 22.971 33.952C23.476 29.856 22.54 25.902 27.136 25.366C33.857 24.582 40.47 24.871 47.239 23.826C54.895 22.644 62.477 21.297 70.015 19.494C71.347 19.176 71.1 16.867 69.684 17.046Z" fill="#E0DFE6"/>
<path d="M10.9095 129.587C8.19148 129.587 5.53348 128.507 3.59048 126.607C1.60148 124.664 0.454483 121.954 0.441483 119.171L0.105483 38.633C0.101483 37.575 0.955483 36.713 2.01348 36.709C3.07648 36.709 3.93348 37.561 3.93748 38.617L4.27348 119.155C4.28048 120.918 5.00748 122.635 6.26748 123.866C7.52848 125.099 9.24548 125.747 11.0255 125.755L156.946 123.077C161.328 122.996 164.872 119.366 164.845 114.985C164.689 89.351 164.284 63.333 163.893 38.171C163.756 29.325 163.618 20.476 163.49 11.62C163.46 9.52804 162.577 7.49504 161.07 6.04204C159.56 4.58904 157.495 3.78004 155.403 3.83404L67.5215 5.91404C66.4845 5.97304 65.5855 5.10104 65.5615 4.04404C65.5355 2.98604 66.3735 2.10804 67.4315 2.08304L155.313 0.0030373C158.414 -0.0699627 161.486 1.12504 163.728 3.28104C165.968 5.43804 167.278 8.45704 167.323 11.565C167.45 20.419 167.588 29.268 167.725 38.112C168.116 63.282 168.521 89.309 168.678 114.962C168.717 121.431 163.486 126.789 157.016 126.908L11.0955 129.586C11.0335 129.587 10.9715 129.587 10.9095 129.587Z" fill="#525D7D"/>
<path d="M1.98409 31.82C0.929089 31.82 0.0720891 30.967 0.0680891 29.912L8.90961e-05 13.599C-0.0229109 8.12904 4.41009 3.57404 9.87909 3.44504L58.7061 2.29004C59.7351 2.19704 60.6411 3.10204 60.6671 4.16004C60.6931 5.21704 59.8551 6.09603 58.7971 6.12103L9.96909 7.27604C6.57109 7.35704 3.81809 10.185 3.83209 13.583L3.90009 29.896C3.90509 30.954 3.05109 31.816 1.98409 31.82Z" fill="#525D7D"/>
<path d="M20.8213 116.429C17.4333 116.429 14.6463 113.733 14.5923 110.387L14.4143 99.6921C14.3963 98.6341 15.2393 97.7621 16.2983 97.7431C17.3873 97.7821 18.2283 98.5681 18.2473 99.6271L18.4263 110.325C18.4463 111.593 19.5643 112.596 20.8503 112.597L150.343 111.127C151.315 111.116 152.254 110.715 152.92 110.028C153.574 109.353 153.926 108.434 153.887 107.508L153.425 96.6411C153.38 95.5841 154.2 94.6901 155.257 94.6441C156.313 94.5961 157.208 95.4191 157.254 96.4761L157.716 107.346C157.8 109.316 157.055 111.265 155.674 112.693C154.301 114.111 152.374 114.936 150.386 114.959C150.385 114.959 20.8923 116.429 20.8213 116.429Z" fill="#525D7D"/>
<path d="M16.2166 95.036C15.1736 95.036 14.3196 94.2 14.3016 93.153C14.1286 83.373 13.9436 73.583 13.7596 63.793C13.5006 50.002 13.2416 36.212 13.0126 22.45C12.9826 20.663 13.6926 18.903 14.9636 17.622C16.2416 16.335 17.9516 15.613 19.7796 15.591L148.639 14.052C151.905 14.045 154.489 16.55 154.552 19.702C155.016 42.875 155.958 65.999 156.963 89.624C157.008 90.681 156.187 91.575 155.13 91.62C154.091 91.657 153.179 90.844 153.134 89.787C152.128 66.14 151.186 42.992 150.721 19.78C150.7 18.722 149.744 17.867 148.685 17.886L19.8256 19.423C19.0216 19.433 18.2406 19.76 17.6836 20.321C17.1296 20.88 16.8306 21.614 16.8456 22.386C17.0746 36.146 17.3336 49.934 17.5926 63.722C17.7766 73.513 17.9606 83.305 18.1336 93.086C18.1526 94.143 17.3096 95.016 16.2166 95.036Z" fill="#525D7D"/>
<path d="M77.4163 82.9031C76.9093 82.9031 76.4023 82.7031 76.0253 82.3051C75.2973 81.5361 75.3303 80.3231 76.0973 79.5961C80.0233 75.8751 83.8643 71.9641 87.5783 68.1821C89.4563 66.2691 91.3233 64.3681 93.1913 62.5011C93.9383 61.7541 95.1523 61.7531 95.9013 62.5021C96.6493 63.2501 96.6493 64.4631 95.9003 65.2121C94.0423 67.0701 92.1833 68.963 90.3133 70.867C86.5763 74.674 82.7103 78.6101 78.7343 82.3771C78.3633 82.7291 77.8893 82.9031 77.4163 82.9031Z" fill="#525D7D"/>
<path d="M79.9064 98.4771C79.2554 98.4771 78.6214 98.1461 78.2614 97.5471C77.7174 96.6401 78.0114 95.4631 78.9184 94.9181C79.6854 94.4581 80.3254 93.7011 81.0034 92.9001C81.4174 92.4101 81.8344 91.9211 82.2864 91.4691C83.0334 90.7201 84.2484 90.7211 84.9964 91.4681C85.7444 92.2161 85.7454 93.4291 84.9974 94.1781C84.6204 94.5561 84.2754 94.9661 83.9294 95.3751C83.1204 96.3331 82.2024 97.4181 80.8914 98.2051C80.5824 98.3881 80.2414 98.4771 79.9064 98.4771Z" fill="#525D7D"/>
<path d="M90.8055 86.0181C90.3485 86.0181 89.8915 85.8561 89.5245 85.5261C88.7385 84.8181 88.6745 83.6071 89.3825 82.8201C93.5495 78.1901 97.4875 73.2691 101.297 68.5101C105.142 63.7061 109.118 58.7381 113.361 54.0231C114.069 53.2381 115.279 53.1731 116.067 53.8811C116.853 54.5891 116.917 55.8011 116.209 56.5871C112.04 61.2181 108.099 66.1431 104.289 70.9041C100.446 75.7061 96.4715 80.6711 92.2305 85.3841C91.8525 85.8041 91.3305 86.0181 90.8055 86.0181Z" fill="#525D7D"/>
<path d="M98.2828 99.1C97.8578 99.1 97.4298 98.96 97.0748 98.671C96.2538 98.004 96.1288 96.797 96.7968 95.975C101.878 89.722 107.391 83.64 112.722 77.756C115.919 74.228 119.225 70.58 122.38 66.959C123.073 66.159 124.286 66.077 125.083 66.773C125.882 67.467 125.965 68.678 125.269 69.476C122.09 73.127 118.771 76.79 115.561 80.331C110.264 86.176 104.787 92.22 99.7698 98.393C99.3928 98.858 98.8398 99.1 98.2828 99.1Z" fill="#525D7D"/>
<path d="M42.533 157.776C42.006 157.776 41.502 157.559 41.14 157.175C40.769 156.782 40.581 156.249 40.623 155.71C40.808 153.343 41.059 151.032 41.368 148.84C41.973 144.557 45.839 144.261 48.397 144.066C48.919 144.026 49.451 143.985 49.978 143.919C52.558 143.594 55.135 143.221 57.713 142.849L59.522 142.59C59.617 139.293 59.822 137.28 60.021 135.325C60.253 133.036 60.473 130.873 60.533 126.698C60.548 125.649 61.403 124.809 62.448 124.809C63.535 124.825 64.38 125.694 64.365 126.753C64.302 131.095 64.064 133.443 63.832 135.713C63.601 137.992 63.381 140.146 63.316 144.286C63.301 145.23 62.601 146.022 61.667 146.154L58.259 146.642C55.658 147.017 53.059 147.393 50.456 147.722C49.868 147.796 49.272 147.842 48.688 147.887C45.644 148.119 45.302 148.376 45.162 149.376C44.956 150.835 44.777 152.349 44.627 153.9L83.798 153.09L122.984 152.507C122.778 150.962 122.546 149.454 122.289 148.004C122.112 147.012 121.762 146.767 118.713 146.643C118.127 146.619 117.53 146.594 116.939 146.541C114.342 146.307 111.747 146.026 109.15 145.745L105.68 145.373C104.742 145.275 104.015 144.508 103.966 143.565C103.754 139.428 103.458 137.283 103.145 135.014C102.834 132.754 102.512 130.417 102.295 126.081C102.242 125.024 103.056 124.125 104.113 124.072C105.169 124.023 106.069 124.833 106.122 125.89C106.33 130.059 106.627 132.211 106.941 134.491C107.21 136.438 107.486 138.443 107.698 141.735L109.562 141.935C112.136 142.214 114.708 142.492 117.283 142.725C117.811 142.773 118.345 142.794 118.869 142.815C121.432 142.919 125.306 143.077 126.062 147.336C126.449 149.513 126.782 151.815 127.052 154.176C127.113 154.714 126.944 155.252 126.587 155.658C126.23 156.064 125.718 156.3 125.176 156.309L83.867 156.923C83.867 156.922 42.573 157.775 42.533 157.776Z" fill="#525D7D"/>
<path d="M60.7592 146.192C59.7202 146.192 58.8673 145.361 58.8443 144.318C58.8203 143.26 59.6592 142.383 60.7172 142.36L104.515 141.392C105.572 141.373 106.45 142.208 106.473 143.265C106.497 144.324 105.657 145.2 104.6 145.223C104.6 145.223 60.8022 146.191 60.7592 146.192Z" fill="#525D7D"/>
</g>
<defs>
<clipPath id="clip0">
<rect width="175.455" height="163.049" fill="white"/>
</clipPath>
</defs>
</svg>
