<svg width="20" height="16" viewBox="0 0 20 16" fill="none" xmlns="http://www.w3.org/2000/svg">
<path d="M19.9832 2.30852C19.9832 2.28567 19.9989 2.26342 19.9978 2.24083L13.8945 8.1217L19.9905 13.8147C19.9941 13.774 19.9832 13.733 19.9832 13.6915V2.30852Z" fill="url(#paint0_linear)"/>
<path d="M12.9653 9.02696L10.4737 11.4241C10.3477 11.5454 10.1848 11.6063 10.0219 11.6063C9.86236 11.6063 9.70283 11.5481 9.57762 11.4314L7.09284 9.11594L0.957031 15.0302C1.10623 15.0838 1.26637 15.1254 1.43407 15.1254H18.6098C18.8588 15.1254 19.0924 15.0496 19.2955 14.9364L12.9653 9.02696Z" fill="url(#paint1_linear)"/>
<path d="M10.013 10.057L19.3275 1.08436C19.1166 0.958974 18.8712 0.874863 18.6081 0.874863H1.43232C1.08971 0.874863 0.775765 1.00789 0.53125 1.21079L10.013 10.057Z" fill="url(#paint2_linear)"/>
<path d="M0 2.52718V13.6914C0 13.8196 0.0294565 13.9432 0.0614329 14.0613L6.12113 8.22592L0 2.52718Z" fill="url(#paint3_linear)"/>
<defs>
<linearGradient id="paint0_linear" x1="19.9892" y1="7.96701" x2="13.8867" y2="7.96701" gradientUnits="userSpaceOnUse">
<stop stop-color="#FFCC80"/>
<stop offset="1" stop-color="#FF8080"/>
</linearGradient>
<linearGradient id="paint1_linear" x1="19.2694" y1="12.0442" x2="0.933607" y2="12.0442" gradientUnits="userSpaceOnUse">
<stop stop-color="#FFCC80"/>
<stop offset="1" stop-color="#FF8080"/>
</linearGradient>
<linearGradient id="paint2_linear" x1="19.3008" y1="5.4177" x2="0.507241" y2="5.4177" gradientUnits="userSpaceOnUse">
<stop stop-color="#FFCC80"/>
<stop offset="1" stop-color="#FF8080"/>
</linearGradient>
<linearGradient id="paint3_linear" x1="6.11242" y1="8.23367" x2="-0.00781864" y2="8.23367" gradientUnits="userSpaceOnUse">
<stop stop-color="#FFCC80"/>
<stop offset="1" stop-color="#FF8080"/>
</linearGradient>
</defs>
</svg>
