<svg width="34" height="29" viewBox="0 0 34 29" fill="none" xmlns="http://www.w3.org/2000/svg">
<path d="M0.625294 14.8711C0.533843 14.8711 0.533669 15.0131 0.625294 15.0131C0.716746 15.0131 0.716919 14.8711 0.625294 14.8711Z" fill="#E0DFE6"/>
<path d="M26.4218 11.3091C26.2474 11.3091 26.1009 11.1731 26.0902 10.9969C25.9677 8.98239 25.8663 7.23305 25.8663 6.22683C25.8663 5.3689 25.9026 4.49258 25.938 3.64488C25.973 2.80064 26.0091 1.92762 26.0091 1.0768C26.0091 0.993206 25.9437 0.92453 25.8599 0.920368C22.2451 0.746076 19.2563 0.664739 16.4541 0.664739C12.8866 0.664739 9.99142 0.793247 7.06636 1.08148C6.8845 1.09848 6.72085 0.966326 6.70281 0.783535C6.68476 0.600919 6.81821 0.438246 7.00094 0.420209C9.94855 0.129549 12.8639 0 16.4541 0C19.2672 0 22.266 0.0815099 25.892 0.256496C26.3307 0.277654 26.6743 0.637858 26.6743 1.07662C26.6743 1.94132 26.6378 2.82128 26.6024 3.67228C26.5676 4.51322 26.5315 5.38277 26.5315 6.22683C26.5315 7.21432 26.6321 8.95308 26.7541 10.9565C26.7652 11.1398 26.6257 11.2973 26.4424 11.3084C26.4353 11.3089 26.4286 11.3091 26.4218 11.3091Z" fill="white"/>
<path d="M8.22907 20.3076C6.1918 20.3076 4.1377 20.2806 2.12334 20.227C1.5335 20.2114 1.03408 19.7773 0.936206 19.1951C0.315135 15.5029 0 9.84817 0 2.38794L0 2.31406C0.000347064 1.77245 0.388886 1.31582 0.924059 1.22841C2.51049 0.96845 3.98534 0.7593 5.43225 0.58969C5.61411 0.568358 5.78001 0.698601 5.80136 0.881044C5.82287 1.06331 5.6922 1.22841 5.50982 1.24992C4.07298 1.41849 2.60802 1.62591 1.03165 1.88431C0.819246 1.91899 0.665149 2.09988 0.665149 2.3144V2.38811C0.665149 9.81158 0.976986 15.4293 1.59216 19.085C1.63745 19.3546 1.86842 19.5556 2.14121 19.5629C4.1495 19.6162 6.1977 19.6432 8.22907 19.6432C12.208 19.6432 15.8407 19.5718 19.0269 19.4306C19.213 19.4289 19.3659 19.5645 19.3738 19.748C19.382 19.9315 19.2399 20.0867 19.0563 20.0947C15.8607 20.236 12.2177 20.3076 8.22907 20.3076Z" fill="white"/>
<path d="M19.1928 27.9293C19.1257 27.9293 19.0584 27.9088 19.0009 27.8682C18.7986 27.7253 18.5896 27.5897 18.3812 27.4541C18.0343 27.2288 17.6758 26.9959 17.3461 26.729C17.2484 26.6497 17.2036 26.5223 17.2305 26.3995C18.9959 18.3454 29.1739 6.34961 31.0481 6.34961C32.011 6.34961 32.6836 7.08875 32.6836 8.14699C32.6836 9.57775 31.0708 12.3897 29.3638 15.3665C28.6077 16.6849 27.8257 18.048 27.255 19.189C26.9593 19.7798 26.624 20.3832 26.2301 21.0337C24.7908 23.4117 23.0519 25.3194 21.0616 26.7038L20.3772 27.1787C20.0459 27.4081 19.7143 27.6379 19.3836 27.8691C19.3261 27.9091 19.2595 27.9293 19.1928 27.9293ZM17.9261 26.3386C18.1831 26.5327 18.4567 26.7104 18.7436 26.8969C18.8937 26.9943 19.0438 27.092 19.1918 27.1922C19.4604 27.0049 19.7294 26.8186 19.9982 26.6326L20.6816 26.1584C22.5948 24.8276 24.2701 22.9875 25.6609 20.6896C26.0456 20.0545 26.3722 19.4665 26.6599 18.8917C27.2392 17.7339 28.0258 16.3625 28.7864 15.0361C30.3013 12.3947 32.0183 9.40085 32.0183 8.14716C32.0183 7.45901 31.6372 7.01452 31.0477 7.01452C29.8009 7.10557 19.8717 18.0189 17.9261 26.3386Z" fill="white"/>
<path d="M32.0474 9.80389C32.0021 9.80389 31.9561 9.7947 31.9122 9.7751C31.3237 9.51289 30.3183 9.15598 28.7478 8.65183C28.5729 8.59581 28.4768 8.40851 28.5328 8.23387C28.589 8.05924 28.7768 7.96298 28.951 8.019C30.5668 8.53772 31.5636 8.89202 32.1827 9.16794C32.3505 9.24269 32.4258 9.43918 32.351 9.60671C32.296 9.73053 32.1746 9.80389 32.0474 9.80389Z" fill="white"/>
<path d="M32.2869 7.58174C32.2546 7.58174 32.2216 7.57705 32.189 7.567C32.0134 7.51306 31.9148 7.32715 31.9688 7.15182C32.0774 6.7982 32.2369 6.46054 32.3908 6.13381C32.4221 6.06739 32.4535 6.00096 32.4845 5.9342C32.2739 5.848 32.0458 5.76944 31.7968 5.69678C31.7809 5.71846 31.7649 5.74013 31.7489 5.76181C31.5301 6.05785 31.3234 6.33758 31.2039 6.66605C31.1412 6.83861 30.9502 6.9274 30.7778 6.8648C30.6052 6.80219 30.5162 6.61142 30.579 6.43904C30.7313 6.02039 30.9767 5.68828 31.2139 5.3671C31.2736 5.28645 31.3333 5.20564 31.3918 5.12309C31.472 5.00967 31.6146 4.95833 31.7488 4.99371C32.2532 5.12777 32.685 5.28229 33.0685 5.46612C33.229 5.5433 33.3005 5.73285 33.2304 5.89656C33.1547 6.07328 33.0733 6.24602 32.9926 6.41753C32.8418 6.73716 32.6997 7.03909 32.6048 7.34744C32.5605 7.48982 32.429 7.58174 32.2869 7.58174Z" fill="white"/>
<path d="M30.635 16.6372C30.4592 16.6372 30.1864 16.5708 29.9485 16.4173C29.6239 16.208 29.4375 15.8879 29.4239 15.5159C29.3844 14.4408 30.2694 13.7856 31.1251 13.1519C32.0103 12.4964 32.8467 11.8772 32.8083 10.8329C32.7839 10.1704 32.4606 9.54901 31.9646 9.21117C31.813 9.10781 31.7737 8.90109 31.8772 8.74934C31.9806 8.59777 32.1876 8.5584 32.3393 8.66194C33.0063 9.11631 33.4407 9.93887 33.4728 10.8082C33.524 12.2028 32.4599 12.9906 31.5209 13.6859C31.1917 13.9296 30.8814 14.1593 30.6343 14.3976C30.7522 14.3754 30.8523 14.3635 30.946 14.3602C31.3052 14.3463 31.5185 14.4845 31.636 14.6016C31.7885 14.7544 31.8739 14.9677 31.8831 15.2183C31.8916 15.4479 31.7758 15.7828 31.595 16.0514C31.3496 16.4158 31.0173 16.6237 30.6588 16.6367C30.6512 16.6371 30.6432 16.6372 30.635 16.6372ZM30.3156 14.766C30.1642 14.9874 30.0785 15.2242 30.0884 15.4912C30.103 15.8842 30.568 15.9692 30.6345 15.9727C30.9772 15.96 31.2235 15.3858 31.2186 15.2427C31.2157 15.1636 31.1968 15.1028 31.1653 15.0714C31.1197 15.0256 31.0211 15.0227 30.9705 15.0242C30.9011 15.0268 30.8171 15.0383 30.7135 15.0596C30.5326 15.0957 30.3577 14.9803 30.3208 14.8008C30.3185 14.7892 30.3166 14.7776 30.3156 14.766Z" fill="white"/>
<path d="M23.3385 17.7317C22.8241 17.7317 22.3554 17.3706 22.1779 17.2152C22.0396 17.0945 22.0257 16.8845 22.1467 16.7464C22.2673 16.6082 22.4776 16.594 22.6157 16.7152C22.8524 16.9221 23.115 17.0543 23.31 17.0662C23.7435 16.8486 25.1462 14.5581 25.3437 14.04C25.2965 13.9581 25.0638 13.7885 24.7601 13.6872C24.5858 13.6291 24.4918 13.4409 24.5499 13.267C24.6079 13.0929 24.7963 12.9989 24.9706 13.057C25.1453 13.1152 26.0164 13.4371 26.0164 14.058C26.0164 14.2878 24.22 17.7317 23.3385 17.7317Z" fill="white"/>
<path d="M22.4249 25.529C22.3584 25.529 22.2914 25.509 22.2329 25.4678C21.0403 24.623 19.7967 23.9135 18.5367 23.3587C18.3686 23.2847 18.2924 23.0885 18.3665 22.9207C18.4408 22.7528 18.6368 22.6765 18.8048 22.7504C20.1058 23.3232 21.3887 24.055 22.6177 24.9253C22.7674 25.0314 22.8028 25.239 22.6968 25.3887C22.6317 25.4803 22.5292 25.529 22.4249 25.529Z" fill="white"/>
<path d="M17.0176 28.9998C16.9314 28.9998 16.7523 28.9998 16.6313 28.8475C16.5411 28.7341 16.5413 28.611 16.5413 28.5022C16.5413 28.0002 16.7998 27.6048 17.0499 27.2223C17.1804 27.0229 17.3036 26.8344 17.3836 26.6424C17.454 26.4732 17.6487 26.3927 17.8185 26.4634C17.988 26.5338 18.0682 26.7284 17.9975 26.898C17.8939 27.1467 17.7478 27.3701 17.6066 27.5862C17.5207 27.7173 17.4369 27.8456 17.3681 27.9717C17.5556 27.7803 17.7572 27.5595 17.8872 27.4173C18.035 27.2556 18.1667 27.1115 18.2603 27.0182C18.3902 26.8883 18.6007 26.8885 18.7305 27.0181C18.8603 27.1478 18.8605 27.3581 18.7307 27.488C18.6422 27.5765 18.5181 27.7128 18.3784 27.8656C17.5878 28.7305 17.297 28.9998 17.0176 28.9998ZM17.2069 28.5589H17.2101H17.2069Z" fill="white"/>
<path d="M13.7861 11.5576C13.0188 11.5576 12.3153 10.9803 11.9529 10.6223L0.311181 2.09433C0.163158 1.98576 0.131055 1.77783 0.239686 1.6299C0.348317 1.48196 0.556382 1.44988 0.704405 1.55827L12.3663 10.101C12.38 10.1111 12.3928 10.122 12.4048 10.134C12.8876 10.6163 13.3912 10.8929 13.7863 10.8929C13.9951 10.8929 14.1806 10.8188 14.3534 10.6667C15.6834 9.49543 17.0506 8.32411 18.3731 7.19164C20.8919 5.03423 23.4965 2.80329 25.9542 0.474711C26.0871 0.348457 26.2975 0.354007 26.4243 0.487197C26.5505 0.620388 26.5447 0.830926 26.4116 0.957006C23.9418 3.29721 21.3308 5.53352 18.8057 7.69614C17.485 8.82722 16.1194 9.99697 14.793 11.1652C14.4974 11.4256 14.1589 11.5576 13.7861 11.5576Z" fill="white"/>
<path d="M1.47567 19.9178C1.4611 19.9178 1.44652 19.917 1.43177 19.9149C1.24973 19.891 1.12149 19.7239 1.14562 19.542C1.33477 18.1074 3.89246 14.808 8.74754 9.73534C8.87457 9.6025 9.08489 9.59781 9.21764 9.72493C9.35039 9.85188 9.35508 10.0622 9.22805 10.1947C2.99269 16.7098 1.90065 18.9019 1.80486 19.6287C1.78265 19.7963 1.63983 19.9178 1.47567 19.9178Z" fill="white"/>
<path d="M23.2507 13.8769C23.1532 13.8769 23.0567 13.834 22.9909 13.7522C22.8023 13.5163 22.6471 13.362 22.4722 13.2356C22.4452 13.216 22.4212 13.1925 22.4011 13.1658C22.3933 13.1579 21.9329 12.6473 17.9691 9.52998C17.8247 9.41656 17.7999 9.20758 17.9134 9.06347C18.027 8.91918 18.2365 8.89438 18.3802 9.0078C21.9192 11.7909 22.7127 12.5304 22.8894 12.7172C23.1041 12.8762 23.2915 13.0637 23.5101 13.337C23.6248 13.4804 23.6016 13.6896 23.4582 13.8042C23.397 13.8531 23.3236 13.8769 23.2507 13.8769Z" fill="white"/>
</svg>
