<svg width="75" height="74" viewBox="0 0 75 74" fill="none" xmlns="http://www.w3.org/2000/svg">
<circle cx="40.5" cy="39.5" r="34.5" fill="#FF8080" fill-opacity="0.2"/>
<path d="M34.9981 42.6086C29.3251 42.6086 23.9214 45.0115 20.1688 49.2023C19.6088 49.8293 19.662 50.7895 20.2875 51.351C20.5766 51.6113 20.9403 51.7391 21.3025 51.7391C21.7194 51.7391 22.1364 51.5686 22.4362 51.2323C25.612 47.6852 30.1909 45.6521 34.9981 45.6521C39.8068 45.6521 44.3857 47.6852 47.5601 51.2323C48.1201 51.8593 49.0833 51.911 49.7088 51.351C50.3342 50.791 50.3875 49.8293 49.8275 49.2023C46.0764 45.013 40.6727 42.6086 34.9981 42.6086Z" fill="#FF8080"/>
<path d="M35 0C15.6998 0 0 15.7013 0 35C0 54.2987 15.6998 70 35 70C54.3002 70 70 54.2987 70 35C70 15.7013 54.3002 0 35 0ZM35 66.9565C17.3798 66.9565 3.04348 52.6217 3.04348 35C3.04348 17.3783 17.3798 3.04348 35 3.04348C52.6202 3.04348 66.9565 17.3783 66.9565 35C66.9565 52.6217 52.6202 66.9565 35 66.9565Z" fill="#FF8080"/>
<path d="M53.2621 24.3479C52.4205 24.3479 51.7403 25.0296 51.7403 25.8696C51.7403 28.3866 49.6921 30.4349 47.1751 30.4349C44.6581 30.4349 42.6099 28.3866 42.6099 25.8696C42.6099 25.0296 41.9297 24.3479 41.0881 24.3479C40.2466 24.3479 39.5664 25.0296 39.5664 25.8696C39.5664 30.0651 42.9797 33.4783 47.1751 33.4783C51.3705 33.4783 54.7838 30.0651 54.7838 25.8696C54.7838 25.0296 54.1036 24.3479 53.2621 24.3479Z" fill="#FF8080"/>
<path d="M30.4361 25.8696C30.4361 25.0296 29.7559 24.3479 28.9144 24.3479C28.0729 24.3479 27.3927 25.0296 27.3927 25.8696C27.3927 28.3866 25.3444 30.4349 22.8274 30.4349C20.3105 30.4349 18.2622 28.3866 18.2622 25.8696C18.2622 25.0296 17.582 24.3479 16.7405 24.3479C15.899 24.3479 15.2188 25.0296 15.2188 25.8696C15.2188 30.0651 18.632 33.4783 22.8274 33.4783C27.0229 33.4783 30.4361 30.0651 30.4361 25.8696Z" fill="#FF8080"/>
</svg>
