<svg width="27" height="35" viewBox="0 0 27 35" fill="none" xmlns="http://www.w3.org/2000/svg">
<g clip-path="url(#clip0)">
<path d="M9.82258 33.4355C5.05321 33.4355 2.66682 33.2532 1.35723 31.9345C-0.0311514 30.5365 -0.0100065 28.1138 0.0326823 23.287C0.0404621 22.3863 0.0492392 21.403 0.0492392 20.3297C0.0492392 18.7167 0.0803582 16.8541 0.108086 15.2109C0.12564 14.1442 0.141998 13.1955 0.145389 12.5229C0.146386 12.3115 0.317341 12.1408 0.527394 12.1408C0.740638 12.1418 0.910995 12.3149 0.909399 12.5267C0.905808 13.2019 0.890049 14.1534 0.872096 15.2237C0.844568 16.8637 0.813249 18.7229 0.813249 20.3295C0.813249 21.4054 0.804871 22.3909 0.796692 23.2936C0.757594 27.7609 0.73605 30.2218 1.89862 31.3922C3.21061 32.7133 6.33008 32.6943 12.5391 32.656C13.7087 32.649 14.9903 32.641 16.3947 32.641C18.5407 32.641 20.3224 32.4571 22.0019 32.0625C22.4619 31.9543 22.8824 31.3191 22.9592 30.6158C23.473 25.9079 23.7128 20.7395 23.7128 14.3504C23.7128 12.6715 23.6913 10.591 23.6849 9.99103L23.6835 9.81856C23.6835 9.37846 23.6903 8.93816 23.6968 8.49786C23.7036 8.06136 23.7106 7.62507 23.7106 7.18878C23.7106 4.11449 23.4118 2.6728 22.6085 1.86913C21.4876 0.748546 19.1196 0.75756 14.821 0.777192C14.2365 0.779595 13.6161 0.7824 12.9584 0.7824L12.4737 0.781999C12.2624 0.781599 12.0917 0.609525 12.0919 0.397789C12.0919 0.185852 12.2632 0.0141795 12.4739 0.0141795C12.4743 0.0141795 12.9582 0.0145801 12.9582 0.0145801C13.6149 0.0145801 14.2343 0.0119759 14.8176 0.00937181C19.3212 -0.00985874 21.8018 -0.0204756 23.1475 1.32506C24.2526 2.43022 24.4746 4.38813 24.4746 7.18858C24.4746 7.62888 24.4678 8.06918 24.4613 8.50948C24.4545 8.94577 24.4475 9.38206 24.4475 9.81836L24.4493 9.98282C24.4557 10.5838 24.4768 12.6681 24.4768 14.35C24.4768 20.7677 24.236 25.9626 23.719 30.6991C23.6033 31.7554 22.9689 32.6232 22.1758 32.8097C20.4377 33.2181 18.6005 33.4084 16.3945 33.4084C14.9919 33.4084 13.7121 33.4162 12.5435 33.4235C11.5597 33.4299 10.6548 33.4355 9.82258 33.4355Z" fill="white"/>
<path d="M0.471747 9.71956C0.265883 9.71956 0.0959254 9.55469 0.089941 9.34656C0.0628117 8.36921 0.0402704 7.48801 0.0402704 6.6C0.0402704 6.2823 0.038874 5.98102 0.0374776 5.69476C0.0265062 3.35705 0.0199235 1.94601 0.874897 1.08704C1.98201 -0.0261257 4.38875 -0.0165105 9.66839 0.00552451C9.87964 0.00632578 10.0502 0.179 10.049 0.390937C10.0484 0.602473 9.87745 0.773344 9.667 0.773344C4.76078 0.752311 2.29799 0.742896 1.41569 1.6299C0.785729 2.26251 0.791713 3.55296 0.802086 5.69116C0.803084 5.97841 0.80448 6.28109 0.80448 6.6C0.80448 7.4782 0.827021 8.35379 0.854151 9.32493C0.860135 9.53687 0.693768 9.71335 0.471747 9.71956Z" fill="white"/>
<path d="M9.61555 29.1505C5.99738 29.1505 3.07499 28.9622 0.418907 28.558C0.209852 28.5263 0.0664254 28.3306 0.0981428 28.1211C0.129461 27.9113 0.32555 27.7659 0.53321 27.7992C3.15079 28.1974 6.03687 28.3829 9.61555 28.3829C11.4518 28.3829 13.3251 28.3364 15.1368 28.2914C16.9576 28.2461 18.8411 28.1994 20.6965 28.1994C21.2884 28.1994 21.8615 28.2054 21.8615 28.2054C21.969 28.2054 22.0797 28.2026 22.191 28.1972C22.3969 28.1874 22.5808 28.3502 22.5912 28.5622C22.6013 28.7739 22.4386 28.9538 22.2277 28.964C22.1044 28.97 21.9809 28.9732 21.8577 28.9732C21.8531 28.9732 21.2838 28.9672 20.6965 28.9672C18.8505 28.9672 16.9722 29.0137 15.1559 29.059C13.3395 29.1038 11.4611 29.1505 9.61555 29.1505Z" fill="white"/>
<path d="M14.2855 31.2739C14.2676 31.2739 14.2496 31.2727 14.2312 31.2699C13.7798 31.2052 13.2979 31.1764 12.6687 31.1764C12.3769 31.1764 12.085 31.1824 11.7928 31.1884C11.4956 31.1944 11.1985 31.2006 10.9009 31.2006C10.5131 31.2006 10.1892 31.1904 9.88258 31.1682C9.67172 31.1531 9.51354 30.9694 9.5283 30.7579C9.54346 30.5466 9.72598 30.3879 9.93683 30.4025C10.2251 30.4234 10.5315 30.4328 10.9009 30.4328C11.1932 30.4328 11.485 30.4268 11.7772 30.4208C12.0745 30.4148 12.3715 30.4086 12.6687 30.4086C13.3356 30.4086 13.8506 30.44 14.3392 30.5099C14.5482 30.5398 14.6934 30.7343 14.6637 30.9442C14.6362 31.1359 14.4726 31.2739 14.2855 31.2739Z" fill="white"/>
<path d="M12.575 23.413C8.23669 23.413 5.08789 20.3672 5.08789 16.1707C5.08789 12.0688 8.14253 10.6217 9.07909 10.2758C9.25962 10.2099 9.4619 10.2876 9.55047 10.4594C10.0045 11.3386 10.6344 12.4999 11.0831 13.3192C11.1341 13.4125 11.1443 13.5229 11.1112 13.6239C11.0781 13.7248 11.0047 13.8078 10.9085 13.8524C9.55845 14.4796 8.78406 15.1848 8.78406 15.7867C8.78406 16.6697 10.36 19.6128 11.6219 19.6128C12.3458 19.6128 13.2087 19.224 13.8796 18.885C14.0505 18.7981 14.2606 18.8534 14.3685 19.0136C14.6947 19.5006 15.0322 19.9806 15.3699 20.4607C15.6853 20.9092 16.0013 21.358 16.3085 21.8133C16.3673 21.9006 16.3879 22.0084 16.3653 22.1112C16.3428 22.2141 16.2789 22.3031 16.189 22.3575C14.966 23.0973 13.8848 23.413 12.575 23.413ZM9.03222 11.1219C7.87822 11.6295 5.8521 12.976 5.8521 16.1707C5.8521 19.983 8.6167 22.6452 12.575 22.6452C13.6255 22.6452 14.4812 22.4271 15.4427 21.9024C15.2125 21.5675 14.9789 21.2356 14.7455 20.9036C14.4685 20.51 14.1918 20.1168 13.9215 19.7196C13.2261 20.0529 12.3917 20.3804 11.6219 20.3804C9.72262 20.3804 8.01985 16.8466 8.01985 15.7867C8.01985 14.7208 9.14293 13.8885 10.2197 13.3354C9.84889 12.6555 9.40225 11.8292 9.03222 11.1219Z" fill="white"/>
<path d="M14.7571 17.0054C14.571 17.0054 14.4078 16.8688 14.3797 16.6785C14.1622 15.2238 13.5953 14.2206 12.6949 13.697C12.5119 13.5908 12.4495 13.356 12.5556 13.1723C12.6614 12.9892 12.8947 12.9265 13.0777 13.0325C14.1898 13.6789 14.882 14.8672 15.1355 16.5645C15.1668 16.7742 15.023 16.9696 14.8143 17.0012C14.7948 17.004 14.7758 17.0054 14.7571 17.0054Z" fill="white"/>
<path d="M16.5655 17.8197C16.3544 17.8197 16.1835 17.6478 16.1835 17.4359C16.1835 14.9102 15.1591 12.8103 13.4436 11.8185C13.2607 11.7128 13.1976 11.478 13.303 11.2943C13.4087 11.1104 13.6427 11.0473 13.825 11.1531C15.7805 12.2839 16.9477 14.6326 16.9477 17.4359C16.9477 17.648 16.7767 17.8197 16.5655 17.8197Z" fill="white"/>
<path d="M0.38276 5.43828C0.373584 5.43828 0.364408 5.43787 0.355232 5.43727C0.144381 5.42225 -0.013807 5.23856 0.000954507 5.02702C0.130218 3.21294 2.03625 2.63062 7.84453 2.63062C17.4695 2.63062 21.4822 3.00201 23.178 4.05027C23.3577 4.16145 23.4138 4.39782 23.3035 4.57851C23.1924 4.759 22.957 4.81509 22.7774 4.70411C21.0178 3.61678 15.7591 3.39843 7.84453 3.39843C2.02249 3.39843 0.83957 4.01562 0.763768 5.08191C0.749405 5.28403 0.581642 5.43828 0.38276 5.43828Z" fill="white"/>
</g>
<defs>
<clipPath id="clip0">
<rect width="26.1333" height="35" fill="white"/>
</clipPath>
</defs>
</svg>
