<svg width="27" height="35" viewBox="0 0 27 35" fill="none" xmlns="http://www.w3.org/2000/svg">
<g clip-path="url(#clip0)">
<path d="M23.3381 29.8622C23.548 29.3338 23.683 28.7667 23.7734 28.193C24.3539 24.5075 24.5156 20.7387 24.5847 17.0136C24.6517 13.3904 24.3287 9.72002 23.7363 6.14454C23.4385 4.34708 22.8268 0.385587 20.1756 1.10453C19.9912 1.03502 19.8079 0.971919 19.6308 0.923842C19.4959 0.887384 19.3677 1.07408 19.4863 1.17324C19.9174 1.53341 20.3772 1.85532 20.8021 2.22271C20.9202 2.32487 21.0349 2.43064 21.1492 2.5368C21.2276 2.98031 20.9914 3.74913 20.9539 4.19384C20.9398 4.3621 20.9302 4.52957 20.9182 4.69724C14.5247 3.86912 8.06091 3.43984 1.65419 4.39235C1.45671 4.4216 1.51077 4.73229 1.70027 4.7343C8.11058 4.7974 14.5319 4.97368 20.8306 6.26333C20.8035 6.96504 20.788 7.66736 20.7756 8.37388C20.7277 11.079 20.6152 13.7839 20.6399 16.4896C20.6645 19.1943 20.599 21.9002 20.5366 24.6039C20.5059 25.9356 20.4877 27.2749 20.4185 28.6048C20.3565 29.7961 20.0395 30.4273 19.1371 31.1843C19.0291 31.2749 18.9817 31.4361 18.9924 31.5898C17.0806 31.853 15.1141 31.9119 13.1927 31.994C11.1572 32.0811 9.12174 32.1038 7.08624 32.1723C6.16125 32.2035 5.19318 32.2817 4.28175 32.0781C2.92508 31.7753 2.32943 31.1729 1.90015 29.878C1.88459 29.8314 1.83293 29.8201 1.79662 29.8506C0.424994 31.004 2.16686 33.0841 3.31287 33.6048C5.7226 34.6995 8.83329 34.4846 11.4118 34.4844C14.2679 34.484 17.1365 34.3009 19.9783 34.0174C21.8903 33.8267 24.4067 33.2832 24.7303 31.0201C24.838 30.2701 24.1141 29.4107 23.3381 29.8622Z" fill="#E0DFE6"/>
<path d="M15.6365 21.688C14.8549 22.978 12.6395 22.6844 11.4181 22.3857C10.6882 22.2072 9.94434 21.9408 9.2665 21.6171C8.51865 21.2597 7.31419 20.787 6.9256 20.044C6.82686 19.8551 6.58409 19.8961 6.47657 20.044C4.53523 22.7104 15.6842 28.5685 17.4891 22.4724C17.821 21.3517 16.228 20.7116 15.6365 21.688Z" fill="#E0DFE6"/>
<path d="M15.0442 19.9129C14.7334 19.9494 14.4485 20.0283 14.1778 20.1311C14.4236 19.6872 14.2319 19.0382 13.6678 18.8467C12.6147 18.4889 11.5353 18.3286 10.881 17.3136C10.2357 16.3122 10.7537 15.3888 10.6406 14.3453C10.6235 14.1867 10.5289 14.0877 10.3684 14.0719C9.61472 13.9972 9.01248 14.7395 8.68214 15.3413C8.19561 16.2277 8.20858 17.3749 8.62988 18.2848C9.38691 19.9196 11.4021 20.8729 13.1744 20.6233C12.6255 20.9346 12.0847 21.2675 11.4436 21.4522C10.1212 21.8334 8.26363 21.3645 7.34124 20.3496C7.12759 20.1145 6.69851 20.4328 6.894 20.6962C7.94746 22.1156 8.86726 23.4047 10.7224 23.7524C12.5634 24.0976 14.5086 23.1092 15.892 21.969C16.6596 21.3362 16.0567 19.7942 15.0442 19.9129Z" fill="#E0DFE6"/>
<path d="M25.8977 18.4854C25.6412 13.4648 25.3804 8.4452 24.404 3.50696C24.3673 3.32146 24.0958 3.37495 24.0878 3.54982C23.8987 7.74128 23.9891 11.9303 23.8873 16.1246C23.8363 18.2255 23.7331 20.3227 23.5955 22.4196C23.4694 24.3425 23.5027 26.3116 23.256 28.2222C22.7337 32.2626 18.8241 32.8546 15.4154 33.1961C13.5044 33.3876 11.5529 33.3844 9.63546 33.2965C8.63028 33.2504 7.62729 33.1509 6.62889 33.0263C5.743 32.9157 4.19842 32.9223 3.51021 32.2282C2.99914 31.7126 2.08772 32.2346 2.28939 32.9419C2.79128 34.7015 5.42562 34.5539 6.87884 34.6959C9.21096 34.9237 11.5656 35.0389 13.9083 34.9884C17.496 34.9111 23.016 35.5292 25.0715 31.7745C26.0194 30.0429 26.0764 28.0181 26.1205 26.091C26.1786 23.553 26.0272 21.0194 25.8977 18.4854Z" fill="#E0DFE6"/>
<path d="M9.82258 33.4355C5.05321 33.4355 2.66682 33.2532 1.35723 31.9345C-0.0311514 30.5365 -0.0100065 28.1138 0.0326823 23.287C0.0404621 22.3863 0.0492392 21.403 0.0492392 20.3297C0.0492392 18.7167 0.0803582 16.8541 0.108086 15.2109C0.12564 14.1442 0.141998 13.1955 0.145389 12.5229C0.146386 12.3115 0.317341 12.1408 0.527394 12.1408C0.740638 12.1418 0.910995 12.3149 0.909399 12.5267C0.905808 13.2019 0.890049 14.1534 0.872096 15.2237C0.844568 16.8637 0.813249 18.7229 0.813249 20.3295C0.813249 21.4054 0.804871 22.3909 0.796692 23.2936C0.757594 27.7609 0.73605 30.2218 1.89862 31.3922C3.21061 32.7133 6.33008 32.6943 12.5391 32.656C13.7087 32.649 14.9903 32.641 16.3947 32.641C18.5407 32.641 20.3224 32.4571 22.0019 32.0625C22.4619 31.9543 22.8824 31.3191 22.9592 30.6158C23.473 25.9079 23.7128 20.7395 23.7128 14.3504C23.7128 12.6715 23.6913 10.591 23.6849 9.99103L23.6835 9.81856C23.6835 9.37846 23.6903 8.93816 23.6968 8.49786C23.7036 8.06136 23.7106 7.62507 23.7106 7.18878C23.7106 4.11449 23.4118 2.6728 22.6085 1.86913C21.4876 0.748546 19.1196 0.75756 14.821 0.777192C14.2365 0.779595 13.6161 0.7824 12.9584 0.7824L12.4737 0.781999C12.2624 0.781599 12.0917 0.609525 12.0919 0.397789C12.0919 0.185852 12.2632 0.0141795 12.4739 0.0141795C12.4743 0.0141795 12.9582 0.0145801 12.9582 0.0145801C13.6149 0.0145801 14.2343 0.0119759 14.8176 0.00937181C19.3212 -0.00985874 21.8018 -0.0204756 23.1475 1.32506C24.2526 2.43022 24.4746 4.38813 24.4746 7.18858C24.4746 7.62888 24.4678 8.06918 24.4613 8.50948C24.4545 8.94577 24.4475 9.38206 24.4475 9.81836L24.4493 9.98282C24.4557 10.5838 24.4768 12.6681 24.4768 14.35C24.4768 20.7677 24.236 25.9626 23.719 30.6991C23.6033 31.7554 22.9689 32.6232 22.1758 32.8097C20.4377 33.2181 18.6005 33.4084 16.3945 33.4084C14.9919 33.4084 13.7121 33.4162 12.5435 33.4235C11.5597 33.4299 10.6548 33.4355 9.82258 33.4355Z" fill="#525D7D"/>
<path d="M0.471747 9.71956C0.265883 9.71956 0.0959254 9.55469 0.089941 9.34656C0.0628117 8.36921 0.0402704 7.48801 0.0402704 6.6C0.0402704 6.2823 0.038874 5.98102 0.0374776 5.69476C0.0265062 3.35705 0.0199235 1.94601 0.874897 1.08704C1.98201 -0.0261257 4.38875 -0.0165105 9.66839 0.00552451C9.87964 0.00632578 10.0502 0.179 10.049 0.390937C10.0484 0.602473 9.87745 0.773344 9.667 0.773344C4.76078 0.752311 2.29799 0.742896 1.41569 1.6299C0.785729 2.26251 0.791713 3.55296 0.802086 5.69116C0.803084 5.97841 0.80448 6.28109 0.80448 6.6C0.80448 7.4782 0.827021 8.35379 0.854151 9.32493C0.860135 9.53687 0.693768 9.71335 0.471747 9.71956Z" fill="#525D7D"/>
<path d="M9.61653 29.1505C5.99835 29.1505 3.07597 28.9622 0.419884 28.558C0.210828 28.5263 0.067402 28.3306 0.0991194 28.1211C0.130438 27.9113 0.326527 27.7659 0.534186 27.7992C3.15177 28.1974 6.03785 28.3829 9.61653 28.3829C11.4527 28.3829 13.3261 28.3364 15.1378 28.2914C16.9586 28.2461 18.8421 28.1994 20.6975 28.1994C21.2893 28.1994 21.8624 28.2054 21.8624 28.2054C21.97 28.2054 22.0807 28.2026 22.192 28.1972C22.3978 28.1874 22.5818 28.3502 22.5921 28.5622C22.6023 28.7739 22.4395 28.9538 22.2287 28.964C22.1054 28.97 21.9819 28.9732 21.8586 28.9732C21.8541 28.9732 21.2847 28.9672 20.6975 28.9672C18.8515 28.9672 16.9732 29.0137 15.1569 29.059C13.3404 29.1038 11.4621 29.1505 9.61653 29.1505Z" fill="#525D7D"/>
<path d="M14.285 31.2739C14.2671 31.2739 14.2491 31.2727 14.2308 31.2699C13.7793 31.2052 13.2974 31.1764 12.6682 31.1764C12.3764 31.1764 12.0846 31.1824 11.7923 31.1884C11.4951 31.1944 11.1981 31.2006 10.9004 31.2006C10.5126 31.2006 10.1887 31.1904 9.88209 31.1682C9.67124 31.1531 9.51305 30.9694 9.52781 30.7579C9.54297 30.5466 9.7255 30.3879 9.93635 30.4025C10.2246 30.4234 10.531 30.4328 10.9004 30.4328C11.1927 30.4328 11.4845 30.4268 11.7768 30.4208C12.074 30.4148 12.371 30.4086 12.6682 30.4086C13.3351 30.4086 13.8502 30.44 14.3387 30.5099C14.5477 30.5398 14.693 30.7343 14.6632 30.9442C14.6357 31.1359 14.4721 31.2739 14.285 31.2739Z" fill="#525D7D"/>
<path d="M12.5755 23.413C8.23718 23.413 5.08838 20.3672 5.08838 16.1707C5.08838 12.0688 8.14302 10.6217 9.07958 10.2758C9.26011 10.2099 9.46239 10.2876 9.55096 10.4594C10.005 11.3386 10.6349 12.4999 11.0836 13.3192C11.1346 13.4125 11.1448 13.5229 11.1117 13.6239C11.0786 13.7248 11.0052 13.8078 10.909 13.8524C9.55894 14.4796 8.78455 15.1848 8.78455 15.7867C8.78455 16.6697 10.3604 19.6128 11.6224 19.6128C12.3463 19.6128 13.2092 19.224 13.8801 18.885C14.051 18.7981 14.2611 18.8534 14.369 19.0136C14.6952 19.5006 15.0327 19.9806 15.3704 20.4607C15.6858 20.9092 16.0018 21.358 16.309 21.8133C16.3678 21.9006 16.3883 22.0084 16.3658 22.1112C16.3433 22.2141 16.2794 22.3031 16.1895 22.3575C14.9664 23.0973 13.8853 23.413 12.5755 23.413ZM9.03271 11.1219C7.87871 11.6295 5.85259 12.976 5.85259 16.1707C5.85259 19.983 8.61719 22.6452 12.5755 22.6452C13.6259 22.6452 14.4817 22.4271 15.4432 21.9024C15.213 21.5675 14.9794 21.2356 14.746 20.9036C14.4689 20.51 14.1923 20.1168 13.922 19.7196C13.2266 20.0529 12.3922 20.3804 11.6224 20.3804C9.72311 20.3804 8.02034 16.8466 8.02034 15.7867C8.02034 14.7208 9.14342 13.8885 10.2202 13.3354C9.84938 12.6555 9.40274 11.8292 9.03271 11.1219Z" fill="#525D7D"/>
<path d="M14.7561 17.0054C14.57 17.0054 14.4068 16.8688 14.3787 16.6785C14.1613 15.2238 13.5943 14.2206 12.6939 13.697C12.511 13.5908 12.4485 13.356 12.5547 13.1723C12.6604 12.9892 12.8938 12.9265 13.0767 13.0325C14.1888 13.6789 14.881 14.8672 15.1345 16.5645C15.1659 16.7742 15.022 16.9696 14.8134 17.0012C14.7938 17.004 14.7749 17.0054 14.7561 17.0054Z" fill="#525D7D"/>
<path d="M16.565 17.8197C16.3539 17.8197 16.183 17.6478 16.183 17.4359C16.183 14.9102 15.1586 12.8103 13.4431 11.8185C13.2602 11.7128 13.1972 11.478 13.3025 11.2943C13.4082 11.1104 13.6422 11.0473 13.8245 11.1531C15.78 12.2839 16.9472 14.6326 16.9472 17.4359C16.9472 17.648 16.7762 17.8197 16.565 17.8197Z" fill="#525D7D"/>
<path d="M0.38276 5.43828C0.373584 5.43828 0.364408 5.43787 0.355232 5.43727C0.144381 5.42225 -0.013807 5.23856 0.000954507 5.02702C0.130218 3.21294 2.03625 2.63062 7.84453 2.63062C17.4695 2.63062 21.4822 3.00201 23.178 4.05027C23.3577 4.16145 23.4138 4.39782 23.3035 4.57851C23.1924 4.759 22.957 4.81509 22.7774 4.70411C21.0178 3.61678 15.7591 3.39843 7.84453 3.39843C2.02249 3.39843 0.83957 4.01562 0.763768 5.08191C0.749405 5.28403 0.581642 5.43828 0.38276 5.43828Z" fill="#525D7D"/>
</g>
<defs>
<clipPath id="clip0">
<rect width="26.1333" height="35" fill="white"/>
</clipPath>
</defs>
</svg>
