<svg width="20" height="20" viewBox="0 0 20 20" fill="none" xmlns="http://www.w3.org/2000/svg">
<path d="M10 0C4.47301 0 0 4.47254 0 10C0 15.527 4.47254 20 10 20C15.527 20 20 15.5275 20 10C20 4.47305 15.5275 0 10 0ZM12.0616 11.1336H9.21562C8.84746 11.1336 8.54895 10.8352 8.54895 10.467V6.08719C8.54895 5.71902 8.84742 5.42051 9.21562 5.42051C9.58383 5.42051 9.88231 5.71898 9.88231 6.08719V9.80031H12.0616C12.4298 9.80031 12.7283 10.0988 12.7283 10.467C12.7283 10.8352 12.4297 11.1336 12.0616 11.1336Z" fill="url(#paint0_linear)"/>
<defs>
<linearGradient id="paint0_linear" x1="19.9715" y1="9.89501" x2="-0.0255464" y2="9.89501" gradientUnits="userSpaceOnUse">
<stop stop-color="#FFCC80"/>
<stop offset="1" stop-color="#FF8080"/>
</linearGradient>
</defs>
</svg>
