<svg width="59" height="60" viewBox="0 0 59 60" fill="none" xmlns="http://www.w3.org/2000/svg">
<path d="M25.9397 9.14639C30.7151 13.9218 29.7789 24.5143 29.4139 29.9137C23.9751 30.2393 13.4219 31.2149 8.64657 26.4395C3.8712 21.6642 3.8712 13.9218 8.64657 9.14639C13.4219 4.37102 21.1644 4.37102 25.9397 9.14639Z" fill="url(#paint0_linear)"/>
<path d="M25.4094 9.67672C27.5989 11.8662 28.5427 15.4746 28.8569 19.3565C29.1444 22.9089 28.8952 26.5328 28.7107 29.2056C28.6033 29.2124 28.4944 29.2193 28.3841 29.2262C25.7282 29.3941 22.2513 29.6139 18.8411 29.3419C14.9637 29.0326 11.3659 28.0982 9.1769 25.9092C4.69443 21.4267 4.69443 14.1592 9.1769 9.67672C13.6594 5.19425 20.9269 5.19425 25.4094 9.67672Z" stroke="#525D7D" stroke-width="1.5"/>
<path d="M32.8879 50.6002C28.1125 45.8248 29.0487 35.2322 29.4138 29.8329C34.8525 29.5073 45.4057 28.5317 50.1811 33.307C54.9564 38.0824 54.9564 45.8248 50.1811 50.6002C45.4057 55.3756 37.6633 55.3756 32.8879 50.6002Z" fill="url(#paint1_linear)"/>
<path d="M33.595 49.8931C31.4716 47.7697 30.5331 44.2391 30.2199 40.3699C29.9418 36.9332 30.1688 33.4271 30.3513 30.7767C30.3874 30.7744 30.4237 30.7721 30.4602 30.7698C33.1174 30.6019 36.5757 30.3834 39.9667 30.6539C43.8315 30.9622 47.3512 31.8914 49.474 34.0141C53.8588 38.399 53.8588 45.5082 49.474 49.8931C45.0891 54.2779 37.9799 54.2779 33.595 49.8931Z" stroke="#525D7D" stroke-width="2"/>
<path d="M50.181 26.4397C45.4056 31.2151 34.8131 30.2789 29.4137 29.9139C29.0881 24.4751 28.1125 13.9219 32.8878 9.14657C37.6632 4.3712 45.4056 4.3712 50.181 9.14657C54.9564 13.9219 54.9564 21.6644 50.181 26.4397Z" fill="url(#paint2_linear)"/>
<path d="M49.6507 25.9094C47.4612 28.0989 43.8528 29.0427 39.9708 29.3569C36.4185 29.6444 32.7946 29.3952 30.1218 29.2107C30.115 29.1033 30.1081 28.9944 30.1012 28.8841C29.9333 26.2282 29.7135 22.7513 29.9855 19.3411C30.2948 15.4637 31.2292 11.8659 33.4182 9.6769C37.9007 5.19443 45.1682 5.19443 49.6507 9.6769C54.1331 14.1594 54.1331 21.4269 49.6507 25.9094Z" stroke="#525D7D" stroke-width="1.5"/>
<path d="M8.64664 33.3073C13.422 28.532 24.0146 29.4682 29.4139 29.8332C29.7396 35.272 30.7152 45.8251 25.9398 50.6005C21.1644 55.3759 13.422 55.3759 8.64664 50.6005C3.87127 45.8251 3.87127 38.0827 8.64664 33.3073Z" fill="url(#paint3_linear)"/>
<path d="M9.35375 34.0145C11.4772 31.891 15.0077 30.9525 18.877 30.6394C22.3136 30.3612 25.8197 30.5882 28.4701 30.7707C28.4724 30.8069 28.4747 30.8432 28.477 30.8796C28.6449 33.5369 28.8634 36.9951 28.5929 40.3861C28.2846 44.2509 27.3554 47.7706 25.2327 49.8934C20.8478 54.2782 13.7386 54.2782 9.35375 49.8934C4.9689 45.5085 4.9689 38.3993 9.35375 34.0145Z" stroke="#525D7D" stroke-width="2"/>
<defs>
<linearGradient id="paint0_linear" x1="27.5432" y1="10.7991" x2="10.2525" y2="28.0897" gradientUnits="userSpaceOnUse">
<stop stop-color="#FFCC80"/>
<stop offset="1" stop-color="#FF8080"/>
</linearGradient>
<linearGradient id="paint1_linear" x1="31.2845" y1="48.9475" x2="48.5751" y2="31.6569" gradientUnits="userSpaceOnUse">
<stop stop-color="#FFCC80"/>
<stop offset="1" stop-color="#FF8080"/>
</linearGradient>
<linearGradient id="paint2_linear" x1="48.5283" y1="28.0432" x2="31.2377" y2="10.7525" gradientUnits="userSpaceOnUse">
<stop stop-color="#FFCC80"/>
<stop offset="1" stop-color="#FF8080"/>
</linearGradient>
<linearGradient id="paint3_linear" x1="10.2993" y1="31.7039" x2="27.5899" y2="48.9945" gradientUnits="userSpaceOnUse">
<stop stop-color="#FFCC80"/>
<stop offset="1" stop-color="#FF8080"/>
</linearGradient>
</defs>
</svg>
