<svg width="174" height="45" viewBox="0 0 174 45" fill="none" xmlns="http://www.w3.org/2000/svg">
<path d="M3.03323 32.8778C4.77929 32.8778 5.45737 33.9804 5.45737 35.6344V36.8677C5.45737 38.6751 4.63238 39.5675 2.84111 39.5675H1.43409V44.2395H0.693848V32.8721L3.03323 32.8778ZM2.84111 38.8854C4.14642 38.8854 4.71148 38.3171 4.71148 36.9189V35.5889C4.71148 34.3555 4.29333 33.5598 3.01628 33.5598H1.41713V38.8854H2.84111Z" fill="white"/>
<path d="M10.2773 32.8778C12.0008 32.8778 12.6958 33.8326 12.6958 35.4411V36.4301C12.6958 37.7658 12.1816 38.5274 11.0684 38.7888C12.2325 39.0446 12.6958 39.8744 12.6958 41.1078V42.8754C12.6597 43.3472 12.7557 43.8197 12.9727 44.2395H12.1986C11.9973 43.815 11.9134 43.3438 11.9556 42.8754V41.0907C11.9556 39.5845 11.1306 39.1583 9.84223 39.1583H8.68384V44.2395H7.9436V32.8721L10.2773 32.8778ZM9.85919 38.4762C11.1814 38.4762 11.9556 38.1068 11.9556 36.5779V35.5093C11.9556 34.2873 11.4866 33.5598 10.2604 33.5598H8.68384V38.4762H9.85919Z" fill="white"/>
<path d="M15.4648 35.6514C15.4648 33.9975 16.222 32.8096 17.9342 32.8096C19.6463 32.8096 20.4374 34.0259 20.4374 35.6514V41.4659C20.4374 43.1198 19.6803 44.3418 17.9342 44.3418C16.1881 44.3418 15.4648 43.1198 15.4648 41.4659V35.6514ZM16.2107 41.5113C16.2107 42.7504 16.691 43.6598 17.9342 43.6598C19.1773 43.6598 19.6972 42.7504 19.6972 41.5113V35.606C19.6972 34.3726 19.1943 33.4632 17.9342 33.4632C16.6741 33.4632 16.2107 34.3726 16.2107 35.606V41.5113Z" fill="white"/>
<path d="M26.6475 38.4137V39.0957H23.7261V44.2395H22.9802V32.8721H27.2747V33.5541H23.7261V38.408L26.6475 38.4137Z" fill="white"/>
<path d="M33.5469 38.1352V38.8172H30.4673V43.5575H34.1798V44.2395H29.7214V32.8721H34.1798V33.5541H30.4673V38.1011L33.5469 38.1352Z" fill="white"/>
<path d="M41.5143 35.6228V35.8615H40.8024V35.5717C40.8024 34.3724 40.3503 33.463 39.1071 33.463C37.864 33.463 37.4119 34.3554 37.4119 35.5546C37.4119 38.3169 41.4974 38.3624 41.4974 41.4998C41.4974 43.1367 40.7854 44.3416 39.0563 44.3416C37.3272 44.3416 36.6208 43.1367 36.6208 41.4998V40.9314H37.3328V41.5623C37.3328 42.7786 37.8018 43.6596 39.028 43.6596C40.2542 43.6596 40.7232 42.7786 40.7232 41.5623C40.7232 38.8341 36.6434 38.7887 36.6434 35.6228C36.6434 33.9177 37.3837 32.8151 39.045 32.781C40.7063 32.7469 41.5143 33.9802 41.5143 35.6228Z" fill="white"/>
<path d="M48.8036 35.6228V35.8615H48.0917V35.5717C48.0917 34.3724 47.6396 33.463 46.3965 33.463C45.1533 33.463 44.7013 34.3554 44.7013 35.5546C44.7013 38.3169 48.7867 38.3624 48.7867 41.4998C48.7867 43.1367 48.0747 44.3416 46.3513 44.3416C44.6278 44.3416 43.9102 43.1367 43.9102 41.4998V40.9314H44.6221V41.5623C44.6221 42.7786 45.0912 43.6596 46.3174 43.6596C47.5436 43.6596 48.0126 42.7786 48.0126 41.5623C48.0126 38.8341 43.9271 38.7887 43.9271 35.6228C43.9271 33.9177 44.6674 32.8151 46.3343 32.781C48.0013 32.7469 48.8036 33.9802 48.8036 35.6228Z" fill="white"/>
<path d="M52.1206 32.8779V44.2454H51.3804V32.8779H52.1206Z" fill="white"/>
<path d="M54.7031 35.6514C54.7031 33.9975 55.4603 32.8096 57.1725 32.8096C58.8846 32.8096 59.6757 34.0259 59.6757 35.6514V41.4659C59.6757 43.1198 58.9185 44.3418 57.1725 44.3418C55.4264 44.3418 54.7031 43.1198 54.7031 41.4659V35.6514ZM55.449 41.5113C55.449 42.7504 55.9293 43.6598 57.1725 43.6598C58.4156 43.6598 58.9355 42.7504 58.9355 41.5113V35.606C58.9355 34.3726 58.4326 33.4632 57.1725 33.4632C55.9124 33.4632 55.449 34.3726 55.449 35.606V41.5113Z" fill="white"/>
<path d="M62.9305 44.2395H62.2524V32.8721H63.2244L66.6148 42.4662V32.8778H67.2928V44.2452H66.4678L62.9305 34.1111V44.2395Z" fill="white"/>
<path d="M70.9769 41.7273L70.4119 44.2395H69.7112L72.1805 32.8721H73.2598L75.78 44.2395H75.0398L74.4747 41.7273H70.9769ZM71.09 41.0737H74.3843L72.6891 33.7189L71.09 41.0737Z" fill="white"/>
<path d="M78.272 44.2395V32.8721H79.0179V43.5575H82.5665V44.2395H78.272Z" fill="white"/>
<path d="M91.1839 32.8778C92.9243 32.8778 93.6024 33.9804 93.6024 35.6344V36.8677C93.6024 38.6751 92.7774 39.5675 90.9861 39.5675H89.5848V44.2395H88.8389V32.8721L91.1839 32.8778ZM90.9861 38.8854C92.2971 38.8854 92.8621 38.3171 92.8621 36.9189V35.5889C92.8621 34.3555 92.4383 33.5598 91.1669 33.5598H89.5678V38.8854H90.9861Z" fill="white"/>
<path d="M96.8345 38.9025V44.2395H96.0886V32.8721H96.8345V38.2148H100.349V32.8721H101.106V44.2395H100.349V38.9025H96.8345Z" fill="white"/>
<path d="M103.717 35.6514C103.717 33.9975 104.474 32.8096 106.186 32.8096C107.899 32.8096 108.684 34.0259 108.684 35.6514V41.4659C108.684 43.1198 107.927 44.3418 106.186 44.3418C104.446 44.3418 103.717 43.1198 103.717 41.4659V35.6514ZM104.457 41.5113C104.457 42.7504 104.943 43.6598 106.186 43.6598C107.43 43.6598 107.944 42.7504 107.944 41.5113V35.606C107.944 34.3726 107.446 33.4632 106.186 33.4632C104.926 33.4632 104.457 34.3726 104.457 35.606V41.5113Z" fill="white"/>
<path d="M113.222 44.2397V33.56H110.91V32.8779H116.256V33.56H113.962V44.2397H113.222Z" fill="white"/>
<path d="M118.505 35.6514C118.505 33.9975 119.262 32.8096 120.974 32.8096C122.686 32.8096 123.472 34.0259 123.472 35.6514V41.4659C123.472 43.1198 122.715 44.3418 120.974 44.3418C119.234 44.3418 118.505 43.1198 118.505 41.4659V35.6514ZM119.245 41.5113C119.245 42.7504 119.731 43.6598 120.974 43.6598C122.217 43.6598 122.732 42.7504 122.732 41.5113V35.606C122.732 34.3726 122.229 33.4632 120.974 33.4632C119.72 33.4632 119.245 34.3726 119.245 35.606V41.5113Z" fill="white"/>
<path d="M132.598 33.5599C131.287 33.5599 130.626 34.2704 130.626 35.6686V36.1233C130.626 37.1464 131.191 37.925 132.174 37.9762H133.92V36.7087H134.66V37.9762H135.259V38.6582H134.643V42.7505C134.588 43.2654 134.69 43.7851 134.937 44.2396H134.163C133.983 43.9075 133.899 43.5316 133.92 43.154C133.763 43.525 133.495 43.8381 133.154 44.0507C132.814 44.2633 132.416 44.365 132.016 44.3419C130.53 44.3419 129.868 43.2677 129.868 41.7104V40.6362C129.821 40.1337 129.942 39.6297 130.211 39.2036C130.48 38.7776 130.882 38.4537 131.355 38.2831C130.337 37.9932 129.868 37.0668 129.868 35.9755V35.7027C129.868 33.8839 130.756 32.8608 132.581 32.8608H134.174V33.5429L132.598 33.5599ZM132.27 38.6753C131.208 38.7378 130.626 39.4994 130.626 40.6362V41.6763C130.626 42.8642 131.128 43.677 132.287 43.677C132.501 43.6932 132.716 43.6636 132.918 43.5901C133.12 43.5166 133.305 43.4008 133.459 43.2504C133.613 43.1001 133.734 42.9185 133.814 42.7177C133.893 42.5169 133.929 42.3014 133.92 42.0855V38.6753H132.27Z" fill="white"/>
<path d="M142.17 32.8779L144.464 43.3814L146.724 32.8779H147.419L144.967 44.2454H143.871L141.385 32.8779H142.17Z" fill="white"/>
<path d="M150.663 32.8779V44.2454H149.917V32.8779H150.663Z" fill="white"/>
<path d="M155.777 32.8779C157.523 32.8779 158.28 34.0147 158.28 35.7198V41.4035C158.28 43.1086 157.523 44.2454 155.777 44.2454H153.291V32.8779H155.777ZM155.777 43.5576C157.037 43.5576 157.557 42.6994 157.557 41.449V35.6686C157.557 34.4182 157.02 33.56 155.777 33.56H154.082V43.5576H155.777Z" fill="white"/>
<path d="M164.671 38.1352V38.8172H161.591V43.5575H165.304V44.2395H160.845V32.8721H165.304V33.5541H161.591V38.1011L164.671 38.1352Z" fill="white"/>
<path d="M167.807 35.6514C167.807 33.9975 168.564 32.8096 170.276 32.8096C171.989 32.8096 172.78 34.0259 172.78 35.6514V41.4659C172.78 43.1198 172.017 44.3418 170.276 44.3418C168.536 44.3418 167.807 43.1198 167.807 41.4659V35.6514ZM168.547 41.5113C168.547 42.7504 169.033 43.6598 170.276 43.6598C171.52 43.6598 172.034 42.7504 172.034 41.5113V35.606C172.034 34.3726 171.537 33.4632 170.276 33.4632C169.016 33.4632 168.547 34.3726 168.547 35.606V41.5113Z" fill="white"/>
<path d="M5.3614 12.2517H11.4133V16.2871H5.3614V24.5285H12.9785V28.5582H0.953857V0.361328H12.9785V4.39677H5.3614V12.2517Z" fill="white"/>
<path d="M15.3235 12.1377H22.3303V16.1675H15.3235V12.1377Z" fill="white"/>
<path d="M30.326 12.138H36.0162V16.1677H30.326V28.581H25.9185V0.361328H37.5815V4.39677H30.326V12.138Z" fill="white"/>
<path d="M39.9041 0.361328H44.3116V28.581H39.9041V0.361328Z" fill="white"/>
<path d="M47.7188 0.361328H52.1263V24.5285H59.3818V28.5582H47.7188V0.361328Z" fill="white"/>
<path d="M70.8415 20.3964L73.8534 0.361328H79.9843V28.581H75.8141V8.34695L72.7684 28.581H68.5813L65.3152 8.61409V28.581H61.467V0.361328H67.598L70.8415 20.3964Z" fill="white"/>
<path d="M95.7326 0.0429688C100.022 0.0429688 102.225 2.62338 102.225 7.13625V8.04564H98.0551V6.85206C98.0551 4.84003 97.2583 4.07272 95.8513 4.07272C94.4443 4.07272 93.6475 4.84003 93.6475 6.85206C93.6475 12.6551 102.265 13.7464 102.265 21.8059C102.265 26.3245 100.005 28.9049 95.6931 28.9049C91.3816 28.9049 89.1213 26.3245 89.1213 21.8059V20.0724H93.2916V22.0901C93.2916 24.1078 94.1731 24.8297 95.5518 24.8297C96.9306 24.8297 97.8121 24.1078 97.8121 22.0901C97.8121 16.287 89.1948 15.1958 89.1948 7.13625C89.24 2.62338 91.4438 0.0429688 95.7326 0.0429688Z" fill="white"/>
<path d="M103.711 0.361328H117.335V4.39677H112.73V28.581H108.317V4.39677H103.711V0.361328Z" fill="white"/>
<path d="M123.67 0.361328V22.13C123.67 24.1477 124.551 24.8695 125.93 24.8695C127.309 24.8695 128.19 24.1477 128.19 22.13V0.361328H132.434V21.8458C132.434 26.3643 130.174 28.9447 125.862 28.9447C121.551 28.9447 119.291 26.3643 119.291 21.8458V0.361328H123.67Z" fill="white"/>
<path d="M135.615 0.361328H142.605C147.013 0.361328 149.177 2.82238 149.177 7.33525V21.6071C149.177 26.1199 147.013 28.581 142.605 28.581H135.615V0.361328ZM140.023 4.39677V24.5285H142.503C143.91 24.5285 144.764 23.801 144.764 21.7833V7.13632C144.764 5.1186 143.922 4.39677 142.503 4.39677H140.023Z" fill="white"/>
<path d="M152.166 0.361328H156.574V28.581H152.166V0.361328Z" fill="white"/>
<path d="M159.619 7.13625C159.619 2.62338 161.981 0.0429688 166.31 0.0429688C170.638 0.0429688 173.006 2.62338 173.006 7.13625V21.8059C173.006 26.3245 170.644 28.9049 166.31 28.9049C161.976 28.9049 159.619 26.3245 159.619 21.8059V7.13625ZM164.027 22.0901C164.027 24.1078 164.908 24.8694 166.287 24.8694C167.666 24.8694 168.598 24.1078 168.598 22.0901V6.85206C168.598 4.84003 167.717 4.06704 166.338 4.06704C164.959 4.06704 164.078 4.83434 164.078 6.84638L164.027 22.0901Z" fill="white"/>
</svg>
