<svg width="135" height="36" viewBox="0 0 135 36" fill="none" xmlns="http://www.w3.org/2000/svg">
<path d="M2.16757 26.4576C3.5321 26.4576 4.06202 27.3193 4.06202 28.6118V29.5757C4.06202 30.9882 3.41729 31.6856 2.01743 31.6856H0.917847V35.3367H0.339355V26.4531L2.16757 26.4576ZM2.01743 31.1525C3.03752 31.1525 3.47911 30.7084 3.47911 29.6157V28.5763C3.47911 27.6124 3.15233 26.9906 2.15432 26.9906H0.9046V31.1525H2.01743Z" fill="#525D7D"/>
<path d="M7.82868 26.4576C9.17555 26.4576 9.71872 27.2038 9.71872 28.4608V29.2337C9.71872 30.2775 9.31686 30.8727 8.44692 31.077C9.35661 31.2769 9.71872 31.9254 9.71872 32.8893V34.2707C9.69052 34.6394 9.76547 35.0086 9.9351 35.3367H9.33011C9.17285 35.0049 9.10726 34.6367 9.14022 34.2707V32.876C9.14022 31.6989 8.49549 31.3657 7.48865 31.3657H6.58337V35.3367H6.00488V26.4531L7.82868 26.4576ZM7.5019 30.8327C8.53524 30.8327 9.14022 30.544 9.14022 29.3492V28.5141C9.14022 27.5591 8.7737 26.9906 7.81543 26.9906H6.58337V30.8327H7.5019Z" fill="#525D7D"/>
<path d="M11.8826 28.6249C11.8826 27.3324 12.4743 26.4041 13.8123 26.4041C15.1504 26.4041 15.7686 27.3546 15.7686 28.6249V33.1689C15.7686 34.4615 15.1769 35.4164 13.8123 35.4164C12.4478 35.4164 11.8826 34.4615 11.8826 33.1689V28.6249ZM12.4655 33.2044C12.4655 34.1727 12.8408 34.8834 13.8123 34.8834C14.7839 34.8834 15.1901 34.1727 15.1901 33.2044V28.5894C15.1901 27.6255 14.7971 26.9149 13.8123 26.9149C12.8276 26.9149 12.4655 27.6255 12.4655 28.5894V33.2044Z" fill="#525D7D"/>
<path d="M20.6218 30.7839V31.3169H18.3388V35.3367H17.7559V26.4531H21.112V26.9861H18.3388V30.7794L20.6218 30.7839Z" fill="#525D7D"/>
<path d="M26.0138 30.5662V31.0992H23.6071V34.8037H26.5084V35.3367H23.0242V26.4531H26.5084V26.9861H23.6071V30.5396L26.0138 30.5662Z" fill="#525D7D"/>
<path d="M32.2403 28.6025V28.7891H31.6838V28.5626C31.6838 27.6253 31.3306 26.9147 30.359 26.9147C29.3875 26.9147 29.0342 27.612 29.0342 28.5492C29.0342 30.7079 32.227 30.7435 32.227 33.1953C32.227 34.4746 31.6706 35.4162 30.3193 35.4162C28.968 35.4162 28.416 34.4746 28.416 33.1953V32.7512H28.9724V33.2442C28.9724 34.1947 29.339 34.8832 30.2972 34.8832C31.2555 34.8832 31.622 34.1947 31.622 33.2442C31.622 31.1121 28.4337 31.0766 28.4337 28.6025C28.4337 27.27 29.0122 26.4083 30.3105 26.3816C31.6088 26.355 32.2403 27.3189 32.2403 28.6025Z" fill="#525D7D"/>
<path d="M37.937 28.6025V28.7891H37.3806V28.5626C37.3806 27.6253 37.0273 26.9147 36.0558 26.9147C35.0843 26.9147 34.731 27.612 34.731 28.5492C34.731 30.7079 37.9238 30.7435 37.9238 33.1953C37.9238 34.4746 37.3674 35.4162 36.0205 35.4162C34.6736 35.4162 34.1128 34.4746 34.1128 33.1953V32.7512H34.6692V33.2442C34.6692 34.1947 35.0357 34.8832 35.994 34.8832C36.9523 34.8832 37.3188 34.1947 37.3188 33.2442C37.3188 31.1121 34.126 31.0766 34.126 28.6025C34.126 27.27 34.7045 26.4083 36.0072 26.3816C37.31 26.355 37.937 27.3189 37.937 28.6025Z" fill="#525D7D"/>
<path d="M40.5289 26.4573V35.3409H39.9504V26.4573H40.5289Z" fill="#525D7D"/>
<path d="M42.5471 28.6249C42.5471 27.3324 43.1389 26.4041 44.4769 26.4041C45.8149 26.4041 46.4332 27.3546 46.4332 28.6249V33.1689C46.4332 34.4615 45.8414 35.4164 44.4769 35.4164C43.1124 35.4164 42.5471 34.4615 42.5471 33.1689V28.6249ZM43.13 33.2044C43.13 34.1727 43.5054 34.8834 44.4769 34.8834C45.4484 34.8834 45.8547 34.1727 45.8547 33.2044V28.5894C45.8547 27.6255 45.4617 26.9149 44.4769 26.9149C43.4921 26.9149 43.13 27.6255 43.13 28.5894V33.2044Z" fill="#525D7D"/>
<path d="M48.9769 35.3367H48.447V26.4531H49.2066L51.8562 33.9509V26.4576H52.3861V35.3411H51.7413L48.9769 27.4214V35.3367Z" fill="#525D7D"/>
<path d="M55.2651 33.3734L54.8235 35.3367H54.2759L56.2057 26.4531H57.0491L59.0186 35.3367H58.4401L57.9985 33.3734H55.2651ZM55.3534 32.8626H57.9279L56.6031 27.115L55.3534 32.8626Z" fill="#525D7D"/>
<path d="M60.9663 35.3367V26.4531H61.5492V34.8037H64.3225V35.3367H60.9663Z" fill="#525D7D"/>
<path d="M71.0567 26.4576C72.4169 26.4576 72.9468 27.3193 72.9468 28.6118V29.5757C72.9468 30.9882 72.302 31.6856 70.9022 31.6856H69.807V35.3367H69.2241V26.4531L71.0567 26.4576ZM70.9022 31.1525C71.9267 31.1525 72.3683 30.7084 72.3683 29.6157V28.5763C72.3683 27.6124 72.0371 26.9906 71.0435 26.9906H69.7938V31.1525H70.9022Z" fill="#525D7D"/>
<path d="M75.4726 31.1659V35.3367H74.8896V26.4531H75.4726V30.6284H78.2193V26.4531H78.811V35.3367H78.2193V31.1659H75.4726Z" fill="#525D7D"/>
<path d="M80.8513 28.6249C80.8513 27.3324 81.4431 26.4041 82.7811 26.4041C84.1191 26.4041 84.733 27.3546 84.733 28.6249V33.1689C84.733 34.4615 84.1412 35.4164 82.7811 35.4164C81.421 35.4164 80.8513 34.4615 80.8513 33.1689V28.6249ZM81.4298 33.2044C81.4298 34.1727 81.8096 34.8834 82.7811 34.8834C83.7526 34.8834 84.1545 34.1727 84.1545 33.2044V28.5894C84.1545 27.6255 83.7659 26.9149 82.7811 26.9149C81.7963 26.9149 81.4298 27.6255 81.4298 28.5894V33.2044Z" fill="#525D7D"/>
<path d="M88.2793 35.3364V26.9903H86.4731V26.4573H90.6506V26.9903H88.8578V35.3364H88.2793Z" fill="#525D7D"/>
<path d="M92.408 28.6249C92.408 27.3324 92.9997 26.4041 94.3377 26.4041C95.6758 26.4041 96.2896 27.3546 96.2896 28.6249V33.1689C96.2896 34.4615 95.6979 35.4164 94.3377 35.4164C92.9776 35.4164 92.408 34.4615 92.408 33.1689V28.6249ZM92.9864 33.2044C92.9864 34.1727 93.3662 34.8834 94.3377 34.8834C95.3092 34.8834 95.7111 34.1727 95.7111 33.2044V28.5894C95.7111 27.6255 95.3181 26.9149 94.3377 26.9149C93.3574 26.9149 92.9864 27.6255 92.9864 28.5894V33.2044Z" fill="#525D7D"/>
<path d="M103.421 26.9902C102.397 26.9902 101.88 27.5454 101.88 28.6381V28.9934C101.88 29.793 102.322 30.4015 103.09 30.4415H104.455V29.4509H105.033V30.4415H105.501V30.9745H105.02V34.1726C104.976 34.575 105.057 34.9811 105.249 35.3363H104.644C104.504 35.0768 104.438 34.783 104.455 34.4879C104.332 34.7778 104.123 35.0225 103.856 35.1886C103.59 35.3548 103.279 35.4343 102.966 35.4163C101.805 35.4163 101.288 34.5768 101.288 33.3597V32.5202C101.252 32.1275 101.346 31.7337 101.556 31.4007C101.766 31.0678 102.081 30.8147 102.45 30.6813C101.655 30.4548 101.288 29.7308 101.288 28.8779V28.6647C101.288 27.2434 101.982 26.4438 103.408 26.4438H104.653V26.9769L103.421 26.9902ZM103.165 30.9878C102.335 31.0367 101.88 31.6319 101.88 32.5202V33.3331C101.88 34.2614 102.273 34.8966 103.178 34.8966C103.346 34.9093 103.514 34.8862 103.672 34.8287C103.83 34.7713 103.974 34.6808 104.094 34.5633C104.215 34.4457 104.309 34.3038 104.372 34.1469C104.434 33.99 104.462 33.8216 104.455 33.6529V30.9878H103.165Z" fill="#525D7D"/>
<path d="M110.902 26.4573L112.695 34.6657L114.461 26.4573H115.004L113.088 35.3409H112.231L110.288 26.4573H110.902Z" fill="#525D7D"/>
<path d="M117.539 26.4573V35.3409H116.957V26.4573H117.539Z" fill="#525D7D"/>
<path d="M121.536 26.4573C122.9 26.4573 123.492 27.3456 123.492 28.6782V33.12C123.492 34.4525 122.9 35.3409 121.536 35.3409H119.593V26.4573H121.536ZM121.536 34.8034C122.52 34.8034 122.927 34.1327 122.927 33.1555V28.6382C122.927 27.661 122.507 26.9903 121.536 26.9903H120.211V34.8034H121.536Z" fill="#525D7D"/>
<path d="M128.486 30.5662V31.0992H126.08V34.8037H128.981V35.3367H125.497V26.4531H128.981V26.9861H126.08V30.5396L128.486 30.5662Z" fill="#525D7D"/>
<path d="M130.938 28.6249C130.938 27.3324 131.529 26.4041 132.867 26.4041C134.205 26.4041 134.824 27.3546 134.824 28.6249V33.1689C134.824 34.4615 134.227 35.4164 132.867 35.4164C131.507 35.4164 130.938 34.4615 130.938 33.1689V28.6249ZM131.516 33.2044C131.516 34.1727 131.896 34.8834 132.867 34.8834C133.839 34.8834 134.241 34.1727 134.241 33.2044V28.5894C134.241 27.6255 133.852 26.9149 132.867 26.9149C131.883 26.9149 131.516 27.6255 131.516 28.5894V33.2044Z" fill="#525D7D"/>
<path d="M3.98694 10.3381H8.71645V13.4918H3.98694V19.9324H9.93968V23.0816H0.54248V1.0459H9.93968V4.19957H3.98694V10.3381Z" fill="#525D7D"/>
<path d="M11.7722 10.2488H17.248V13.398H11.7722V10.2488Z" fill="#525D7D"/>
<path d="M23.4967 10.2493H27.9436V13.3985H23.4967V23.0994H20.0522V1.0459H29.1668V4.19957H23.4967V10.2493Z" fill="#525D7D"/>
<path d="M30.9819 1.0459H34.4264V23.0994H30.9819V1.0459Z" fill="#525D7D"/>
<path d="M37.0891 1.0459H40.5336V19.9324H46.2037V23.0816H37.0891V1.0459Z" fill="#525D7D"/>
<path d="M55.1594 16.7032L57.5131 1.0459H62.3044V23.0994H59.0454V7.28661L56.6652 23.0994H53.393L50.8405 7.49538V23.0994H47.8333V1.0459H52.6246L55.1594 16.7032Z" fill="#525D7D"/>
<path d="M74.6115 0.797119C77.9632 0.797119 79.6855 2.81369 79.6855 6.34047V7.05116H76.4265V6.11838C76.4265 4.54599 75.8038 3.94635 74.7043 3.94635C73.6047 3.94635 72.982 4.54599 72.982 6.11838C72.982 10.6535 79.7164 11.5063 79.7164 17.8047C79.7164 21.336 77.95 23.3525 74.5806 23.3525C71.2112 23.3525 69.4448 21.336 69.4448 17.8047V16.45H72.7038V18.0268C72.7038 19.6037 73.3927 20.1678 74.4702 20.1678C75.5477 20.1678 76.2366 19.6037 76.2366 18.0268C76.2366 13.4918 69.5022 12.6389 69.5022 6.34047C69.5376 2.81369 71.2598 0.797119 74.6115 0.797119Z" fill="#525D7D"/>
<path d="M80.8469 1.0459H91.4938V4.19957H87.8948V23.0994H84.4459V4.19957H80.8469V1.0459Z" fill="#525D7D"/>
<path d="M96.4444 1.0459V18.058C96.4444 19.6348 97.1332 20.1989 98.2107 20.1989C99.2882 20.1989 99.9771 19.6348 99.9771 18.058V1.0459H103.294V17.8359C103.294 21.3671 101.527 23.3837 98.1578 23.3837C94.7884 23.3837 93.022 21.3671 93.022 17.8359V1.0459H96.4444Z" fill="#525D7D"/>
<path d="M105.78 1.0459H111.242C114.687 1.0459 116.378 2.96919 116.378 6.49597V17.6493C116.378 21.1761 114.687 23.0994 111.242 23.0994H105.78V1.0459ZM109.224 4.19957V19.9324H111.163C112.262 19.9324 112.929 19.3638 112.929 17.787V6.34051C112.929 4.76368 112.271 4.19957 111.163 4.19957H109.224Z" fill="#525D7D"/>
<path d="M118.714 1.0459H122.158V23.0994H118.714V1.0459Z" fill="#525D7D"/>
<path d="M124.539 6.34047C124.539 2.81369 126.384 0.797119 129.767 0.797119C133.15 0.797119 135 2.81369 135 6.34047V17.8047C135 21.336 133.154 23.3525 129.767 23.3525C126.38 23.3525 124.539 21.336 124.539 17.8047V6.34047ZM127.983 18.0268C127.983 19.6037 128.672 20.1989 129.749 20.1989C130.827 20.1989 131.556 19.6037 131.556 18.0268V6.11838C131.556 4.54599 130.867 3.94191 129.789 3.94191C128.712 3.94191 128.023 4.54155 128.023 6.11394L127.983 18.0268Z" fill="#525D7D"/>
</svg>
