<svg width="46" height="47" viewBox="0 0 46 47" fill="none" xmlns="http://www.w3.org/2000/svg">
<path d="M20.2717 7.65902C24.0037 11.3909 23.272 19.669 22.9867 23.8885C18.7364 24.143 10.4892 24.9054 6.75724 21.1735C3.02532 17.4416 3.02532 11.3909 6.75724 7.65902C10.4892 3.92709 16.5398 3.92709 20.2717 7.65902Z" fill="url(#paint0_linear)"/>
<path d="M19.9182 8.01257C21.652 9.7464 22.3914 12.5932 22.6373 15.6312C22.863 18.4198 22.6666 21.264 22.5223 23.3533C22.5208 23.3744 22.5194 23.3955 22.5179 23.4164C22.4098 23.4232 22.2997 23.4301 22.1877 23.4372C20.1126 23.5684 17.389 23.7406 14.7173 23.5275C11.6829 23.2854 8.84429 22.5534 7.1108 20.8199C3.57414 17.2833 3.57414 11.5492 7.1108 8.01257C10.6475 4.47591 16.3815 4.47591 19.9182 8.01257Z" stroke="white"/>
<path d="M25.7017 40.0551C21.9697 36.3232 22.7014 28.0451 22.9866 23.8256C27.237 23.5711 35.4842 22.8087 39.2161 26.5406C42.9481 30.2725 42.9481 36.3232 39.2161 40.0551C35.4842 43.787 29.4336 43.787 25.7017 40.0551Z" fill="url(#paint1_linear)"/>
<path d="M26.0552 39.7015C24.3214 37.9677 23.5819 35.1209 23.3361 32.0829C23.1104 29.2943 23.3068 26.4501 23.4511 24.3608C23.4526 24.3397 23.454 24.3187 23.4555 24.2977C23.5636 24.2909 23.6737 24.284 23.7857 24.2769C25.8608 24.1457 28.5844 23.9735 31.256 24.1866C34.2905 24.4287 37.1291 25.1607 38.8626 26.8942C42.3993 30.4308 42.3993 36.1649 38.8626 39.7015C35.3259 43.2382 29.5919 43.2382 26.0552 39.7015Z" stroke="white"/>
<path d="M39.2162 21.1736C35.4843 24.9055 27.2063 24.1739 22.9867 23.8886C22.7322 19.6382 21.9698 11.391 25.7017 7.6591C29.4337 3.92718 35.4843 3.92718 39.2162 7.6591C42.9482 11.391 42.9482 17.4417 39.2162 21.1736Z" fill="url(#paint2_linear)"/>
<path d="M38.8627 20.82C37.1288 22.5539 34.2821 23.2933 31.244 23.5392C28.4554 23.7649 25.6113 23.5684 23.5219 23.4241C23.5008 23.4227 23.4798 23.4212 23.4588 23.4198C23.4521 23.3117 23.4451 23.2015 23.438 23.0895C23.3068 21.0144 23.1346 18.2909 23.3477 15.6192C23.5898 12.5847 24.3218 9.74615 26.0553 8.01265C29.592 4.47599 35.326 4.47599 38.8627 8.01265C42.3993 11.5493 42.3993 17.2834 38.8627 20.82Z" stroke="white"/>
<path d="M6.75716 26.5405C10.4891 22.8086 18.7671 23.5402 22.9867 23.8255C23.2411 28.0759 24.0036 36.3231 20.2716 40.055C16.5397 43.7869 10.4891 43.7869 6.75716 40.055C3.02524 36.3231 3.02524 30.2724 6.75716 26.5405Z" fill="url(#paint3_linear)"/>
<path d="M7.11072 26.8941C8.84455 25.1602 11.6913 24.4208 14.7294 24.1749C17.518 23.9493 20.3621 24.1457 22.4515 24.29C22.4726 24.2914 22.4936 24.2929 22.5146 24.2943C22.5213 24.4025 22.5283 24.5126 22.5354 24.6246C22.6666 26.6997 22.8388 29.4233 22.6256 32.0949C22.3836 35.1294 21.6516 37.968 19.9181 39.7015C16.3814 43.2381 10.6474 43.2381 7.11071 39.7015C3.57405 36.1648 3.57406 30.4307 7.11072 26.8941Z" stroke="white"/>
<defs>
<linearGradient id="paint0_linear" x1="21.5248" y1="8.95056" x2="8.01229" y2="22.4631" gradientUnits="userSpaceOnUse">
<stop stop-color="#FFCC80"/>
<stop offset="1" stop-color="#FF8080"/>
</linearGradient>
<linearGradient id="paint1_linear" x1="24.4486" y1="38.7635" x2="37.9611" y2="25.251" gradientUnits="userSpaceOnUse">
<stop stop-color="#FFCC80"/>
<stop offset="1" stop-color="#FF8080"/>
</linearGradient>
<linearGradient id="paint2_linear" x1="37.9247" y1="22.4267" x2="24.4122" y2="8.91415" gradientUnits="userSpaceOnUse">
<stop stop-color="#FFCC80"/>
<stop offset="1" stop-color="#FF8080"/>
</linearGradient>
<linearGradient id="paint3_linear" x1="8.04871" y1="25.2875" x2="21.5612" y2="38.8" gradientUnits="userSpaceOnUse">
<stop stop-color="#FFCC80"/>
<stop offset="1" stop-color="#FF8080"/>
</linearGradient>
</defs>
</svg>
