<svg width="24" height="24" viewBox="0 0 24 24" fill="none" xmlns="http://www.w3.org/2000/svg">
<path d="M20.6109 22.5884L11.1714 17.5904C10.9254 17.4599 10.6254 17.4779 10.3929 17.6354L3.17488 22.6334C2.90488 22.8209 2.78788 23.1614 2.88688 23.4749C2.98288 23.7854 3.27388 23.9999 3.60088 23.9999H20.2584C20.6019 23.9999 20.9034 23.7659 20.9859 23.4299C21.0699 23.0954 20.9139 22.7489 20.6109 22.5884Z" fill="url(#paint0_linear)"/>
<path d="M23.7692 21.1636L21.5492 11.1691C21.4952 10.9246 21.3227 10.7251 21.0902 10.6336C20.8562 10.5421 20.5937 10.5736 20.3897 10.7146L13.1701 15.7126C12.9541 15.8626 12.8326 16.1131 12.8491 16.3726C12.8641 16.6351 13.0156 16.8691 13.2466 16.9906L22.6847 21.9886C22.7957 22.0471 22.9157 22.0771 23.0357 22.0771C23.1962 22.0771 23.3567 22.0261 23.4902 21.9226C23.7227 21.7456 23.8322 21.4501 23.7692 21.1636Z" fill="url(#paint1_linear)"/>
<path d="M18.5444 9.5265C18.4454 9.213 18.1559 9 17.8274 9H10.9814C9.73637 11.2545 7.89437 13.41 7.13687 14.253C6.71087 14.727 6.10037 15 5.46287 15C4.82537 15 4.21487 14.727 3.78887 14.253C3.49637 13.9275 3.04337 13.407 2.52437 12.762L0.70937 20.931C0.64337 21.2325 0.76787 21.543 1.02287 21.7155C1.14887 21.801 1.29587 21.843 1.44137 21.843C1.59137 21.843 1.73987 21.7995 1.86887 21.7095L18.2534 10.365C18.5249 10.1805 18.6404 9.84 18.5444 9.5265Z" fill="url(#paint2_linear)"/>
<path d="M5.46094 0C2.56594 0 0.210938 2.355 0.210938 5.25C0.210938 7.944 4.42294 12.7155 4.90294 13.251C5.04544 13.4085 5.24794 13.5 5.46094 13.5C5.67394 13.5 5.87644 13.4085 6.01894 13.251C6.49894 12.7155 10.7109 7.944 10.7109 5.25C10.7109 2.355 8.35594 0 5.46094 0ZM5.46094 7.5C4.21894 7.5 3.21094 6.492 3.21094 5.25C3.21094 4.008 4.21894 3 5.46094 3C6.70294 3 7.71094 4.008 7.71094 5.25C7.71094 6.492 6.70294 7.5 5.46094 7.5Z" fill="url(#paint3_linear)"/>
<defs>
<linearGradient id="paint0_linear" x1="20.9826" y1="20.7176" x2="2.82886" y2="20.7176" gradientUnits="userSpaceOnUse">
<stop stop-color="#FFCC80"/>
<stop offset="1" stop-color="#FF8080"/>
</linearGradient>
<linearGradient id="paint1_linear" x1="23.7712" y1="16.2691" x2="12.8337" y2="16.2691" gradientUnits="userSpaceOnUse">
<stop stop-color="#FFCC80"/>
<stop offset="1" stop-color="#FF8080"/>
</linearGradient>
<linearGradient id="paint2_linear" x1="18.5523" y1="15.3541" x2="0.669049" y2="15.3541" gradientUnits="userSpaceOnUse">
<stop stop-color="#FFCC80"/>
<stop offset="1" stop-color="#FF8080"/>
</linearGradient>
<linearGradient id="paint3_linear" x1="10.696" y1="6.67913" x2="0.197526" y2="6.67913" gradientUnits="userSpaceOnUse">
<stop stop-color="#FFCC80"/>
<stop offset="1" stop-color="#FF8080"/>
</linearGradient>
</defs>
</svg>
