<svg width="190" height="158" viewBox="0 0 190 158" fill="none" xmlns="http://www.w3.org/2000/svg">
<g clip-path="url(#clip0)">
<path d="M63.3331 81.3421C63.8141 77.6381 65.8011 74.9071 64.1411 71.1811C60.8441 63.7811 52.5101 66.2591 46.3301 67.3361C42.1451 68.0661 37.0071 67.7261 32.8511 68.8661C31.7301 68.1771 29.9921 68.4681 29.2521 69.6701C25.5791 75.3771 21.7021 85.7261 23.7971 92.6911C25.8131 99.3971 34.5741 97.5291 39.8871 97.4441C45.9691 97.3471 59.0011 99.4651 62.4251 93.0501C64.3741 89.4001 62.8301 85.2121 63.3331 81.3421Z" fill="#E0DFE6"/>
<path d="M181.724 52.1691C180.688 52.4131 179.921 52.7001 179.256 53.0251C178.405 52.3841 177.234 52.1021 176.23 52.3141C175.018 52.5701 173.849 52.6301 172.704 52.5521C172.264 52.2481 171.783 51.9991 171.246 51.8671C169.472 51.4321 168.161 50.7321 167.022 49.6591C172.137 49.3251 176.935 44.3521 173.464 38.2271C168.197 28.9321 163.681 19.3951 159.721 9.46807C158.523 6.46507 154.305 6.85707 154.045 10.2361C153.156 21.8071 154.952 33.4251 159.102 44.2811C159.274 44.7301 159.473 45.1381 159.684 45.5261C157.701 45.9851 156.063 47.5681 156.113 50.1681C156.307 60.2791 155.757 70.3821 154.42 80.4081C153.893 84.3591 153.122 88.2661 152.3 92.1621C152.246 87.9601 151.807 83.8621 150.231 80.5801C150.021 80.1431 149.332 80.0741 149.018 80.4241C145.785 84.0251 144.94 89.2761 143.502 93.8061C141.734 99.3731 139.534 104.978 138.267 110.685C137.01 116.345 136.743 122.316 138.199 127.681C136.823 127.595 135.47 127.546 134.182 127.625C129.266 127.929 124.364 128.437 119.445 128.733C119.299 125.85 119.198 122.744 118.016 120.236C114.802 113.422 106.521 115.474 100.593 116.351C95.4079 117.118 86.8119 117.382 85.5149 123.766C85.0889 125.861 85.5469 127.521 86.4369 129.059C78.3299 128.364 70.5169 126.741 62.4109 125.562C52.9279 124.182 43.3809 124.713 33.9139 125.96C27.0059 126.87 18.1159 127.702 11.8719 131.728C10.3399 130.977 8.87089 130.121 7.62289 128.906C7.58389 128.868 7.51489 128.906 7.53089 128.96C8.59189 132.503 7.27489 135.219 6.09289 138.344C4.64289 142.176 7.73889 146.04 11.1419 147.237C15.6599 148.826 20.7199 148.403 25.8149 147.467C25.4159 148.101 25.7829 149.169 26.5509 149.454C44.9919 156.298 66.7239 157.74 86.2159 157.72C106.841 157.699 127.243 155.448 147.54 151.835C155.978 150.333 164.086 148.783 170.319 142.383C176.952 135.573 179.405 125.613 180.377 116.473C181.337 107.451 181.078 98.3451 181.975 89.3151C183.001 78.9891 185.323 69.1281 188.982 59.4291C190.661 54.9841 185.736 51.2251 181.724 52.1691ZM31.5939 146.265C34.8299 145.552 38.0009 144.86 40.9729 144.582C45.2179 144.186 49.4879 144.059 53.7599 144.114C46.3139 144.604 38.8919 145.255 31.5939 146.265ZM153.911 121.751C153.432 120.276 153.085 118.778 152.835 117.254C153.545 117.515 154.294 117.652 155.045 117.635C154.745 119.074 154.372 120.472 153.911 121.751Z" fill="#E0DFE6"/>
<path d="M7.56291 69.9631C8.22591 66.8961 10.1279 65.1871 12.3789 64.5531C12.2719 61.8991 11.9509 59.2331 11.3889 56.6521C12.5939 55.1281 13.0189 53.2841 13.7969 50.9561C15.2829 46.5091 17.2429 42.3541 19.5199 38.2671C22.3439 33.1961 15.1919 29.3191 11.8989 33.8121C9.42891 37.1831 7.48291 40.6231 5.94891 44.1411C4.37191 42.5211 1.82891 43.4181 1.55791 45.7781C0.976906 50.8411 1.41591 55.9541 1.41491 61.0401C1.41491 61.3971 1.39591 61.7541 1.39091 62.1121C0.898906 66.7591 0.805906 71.5491 0.945906 76.5011C1.02991 79.4691 3.34191 81.2381 5.75091 81.4561C6.18991 77.6031 6.74091 73.7651 7.56291 69.9631Z" fill="#E0DFE6"/>
<path d="M136.992 41.3431C118.781 40.8701 100.664 41.1731 82.4788 42.2761C73.6198 42.8131 64.7048 43.3101 55.8888 44.3621C48.0728 45.2941 39.4808 45.8101 32.2798 49.1511C30.9208 49.7811 31.3398 51.9361 32.6878 52.2761C40.4738 54.2431 49.1888 53.3001 57.1538 53.1231C66.0198 52.9261 74.8758 52.5391 83.7458 52.4491C101.483 52.2671 119.262 52.5021 136.992 53.0381C144.517 53.2641 144.518 41.5381 136.992 41.3431Z" fill="#E0DFE6"/>
<path d="M114.335 149.963C111.435 149.963 108.406 149.912 105.237 149.811C92.1756 149.396 73.8196 148.353 59.0716 147.514C49.6196 146.977 41.4566 146.514 37.7436 146.395C26.5516 146.035 18.7236 147.028 18.6476 147.036C18.5456 147.05 18.4426 147.054 18.3406 147.052C11.8576 146.845 6.68357 140.565 3.37757 128.889C0.769575 119.679 -0.183425 108.828 0.028575 102.159C0.603575 84.086 6.38857 66.101 11.4926 50.235C15.7606 36.968 19.7916 24.438 20.1236 13.995C20.2046 11.463 20.1776 8.88102 20.0406 6.10002C20.0146 5.57502 20.2056 5.06302 20.5676 4.68302C20.9296 4.30502 21.4296 4.09102 21.9536 4.09102C29.1216 4.10702 36.5036 4.05902 43.9046 3.93902C44.9806 3.93902 45.8346 4.77502 45.8526 5.82302C45.8696 6.88202 45.0256 7.75302 43.9676 7.77002C37.2286 7.88302 30.4916 7.92602 23.9496 7.92902C24.0166 10.065 24.0176 12.106 23.9546 14.119C23.6046 25.101 19.4936 37.88 15.1416 51.41C10.1146 67.036 4.41657 84.748 3.85857 102.284C3.65557 108.656 4.56758 119.03 7.06358 127.845C8.65357 133.461 12.2236 142.882 18.3226 143.216C19.5586 143.066 27.1196 142.219 37.8636 142.564C41.6236 142.684 49.8096 143.149 59.2866 143.688C74.0136 144.526 92.3426 145.566 105.357 145.98C125.423 146.616 139.723 145.254 149.447 141.706C145.456 140.646 142.319 138.117 140.254 134.253C138.076 130.175 137.079 124.727 137.291 118.06C137.455 112.904 139.391 106.112 141.841 97.513C146.326 81.778 153.102 57.997 154.153 24.977C154.384 17.722 153.831 10.44 153.224 4.00302C136.424 5.51202 113.306 6.03902 86.6926 6.64502C76.5896 6.87402 66.1086 7.11302 55.5016 7.42002C54.3976 7.45902 53.5616 6.61802 53.5306 5.55902C53.4996 4.50202 54.3326 3.61902 55.3906 3.58902C66.0066 3.28102 76.4946 3.04302 86.6066 2.81302C114.167 2.18602 137.97 1.64302 154.765 0.0100195C155.814 -0.104981 156.755 0.676019 156.858 1.73102C157.54 8.73202 158.246 16.89 157.985 25.096C156.919 58.591 150.064 82.646 145.528 98.561C143.15 106.907 141.271 113.497 141.123 118.178C140.935 124.083 141.804 129.015 143.636 132.445C145.71 136.329 148.935 138.287 153.493 138.432C154.584 138.469 155.686 138.434 156.77 138.338C157.669 138.267 158.476 138.797 158.758 139.64C159.038 140.483 158.704 141.407 157.95 141.875C149.117 147.35 135.132 149.961 114.335 149.963Z" fill="#525D7D"/>
<path d="M155.581 142.303C155.05 142.303 154.523 142.084 154.144 141.656C153.443 140.863 153.519 139.65 154.313 138.951C162.125 132.053 163.939 119.972 166.235 104.676C168.345 90.623 170.953 73.248 179.372 55.198C174.622 53.272 169.904 51.134 165.324 49.058C162.7 47.869 160.076 46.68 157.442 45.526C156.473 45.102 156.031 43.973 156.455 43.003C156.879 42.033 158.007 41.593 158.979 42.017C161.628 43.176 164.267 44.372 166.906 45.569C172.055 47.903 177.38 50.317 182.681 52.391C183.179 52.587 183.572 52.981 183.768 53.479C183.963 53.977 183.94 54.534 183.704 55.015C174.834 73.203 172.278 90.226 170.024 105.246C167.613 121.313 165.707 134.004 156.848 141.825C156.484 142.146 156.032 142.303 155.581 142.303Z" fill="#525D7D"/>
<path d="M157.645 122.926C154.734 122.836 152.31 121.235 150.76 118.418C149.547 116.214 148.905 113.285 148.997 110.382C149.006 110.119 149.015 110.071 149.523 107.823C154.285 86.737 156.855 71.133 157.163 61.444C157.495 50.997 156.403 41.284 153.916 32.571C153.626 31.553 154.215 30.493 155.233 30.202C156.251 29.919 157.311 30.502 157.602 31.518C160.197 40.615 161.338 50.724 160.994 61.566C160.517 76.532 155.056 100.719 153.262 108.666C153.035 109.67 152.881 110.346 152.825 110.627C152.775 112.822 153.245 114.981 154.119 116.571C154.876 117.947 155.857 118.767 157.039 119.015C159.649 116.67 160.917 113.532 162.255 110.222C163.307 107.621 164.395 104.93 166.189 102.507C166.818 101.655 168.016 101.479 168.87 102.106C169.72 102.737 169.899 103.937 169.269 104.787C167.765 106.819 166.815 109.171 165.807 111.659C164.25 115.511 162.64 119.496 158.836 122.512C158.497 122.781 158.077 122.926 157.645 122.926Z" fill="#525D7D"/>
<path d="M9.42745 64.443C8.56645 64.443 7.78545 63.858 7.56845 62.985C5.48145 54.535 3.41445 47.849 1.06245 41.943C0.695448 41.024 1.09045 39.976 1.97345 39.528C6.59645 37.174 11.5514 34.973 17.1234 32.794C18.1134 32.407 19.2204 32.896 19.6064 33.881C19.9914 34.867 19.5044 35.978 18.5194 36.364C13.6844 38.255 9.32945 40.159 5.26145 42.167C7.41745 47.83 9.34845 54.211 11.2894 62.067C11.5424 63.094 10.9154 64.133 9.88845 64.387C9.73345 64.424 9.57945 64.443 9.42745 64.443Z" fill="#525D7D"/>
<path d="M33.7401 44.04C33.4901 44.04 33.2361 43.991 32.9901 43.886C32.0161 43.471 31.5631 42.345 31.9781 41.371C33.0281 38.903 34.0121 36.355 34.9621 33.891C36.2861 30.46 37.6551 26.911 39.2381 23.496C39.5071 22.916 40.0471 22.508 40.6781 22.409C41.3081 22.305 41.9481 22.531 42.3831 22.999C44.5831 25.377 46.6791 27.894 48.7071 30.327C50.1922 32.11 51.7091 33.932 53.2721 35.702C53.8291 31.318 54.6931 26.545 55.9651 20.78C56.1931 19.746 57.2161 19.101 58.2491 19.322C59.2831 19.55 59.9361 20.573 59.7081 21.607C58.0521 29.11 57.1041 34.868 56.6361 40.279C56.5711 41.026 56.0751 41.668 55.3671 41.919C54.6591 42.17 53.8701 41.986 53.3481 41.444C50.6671 38.668 48.1731 35.676 45.7621 32.782C44.3832 31.126 42.9721 29.432 41.5271 27.783C40.4691 30.26 39.4911 32.796 38.5361 35.271C37.5741 37.764 36.5791 40.342 35.5021 42.873C35.1931 43.602 34.4841 44.04 33.7401 44.04Z" fill="#525D7D"/>
<path d="M68.3028 42.299C67.3048 42.299 66.4708 41.53 66.3938 40.53C66.2348 38.475 65.9898 36.385 65.7528 34.361C65.3308 30.762 64.8938 27.038 64.9148 23.298C64.9198 22.287 65.7098 21.455 66.7198 21.395C67.8888 21.328 69.0528 21.268 70.2138 21.21C73.5938 21.037 77.0888 20.858 80.5748 20.455C81.6388 20.338 82.5778 21.088 82.6988 22.139C82.8198 23.19 82.0658 24.141 81.0148 24.261C77.4078 24.678 73.8498 24.86 70.4088 25.037C69.8638 25.063 69.3188 25.092 68.7728 25.12C68.8678 28.014 69.2048 30.896 69.5588 33.916C69.7298 35.383 69.9058 36.885 70.0528 38.397C72.1468 38.275 74.2458 38.026 76.2918 37.784L78.5218 37.526C79.5648 37.418 80.5208 38.167 80.6378 39.221C80.7538 40.272 79.9958 41.219 78.9438 41.336L76.7408 41.59C74.0218 41.912 71.2098 42.245 68.3028 42.299Z" fill="#525D7D"/>
<path d="M68.5562 33.864C67.5322 33.864 66.6832 33.056 66.6422 32.025C66.6002 30.967 67.4232 30.076 68.4812 30.034C69.0162 30.013 69.5582 29.999 70.1052 29.985C72.5392 29.921 75.0562 29.854 77.3302 29.123C78.3392 28.794 79.4182 29.353 79.7412 30.36C80.0662 31.367 79.5122 32.447 78.5052 32.77C75.7062 33.671 72.9102 33.745 70.2052 33.816C69.6762 33.828 69.1512 33.842 68.5562 33.864Z" fill="#525D7D"/>
<path d="M94.544 38.822C94.482 38.822 94.42 38.82 94.358 38.813C93.682 38.747 93.091 38.329 92.806 37.712C90.789 33.367 88.578 28.769 85.683 24.507C85.088 23.632 85.316 22.441 86.191 21.846C87.067 21.252 88.257 21.479 88.853 22.355C91.266 25.905 93.202 29.619 94.934 33.234C95.911 32.001 96.91 30.801 97.888 29.624C98.846 28.472 99.802 27.322 100.731 26.152C101.059 25.739 101.543 25.479 102.068 25.435C102.592 25.379 103.112 25.562 103.507 25.914C105.049 27.287 106.552 28.755 108.007 30.174C108.82 30.967 109.649 31.777 110.488 32.573C112.185 28.562 113.901 25.182 115.803 22.086C116.357 21.185 117.536 20.902 118.439 21.457C119.34 22.012 119.622 23.192 119.068 24.093C116.891 27.634 114.962 31.594 112.999 36.556C112.768 37.137 112.269 37.57 111.66 37.715C111.051 37.86 110.41 37.699 109.943 37.282C108.351 35.865 106.815 34.366 105.329 32.916C104.383 31.994 103.416 31.048 102.44 30.133C101.908 30.781 101.371 31.428 100.834 32.075C99.235 33.998 97.581 35.987 96.093 38.033C95.731 38.532 95.154 38.822 94.544 38.822Z" fill="#525D7D"/>
<path d="M131.621 39.1891C131.459 39.1891 131.296 39.1871 131.131 39.1821C128.996 39.1131 126.525 38.6151 124.348 37.8111C123.355 37.4451 122.847 36.3441 123.213 35.3511C123.58 34.3601 124.685 33.8531 125.674 34.2151C127.481 34.8811 129.515 35.2961 131.252 35.3511C135.784 35.5241 135.905 33.4131 135.959 32.6281C136.011 31.0571 134.685 30.5221 130.926 29.7351C127.936 29.1091 123.841 28.2521 123.964 24.3881C124.078 20.8081 127.355 18.4001 132.955 17.7791C133.983 17.6701 134.953 18.4201 135.07 19.4741C135.186 20.5251 134.428 21.4731 133.375 21.5891C132.455 21.6901 127.864 22.3101 127.794 24.5101C127.773 25.1601 130.142 25.6551 131.71 25.9841C134.992 26.6701 139.952 27.7091 139.796 32.6171L139.781 32.9071C139.5 36.8621 136.462 39.1891 131.621 39.1891Z" fill="#525D7D"/>
<path d="M31.8536 55.476C30.8256 55.476 29.9756 54.661 29.9386 53.628C29.9026 52.569 30.7306 51.683 31.7876 51.645C52.1326 50.938 65.9626 50.894 79.3366 50.852C96.3506 50.797 112.42 50.746 139.129 49.207C140.203 49.152 141.092 49.954 141.152 51.011C141.213 52.068 140.406 52.972 139.35 53.034C112.536 54.579 96.4156 54.63 79.3486 54.685C66.0046 54.727 52.2056 54.771 31.8536 55.476Z" fill="#525D7D"/>
<path d="M24.2003 98.9001C23.6863 98.9001 23.1923 98.6931 22.8313 98.3261C22.4553 97.9411 22.2573 97.4141 22.2883 96.8771C22.7493 88.7011 23.7123 78.0041 27.0993 67.7641C27.3523 66.9991 28.0583 66.4741 28.8643 66.4511C40.3783 66.1261 51.9983 66.1971 63.2363 66.2671L66.1743 66.2851C66.8043 66.2881 67.3923 66.6011 67.7473 67.1231C68.1013 67.6421 68.1773 68.3051 67.9503 68.8921C65.8463 74.3291 63.3963 85.9291 62.2513 95.8781C62.1453 96.7991 61.3953 97.5111 60.4713 97.5711C52.2693 98.0991 43.8653 98.3311 35.7393 98.5551C31.9153 98.6601 28.0903 98.7641 24.2003 98.9001ZM30.3283 70.2451C27.6733 78.8291 26.7153 87.7381 26.2403 94.9991C29.3703 94.8971 32.5013 94.8101 35.6313 94.7231C43.1983 94.5141 51.0053 94.2991 58.6353 93.8451C59.7073 85.3741 61.6333 75.9981 63.4803 70.1001L63.2123 70.0981C52.4493 70.0341 41.3333 69.9671 30.3283 70.2451Z" fill="#525D7D"/>
<path d="M84.508 73.461C83.507 73.461 82.665 72.685 82.598 71.673C82.528 70.616 83.327 69.705 84.383 69.634C91.076 69.191 97.78 69.182 104.265 69.173C110.687 69.164 117.328 69.157 123.897 68.721C124.967 68.631 125.865 69.451 125.936 70.506C126.006 71.563 125.207 72.474 124.151 72.545C117.458 72.988 110.753 72.997 104.269 73.006C97.847 73.015 91.206 73.022 84.638 73.458C84.593 73.461 84.55 73.461 84.508 73.461Z" fill="#525D7D"/>
<path d="M123 95.631C122.969 95.631 122.937 95.631 122.906 95.629C116.767 95.336 110.488 95.399 104.409 95.461C97.4597 95.533 90.2727 95.609 83.1867 95.148C82.1307 95.079 81.3297 94.169 81.3987 93.112C81.4667 92.055 82.3717 91.23 83.4347 91.324C90.3777 91.775 97.4887 91.7 104.37 91.628C110.501 91.564 116.839 91.499 123.09 91.801C124.148 91.852 124.963 92.75 124.912 93.807C124.862 94.834 124.016 95.631 123 95.631Z" fill="#525D7D"/>
<path d="M123.999 149.749C123.266 149.749 122.566 149.325 122.248 148.613C118.878 141.062 117.256 132.051 117.558 122.553C117.574 122.044 117.596 121.535 117.623 121.028C108.144 121.397 98.5454 121.523 89.0324 121.408C88.8194 129.144 90.2674 138.587 92.9184 146.722C93.2464 147.727 92.6964 148.809 91.6904 149.137C90.6834 149.464 89.6014 148.914 89.2754 147.909C86.4684 139.297 84.9484 129.262 85.2084 121.066C85.2274 120.495 85.2524 119.924 85.2854 119.355C85.3444 118.329 86.2194 117.586 87.2284 117.549C97.9884 117.711 108.879 117.568 119.597 117.111C120.148 117.074 120.679 117.3 121.06 117.696C121.442 118.094 121.634 118.634 121.589 119.182C121.493 120.341 121.426 121.506 121.389 122.672C121.105 131.596 122.613 140.024 125.748 147.05C126.179 148.017 125.745 149.149 124.779 149.58C124.526 149.695 124.261 149.749 123.999 149.749Z" fill="#525D7D"/>
<path d="M52.2838 114.093C44.8258 114.093 37.2328 114.052 29.7348 113.814C27.7688 113.75 25.8058 113.674 23.8418 113.582C22.7848 113.533 21.9678 112.635 22.0178 111.578C22.0678 110.521 22.9778 109.712 24.0218 109.754C25.9668 109.846 27.9118 109.918 29.8578 109.982C39.2958 110.282 48.9208 110.268 58.2308 110.254C61.1118 110.249 63.9908 110.243 66.8738 110.25C67.9318 110.252 68.7888 111.111 68.7878 112.169C68.7858 113.226 67.9278 114.081 66.8718 114.081C63.9938 114.079 61.1138 114.081 58.2368 114.086C56.2658 114.089 54.2788 114.093 52.2838 114.093Z" fill="#525D7D"/>
<path d="M55.7416 133.071C50.8086 133.071 45.6746 132.953 40.0586 132.774L28.9136 132.401C27.8556 132.368 27.0256 131.482 27.0596 130.424C27.0926 129.367 27.9396 128.54 29.0356 128.57L40.1806 128.943C50.4956 129.27 59.1576 129.397 67.9146 128.946C68.9756 128.913 69.8726 129.704 69.9266 130.761C69.9806 131.818 69.1686 132.719 68.1106 132.774C64.0176 132.984 59.9526 133.071 55.7416 133.071Z" fill="#525D7D"/>
</g>
<defs>
<clipPath id="clip0">
<rect width="189.322" height="157.721" fill="white"/>
</clipPath>
</defs>
</svg>
