<svg width="1920" height="439" viewBox="0 0 1920 439" fill="none" xmlns="http://www.w3.org/2000/svg">
<path d="M478 89.2181C186.5 -143.282 0.5 150.718 -44 162.718L-23 428.218H1954.5C2128.5 -4.78198 1598 41.718 1456.5 89.2181C1315 136.718 1285.5 186.218 1014.5 68.218C743.5 -49.782 769.5 321.718 478 89.2181Z" fill="#E0DFE6"/>
<path d="M483 99.2181C191.5 -133.282 5.5 160.718 -39 172.718L-18 438.218H1959.5C2133.5 5.21802 1603 51.718 1461.5 99.2181C1320 146.718 1290.5 196.218 1019.5 78.218C748.5 -39.782 774.5 331.718 483 99.2181Z" fill="white"/>
<rect x="2" y="253" width="1920" height="180" fill="white"/>
</svg>
