<svg width="24" height="24" viewBox="0 0 24 24" fill="none" xmlns="http://www.w3.org/2000/svg">
<path d="M12.0001 5.19507C9.97323 5.19507 8.32422 6.84408 8.32422 8.871C8.32422 10.8979 9.97323 12.5469 12.0001 12.5469C14.0271 12.5469 15.6761 10.8979 15.6761 8.871C15.6761 6.84408 14.0271 5.19507 12.0001 5.19507ZM12.0001 10.7242C10.9782 10.7242 10.147 9.89268 10.147 8.87105C10.147 7.84908 10.9782 7.01789 12.0001 7.01789C13.0218 7.01789 13.8533 7.84908 13.8533 8.87105C13.8533 9.89301 13.0218 10.7242 12.0001 10.7242Z" fill="url(#paint0_linear)"/>
<path d="M11.9973 10.7544C11.4939 10.7544 11.0859 11.1624 11.0859 11.6658V22.481C11.0859 22.9844 11.4939 23.3924 11.9973 23.3924C12.5007 23.3924 12.9087 22.9844 12.9087 22.481V11.6658C12.9087 11.1624 12.5007 10.7544 11.9973 10.7544Z" fill="url(#paint1_linear)"/>
<path d="M11.9973 0.607666C11.4939 0.607666 11.0859 1.01567 11.0859 1.51906V6.10639C11.0859 6.60978 11.4939 7.01778 11.9973 7.01778C12.5007 7.01778 12.9087 6.60978 12.9087 6.10639V1.51906C12.9087 1.01567 12.5007 0.607666 11.9973 0.607666Z" fill="url(#paint2_linear)"/>
<path d="M20.3239 11.4532C18.2973 11.4532 16.6479 13.1022 16.6479 15.1291C16.6479 17.156 18.2973 18.805 20.3239 18.805C22.3508 18.805 23.9999 17.156 23.9999 15.1291C23.9999 13.1022 22.3505 11.4532 20.3239 11.4532ZM20.3239 16.9826C19.3016 16.9826 18.4704 16.1511 18.4704 15.1291C18.4704 14.1071 19.3019 13.2759 20.3239 13.2759C21.3459 13.2759 22.1771 14.1075 22.1771 15.1291C22.1771 16.1514 21.3455 16.9826 20.3239 16.9826Z" fill="url(#paint3_linear)"/>
<path d="M20.3255 16.9822C19.8221 16.9822 19.4141 17.3902 19.4141 17.8936V22.4809C19.4141 22.9843 19.8221 23.3923 20.3255 23.3923C20.8291 23.3923 21.2368 22.9843 21.2368 22.4809V17.8936C21.2368 17.3902 20.8288 16.9822 20.3255 16.9822Z" fill="url(#paint4_linear)"/>
<path d="M20.3255 0.607666C19.8221 0.607666 19.4141 1.01567 19.4141 1.51906V12.3342C19.4141 12.8376 19.8221 13.2456 20.3255 13.2456C20.8291 13.2456 21.2368 12.8376 21.2368 12.3342V1.51906C21.2368 1.01567 20.8288 0.607666 20.3255 0.607666Z" fill="url(#paint5_linear)"/>
<path d="M3.67594 11.4532C1.64902 11.4532 0 13.1022 0 15.1291C0 17.156 1.64902 18.805 3.67594 18.805C5.70286 18.805 7.35187 17.156 7.35187 15.1291C7.35192 13.1022 5.70291 11.4532 3.67594 11.4532ZM3.67594 16.9826C2.65397 16.9826 1.82278 16.1511 1.82278 15.1291C1.82278 14.1071 2.65397 13.2759 3.67594 13.2759C4.69791 13.2759 5.52909 14.1075 5.52909 15.1291C5.52909 16.1514 4.69791 16.9826 3.67594 16.9826Z" fill="url(#paint6_linear)"/>
<path d="M3.67653 16.9822C3.17314 16.9822 2.76514 17.3902 2.76514 17.8936V22.481C2.76514 22.9843 3.17314 23.3923 3.67653 23.3923C4.17992 23.3923 4.58791 22.9843 4.58791 22.481V17.8936C4.58791 17.3902 4.17992 16.9822 3.67653 16.9822Z" fill="url(#paint7_linear)"/>
<path d="M3.67653 0.607681C3.17314 0.607681 2.76514 1.01568 2.76514 1.51907V12.3343C2.76514 12.8376 3.17314 13.2456 3.67653 13.2456C4.17992 13.2456 4.58791 12.8376 4.58791 12.3343V1.51907C4.58791 1.01568 4.17992 0.607681 3.67653 0.607681Z" fill="url(#paint8_linear)"/>
<defs>
<linearGradient id="paint0_linear" x1="15.6656" y1="8.8324" x2="8.31483" y2="8.8324" gradientUnits="userSpaceOnUse">
<stop stop-color="#FFCC80"/>
<stop offset="1" stop-color="#FF8080"/>
</linearGradient>
<linearGradient id="paint1_linear" x1="12.9061" y1="17.007" x2="11.0836" y2="17.007" gradientUnits="userSpaceOnUse">
<stop stop-color="#FFCC80"/>
<stop offset="1" stop-color="#FF8080"/>
</linearGradient>
<linearGradient id="paint2_linear" x1="12.9061" y1="3.77907" x2="11.0836" y2="3.77907" gradientUnits="userSpaceOnUse">
<stop stop-color="#FFCC80"/>
<stop offset="1" stop-color="#FF8080"/>
</linearGradient>
<linearGradient id="paint3_linear" x1="23.9894" y1="15.0905" x2="16.6386" y2="15.0905" gradientUnits="userSpaceOnUse">
<stop stop-color="#FFCC80"/>
<stop offset="1" stop-color="#FF8080"/>
</linearGradient>
<linearGradient id="paint4_linear" x1="21.2343" y1="20.1536" x2="19.4117" y2="20.1536" gradientUnits="userSpaceOnUse">
<stop stop-color="#FFCC80"/>
<stop offset="1" stop-color="#FF8080"/>
</linearGradient>
<linearGradient id="paint5_linear" x1="21.2343" y1="6.86031" x2="19.4117" y2="6.86031" gradientUnits="userSpaceOnUse">
<stop stop-color="#FFCC80"/>
<stop offset="1" stop-color="#FF8080"/>
</linearGradient>
<linearGradient id="paint6_linear" x1="7.34141" y1="15.0905" x2="-0.0093907" y2="15.0905" gradientUnits="userSpaceOnUse">
<stop stop-color="#FFCC80"/>
<stop offset="1" stop-color="#FF8080"/>
</linearGradient>
<linearGradient id="paint7_linear" x1="4.58532" y1="20.1536" x2="2.76281" y2="20.1536" gradientUnits="userSpaceOnUse">
<stop stop-color="#FFCC80"/>
<stop offset="1" stop-color="#FF8080"/>
</linearGradient>
<linearGradient id="paint8_linear" x1="4.58532" y1="6.86032" x2="2.76281" y2="6.86032" gradientUnits="userSpaceOnUse">
<stop stop-color="#FFCC80"/>
<stop offset="1" stop-color="#FF8080"/>
</linearGradient>
</defs>
</svg>
