<svg width="35" height="21" viewBox="0 0 35 21" fill="none" xmlns="http://www.w3.org/2000/svg">
<path d="M32.1886 1.45003L27.2828 1.4786C27.2668 1.47712 27.2468 1.47556 27.2234 1.47429C27.1694 1.47137 27.0949 1.4699 27.0085 1.47537C26.8448 1.48575 26.5948 1.52354 26.3612 1.66232L26.3612 1.6623L26.3578 1.66433C26.1323 1.80072 25.974 2.00481 25.8834 2.1393C25.8345 2.21188 25.7966 2.27759 25.7705 2.32577C25.7573 2.35006 25.7469 2.37041 25.7394 2.38559L25.7302 2.40449L25.7271 2.41084L25.726 2.4132L25.7256 2.41417L25.7254 2.4146L25.7253 2.4148C25.7253 2.4149 25.7252 2.41499 26.1793 2.62436L25.7252 2.41499L25.7176 2.43149L25.7112 2.44845L32.1886 1.45003ZM32.1886 1.45003C32.2016 1.44872 32.2183 1.44712 32.2385 1.4454C32.2858 1.44134 32.3522 1.43653 32.4321 1.43312C32.5903 1.42637 32.8092 1.42476 33.0415 1.44764C33.2687 1.47004 33.5379 1.51849 33.7814 1.62767C34.026 1.73739 34.297 1.93384 34.4198 2.2757C34.4198 2.2758 34.4198 2.27591 34.4199 2.27601L33.9493 2.44491L32.1886 1.45003ZM20.8906 10.2108C21.2516 10.4439 22.1365 10.2459 24.3456 6.4939L25.7112 2.4485L25.7112 2.44859L25.7109 2.44943L25.7094 2.45337L25.703 2.47001L25.6773 2.53686C25.6545 2.59575 25.6204 2.68247 25.5762 2.79235C25.4878 3.0122 25.3589 3.32426 25.1976 3.69122C24.8741 4.42731 24.4247 5.37485 23.9148 6.24004L23.9147 6.24022C22.816 8.10619 22.0739 9.03912 21.5901 9.47548C21.3485 9.69347 21.2046 9.75666 21.1445 9.77255C21.142 9.77319 21.1398 9.77374 21.1379 9.77421M20.8906 10.2108L21.162 9.79085C21.1539 9.7856 21.1458 9.78006 21.1379 9.77421M20.8906 10.2108C20.1872 9.75627 20.2209 8.53134 20.2503 7.46181C20.256 7.25488 20.2615 7.05377 20.2615 6.86518C20.2615 6.02934 20.2906 5.30553 20.3157 4.68164C20.3997 2.59119 20.4387 1.62259 19.1869 1.32077M20.8906 10.2108L21.1619 9.79076C21.1416 9.77765 21.1251 9.77775 21.1251 9.77715C21.1251 9.77685 21.1289 9.77639 21.1379 9.77421M21.1379 9.77421C20.9454 9.63248 20.8086 9.31395 20.7595 8.72897C20.7264 8.33453 20.7378 7.92851 20.7494 7.51435C20.7554 7.29998 20.7615 7.08343 20.7615 6.86518C20.7615 6.03977 20.7902 5.32528 20.8153 4.70086C20.8175 4.64647 20.8197 4.59276 20.8218 4.53972C20.8477 3.88712 20.8676 3.3144 20.8323 2.83927C20.7972 2.36632 20.7041 1.91903 20.4508 1.55529C20.1849 1.17357 19.7925 0.952456 19.3041 0.834696L19.3038 0.834623C18.7226 0.694868 18.2887 0.604561 16.8757 0.589777C15.9913 0.580499 15.1536 0.581609 14.4267 0.639272C13.7091 0.696195 13.0449 0.811402 12.5338 1.06137L12.7521 1.50771L12.5338 1.06137C12.1758 1.23644 11.8659 1.51235 11.6759 1.76334C11.5886 1.87866 11.4838 2.04392 11.4502 2.22818C11.433 2.32293 11.4226 2.49104 11.5224 2.65743C11.6339 2.84316 11.814 2.91598 11.9537 2.93442L19.1869 1.32077M19.1869 1.32077C18.6465 1.19082 18.2504 1.10419 16.8705 1.08975C15.1008 1.07119 13.6012 1.09594 12.7535 1.51053L19.1869 1.32077ZM13.0812 3.47181L13.0807 3.47111C12.9579 3.30393 12.7653 3.17707 12.5391 3.08553C12.3155 2.99506 12.0927 2.95279 11.9538 2.93444L13.0812 3.47181ZM13.0812 3.47181C13.2522 3.70374 13.3655 4.14819 13.424 4.61898C13.4513 4.83922 13.4641 5.04074 13.4699 5.18736C13.4728 5.26038 13.4739 5.31904 13.4744 5.3587C13.4746 5.37852 13.4746 5.39354 13.4746 5.40319L13.4746 5.41354L13.4746 5.41535L13.4746 5.4155M13.0812 3.47181L13.4746 5.4155M13.4746 5.4155L13.4746 5.41554L13.4746 5.41561L13.4746 5.41572L13.4743 5.43543L13.4757 5.45539L13.4757 5.45542L13.4757 5.45546L13.4757 5.45578L13.4759 5.45763L13.4764 5.46586L13.4785 5.49975C13.4803 5.52985 13.4829 5.57461 13.4859 5.63208C13.4918 5.74706 13.4993 5.91265 13.5053 6.11329C13.5173 6.51552 13.5232 7.05425 13.4995 7.60643C13.4756 8.16309 13.4225 8.71265 13.3229 9.14478C13.273 9.36121 13.2156 9.52911 13.1555 9.6474C13.0976 9.76139 13.0563 9.79163 13.0525 9.79441C13.0522 9.79462 13.0521 9.79467 13.0523 9.79459C13.008 9.81866 12.97 9.82842 12.8908 9.80155C12.7854 9.76575 12.6111 9.66196 12.3557 9.40352C11.845 8.88664 11.1499 7.89828 10.1665 6.19817L10.1665 6.19809C9.67359 5.34635 9.23828 4.44483 8.92509 3.75297C8.76885 3.40782 8.64379 3.11658 8.55797 2.91209C8.51507 2.80987 8.48202 2.72943 8.45982 2.67486L8.4348 2.61296L8.42864 2.59755L8.42719 2.5939L8.42687 2.59311L8.42684 2.59302L8.42686 2.59301L8.42486 2.5881L7.96192 2.777C8.42486 2.5881 8.42482 2.588 8.42477 2.5879L8.42469 2.58768L8.4245 2.58724L8.42409 2.58624L8.4231 2.58383L8.4204 2.57743L8.41222 2.55859C8.40553 2.54349 8.3963 2.52334 8.38458 2.49924C8.36129 2.45136 8.32731 2.38617 8.2828 2.3132C8.19845 2.17491 8.05577 1.97434 7.84892 1.82287M13.4746 5.4155L33.7059 17.8798M7.84892 1.82287C7.84905 1.82296 7.84917 1.82306 7.8493 1.82315L7.55351 2.22627L7.84892 1.82287ZM7.84892 1.82287C7.6276 1.66057 7.37875 1.56378 7.20333 1.5084C7.11226 1.47965 7.03304 1.45962 6.97554 1.44657C6.94666 1.44002 6.92287 1.43514 6.90539 1.43175L6.8839 1.42772L6.8769 1.42648L6.87438 1.42605L6.87337 1.42588L6.87293 1.42581L6.87272 1.42577C6.87262 1.42576 6.87253 1.42574 6.79033 1.91894M6.79033 1.91894L6.87253 1.42574L6.83019 1.41868L6.78727 1.41895L2.07204 1.44782L2.07204 1.44769L2.06053 1.44803L2.0751 1.94781M6.79033 1.91894L2.0751 1.94781M6.79033 1.91894L2.0751 1.94781M2.0751 1.94781C2.06053 1.44803 2.06043 1.44803 2.06032 1.44803L2.06008 1.44804L2.05957 1.44805L2.05834 1.44809L2.0551 1.4482L2.04556 1.44858L2.01492 1.45016C1.98968 1.45164 1.95487 1.45409 1.91287 1.45811C1.82968 1.46607 1.71423 1.48055 1.58699 1.50703C1.36857 1.55249 0.97396 1.65961 0.725928 1.95292L0.725927 1.95292L0.725263 1.95371C0.461753 2.26663 0.489667 2.67237 0.516501 2.86677C0.532689 2.98404 0.557996 3.08696 0.578684 3.15961C0.589188 3.1965 0.598909 3.22701 0.606387 3.24932C0.610137 3.26051 0.613353 3.26973 0.615861 3.27677L0.619081 3.28568L0.62026 3.28888L0.620735 3.29015L0.620943 3.29071L0.621039 3.29097C0.621085 3.29109 0.621131 3.29121 1.08915 3.11528M1.08915 3.11528L0.621131 3.29121L0.625039 3.30161L0.629406 3.31182L1.08915 3.11528ZM1.08915 3.11528C0.629406 3.31182 0.629442 3.31191 0.629492 3.31202L0.629662 3.31242L0.630256 3.31381L0.632451 3.31892L0.640841 3.3384L0.673361 3.41328C0.701939 3.47878 0.744188 3.57492 0.799324 3.69854C0.90959 3.94576 1.07144 4.303 1.27862 4.74496C1.69286 5.62863 2.28891 6.85235 3.01666 8.21348C4.46623 10.9246 6.46026 14.2231 8.5995 16.4521L8.59968 16.4523C10.5893 18.5232 12.7196 19.496 14.3582 19.9491C15.1766 20.1754 15.872 20.2721 16.3667 20.3121C16.6142 20.3321 16.8118 20.3379 16.9499 20.3386C17.019 20.3389 17.0732 20.338 17.1115 20.3369C17.1306 20.3364 17.1457 20.3358 17.1567 20.3353L17.1593 20.3351H19.1188H19.1464L19.1738 20.3321L19.1188 19.8351C19.1738 20.3321 19.174 20.3321 19.1741 20.3321L19.1743 20.3321L19.1749 20.332L19.1762 20.3318L19.1794 20.3315L19.1885 20.3303L19.2166 20.3265C19.2396 20.3232 19.2708 20.3183 19.3084 20.3112C19.3831 20.2973 19.4862 20.2746 19.6018 20.2391C19.8179 20.1726 20.1438 20.0416 20.385 19.7809M20.385 19.7809C20.3847 19.7813 20.3843 19.7816 20.384 19.782L20.0181 19.4412L20.3853 19.7806C20.3852 19.7807 20.3851 19.7808 20.385 19.7809ZM20.385 19.7809C20.6228 19.525 20.7123 19.1942 20.7504 18.9844C20.771 18.8707 20.7804 18.7701 20.7847 18.6974C20.7869 18.6608 20.7878 18.6304 20.7882 18.608L20.7884 18.5805L20.7883 18.5714L20.7883 18.5682L20.7883 18.5679L20.7883 18.5678L20.7883 18.5677L20.7883 18.5674L20.7883 18.5668L20.7883 18.5663L20.7883 18.566L20.7882 18.5636L20.7882 18.5454C20.7882 18.5286 20.7884 18.5029 20.789 18.4695C20.7902 18.4025 20.7932 18.3048 20.8005 18.1858C20.8151 17.9462 20.8465 17.6277 20.9125 17.3022C20.9792 16.9724 21.0765 16.6611 21.2104 16.4213C21.3444 16.1814 21.4875 16.0603 21.6296 16.0152C21.7069 15.9908 21.8609 15.9938 22.1603 16.2036C22.4514 16.4076 22.7781 16.7367 23.1499 17.1497C23.2933 17.309 23.4487 17.487 23.6092 17.6709C23.8394 17.9346 24.08 18.2102 24.3107 18.4598C24.7141 18.8964 25.1505 19.3255 25.6094 19.6408L25.8926 19.2287L25.6094 19.6408C26.2976 20.1136 26.9174 20.3072 27.3804 20.3781C27.6108 20.4134 27.8001 20.418 27.9373 20.4126C28.0058 20.4099 28.0614 20.4048 28.1027 20.3997C28.1117 20.3986 28.12 20.3975 28.1276 20.3965L32.5001 20.3351L32.512 20.3349L32.5238 20.3342L32.493 19.8351C32.5238 20.3342 32.5241 20.3342 32.5243 20.3342L32.5247 20.3341L32.5259 20.3341L32.5287 20.3339L32.537 20.3333L32.5632 20.3311C32.5847 20.3292 32.6143 20.3262 32.6506 20.3218C32.7228 20.313 32.8228 20.2982 32.9387 20.274C33.164 20.2268 33.4784 20.1379 33.7654 19.9668C34.0551 19.7942 34.3607 19.5095 34.4646 19.0635C34.5673 18.6223 34.4452 18.1383 34.1352 17.6234M34.1352 17.6234C34.1348 17.6228 34.1344 17.6222 34.1341 17.6216L33.7059 17.8798M34.1352 17.6234C34.1357 17.6242 34.1334 17.6203 34.1225 17.6003L34.1181 17.5923C34.1094 17.5764 34.0982 17.5557 34.085 17.532C34.0535 17.4752 34.0107 17.4003 33.9535 17.3073C33.8391 17.1214 33.6699 16.8677 33.4205 16.5429C32.9223 15.894 32.1053 14.9628 30.7685 13.7222L30.4283 14.0886M34.1352 17.6234L33.7059 17.8798M33.7059 17.8798C33.6995 17.8691 33.6908 17.8531 33.6791 17.8316C33.5277 17.5538 32.8792 16.3633 30.4283 14.0886M30.4283 14.0886L30.7685 13.7221L31.3648 7.50254C29.4393 10.0686 28.5033 11.0112 28.591 11.8462C28.6549 12.455 29.2629 13.0067 30.4283 14.0886Z" stroke="white"/>
</svg>
