<svg width="33" height="26" viewBox="0 0 33 26" fill="none" xmlns="http://www.w3.org/2000/svg">
<path d="M32.6694 6.00305C32.6694 5.89284 32.3389 3.46884 31.2922 2.31192C30.025 0.934644 28.6478 0.769369 27.9316 0.714234H27.7113C23.2488 0.383684 16.5827 0.328613 16.4725 0.328613C16.4175 0.328613 9.69624 0.383684 5.28888 0.824439H5.1236C4.35223 0.87951 2.97496 1.04479 1.76296 2.42206C0.661101 3.57899 0.330551 6.05812 0.330551 6.16832C0.330551 6.16832 0 8.978 0 11.7877V14.377C0 17.1316 0.330551 19.9413 0.330551 19.9964C0.330551 20.1066 0.661101 22.5306 1.70782 23.6875C2.86475 25.0097 4.24202 25.175 5.12354 25.2852C5.28881 25.2852 5.39902 25.2852 5.56429 25.3403C8.09849 25.5606 16.1419 25.6708 16.4725 25.6708C16.5275 25.6708 23.2488 25.6708 27.7112 25.175H27.8765C28.6478 25.1199 30.025 24.9546 31.237 23.5773C32.3389 22.4204 32.6694 19.9412 32.6694 19.831C32.6694 19.831 33 17.0214 33 14.2117V11.6224C33 8.8678 32.6694 6.05812 32.6694 6.00305ZM31.8981 14.3219C31.8981 17.0765 31.5676 19.831 31.5676 19.831C31.4574 20.4371 31.1268 22.2 30.4107 22.9713C29.4741 24.0731 28.3723 24.1833 27.7663 24.2384H27.601C23.1936 24.569 16.5275 24.569 16.4725 24.569C16.4174 24.569 8.15363 24.4587 5.72957 24.1833C5.56429 24.1833 5.39902 24.1283 5.23374 24.1283C4.46243 24.0732 3.36064 23.9079 2.47913 22.9163C1.81803 22.2001 1.43241 20.4371 1.37727 19.8311C1.37727 19.776 1.04672 17.0214 1.04672 14.3219V11.7326C1.04672 8.978 1.37727 6.22346 1.37727 6.22346C1.43234 5.61742 1.81803 3.85453 2.47913 3.08322C3.47078 1.98137 4.5175 1.87116 5.17861 1.81609H5.34388C9.75125 1.48554 16.4173 1.43047 16.4724 1.43047C16.5275 1.43047 23.1936 1.48554 27.6009 1.81609H27.8213C28.4273 1.87116 29.5291 1.98137 30.4657 3.08322C31.1268 3.85453 31.4573 5.61742 31.5675 6.22346C31.6226 6.33366 31.8981 9.08821 31.8981 11.7326V14.3219H31.8981Z" fill="white"/>
<path d="M23.3589 13.0548L12.8914 6.93959C12.7262 6.82938 12.5058 6.82938 12.3405 6.93959C12.1753 7.04979 12.0651 7.21507 12.0651 7.43541V19.3903C12.0651 19.6107 12.1753 19.7759 12.3405 19.8861C12.4507 19.9412 12.5058 19.9412 12.616 19.9412C12.7262 19.9412 12.7813 19.9412 12.8915 19.8861L23.3589 14.0464C23.5242 13.9362 23.6344 13.7709 23.6344 13.5506C23.6344 13.3303 23.5241 13.1649 23.3589 13.0548ZM13.1669 18.4537V8.37193L21.9816 13.5505L13.1669 18.4537Z" fill="white"/>
</svg>
