<svg width="33" height="34" viewBox="0 0 33 34" fill="none" xmlns="http://www.w3.org/2000/svg">
<path d="M30.25 0.5H2.75002C1.20998 0.5 0 1.70998 0 3.25002V30.75C0 32.29 1.20998 33.5 2.75002 33.5H15.4H22H30.25C31.79 33.5 33 32.29 33 30.75V3.25002C33 1.70998 31.79 0.5 30.25 0.5ZM16.5 32.4V21.4H12.1V17H16.5V13.15C16.5 10.015 18.92 7.37502 22 7.1H26.95V11.5H22.55C21.6149 11.5 20.9 12.215 20.9 13.15V17H26.4V21.4H20.9V32.4H16.5V32.4ZM31.9 30.75C31.9 31.685 31.185 32.4 30.25 32.4H22V22.5H27.5V15.9H22V13.15C22 12.82 22.22 12.6 22.55 12.6H28.05V5.99998H21.945C18.26 6.32998 15.4 9.46498 15.4 13.15V15.9H11V22.5H15.4V32.4H2.75002C1.815 32.4 1.10002 31.685 1.10002 30.75V3.25002C1.10002 2.315 1.815 1.60002 2.75002 1.60002H30.25C31.1851 1.60002 31.9 2.315 31.9 3.25002V30.75H31.9Z" fill="white"/>
</svg>
