<svg width="33" height="34" viewBox="0 0 33 34" fill="none" xmlns="http://www.w3.org/2000/svg">
<path d="M23.595 0.5H9.405C4.23502 0.5 0 4.73502 0 9.905V24.095C0 29.265 4.23502 33.5 9.405 33.5H23.595C28.765 33.5 33 29.265 33 24.095V9.905C33 4.73502 28.765 0.5 23.595 0.5ZM31.9 24.095C31.9 28.66 28.16 32.4 23.595 32.4H9.405C4.83998 32.4 1.10002 28.66 1.10002 24.095V9.905C1.10002 5.33998 4.84004 1.60002 9.405 1.60002H23.595C28.16 1.60002 31.9 5.34004 31.9 9.905V24.095Z" fill="white"/>
<path d="M16.5 8.2002C11.6601 8.2002 7.70007 12.1602 7.70007 17.0002C7.70007 21.8402 11.6601 25.8002 16.5 25.8002C21.34 25.8002 25.3 21.8402 25.3 17.0002C25.3 12.1602 21.34 8.2002 16.5 8.2002ZM16.5 24.7002C12.265 24.7002 8.80003 21.2352 8.80003 17.0002C8.80003 12.7652 12.265 9.30015 16.5 9.30015C20.7351 9.30015 24.2001 12.7652 24.2001 17.0002C24.2001 21.2352 20.7351 24.7002 16.5 24.7002Z" fill="white"/>
<path d="M25.3 6.5498C24.365 6.5498 23.65 7.26478 23.65 8.1998C23.65 9.13482 24.365 9.8498 25.3 9.8498C26.235 9.8498 26.95 9.13482 26.95 8.1998C26.95 7.26478 26.235 6.5498 25.3 6.5498Z" fill="white"/>
</svg>
