<svg width="120" height="113" viewBox="0 0 120 113" fill="none" xmlns="http://www.w3.org/2000/svg">
<path d="M31.7755 14.2225L38.433 1.20996L62.6425 14.2225H98.9566L97.7461 32.077L112.877 39.945L96.233 67.4833L96.5357 97.7451L80.7995 96.8372L75.0498 106.824L52.9587 95.3241L6.05294 92.6005L7.86865 74.4435L1.51367 69.9042L9.38174 58.4047L12.1053 14.2225H31.7755Z" fill="white"/>
<path d="M105.463 81.1107C105.119 73.9568 104.86 66.7993 104.684 59.6394C104.509 52.477 104.187 45.2971 103.599 38.1565C103.031 31.2508 103.545 23.186 101.424 16.5678C101.299 16.175 100.788 16.2016 100.652 16.5678C98.3801 22.6704 98.6138 30.1862 98.0618 36.6223C97.7955 39.7277 97.5982 42.8471 97.4596 45.9689C95.1651 49.095 94.7748 53.5907 94.5266 57.328C94.1816 62.5257 94.3886 67.7423 94.6985 72.9358C95.0169 78.2722 95.4193 83.6025 95.725 88.9394C95.8267 90.7146 95.8158 92.4964 95.9713 94.2238C93.6266 94.1796 91.2057 94.4634 88.976 94.4864C84.9288 94.5282 80.881 94.5161 76.8338 94.4834C69.2429 94.4229 61.6532 94.2177 54.0672 93.9435C46.4866 93.6694 38.8964 93.1349 31.3104 93.1622C27.3001 93.1761 23.2946 93.1495 19.288 93.3425C15.7588 93.5126 11.8478 93.2578 8.54563 94.6444C7.93253 94.9016 7.64746 95.7968 8.3453 96.1756C11.4381 97.8546 15.1578 97.9835 18.5919 98.4804C22.3208 99.0196 26.0575 99.387 29.8063 99.7605C37.8687 100.564 45.9716 100.842 54.066 101.174C62.1568 101.505 70.2524 101.763 78.3505 101.841C82.3977 101.879 86.4455 101.856 90.4921 101.786C93.3222 101.736 96.1027 101.887 98.7911 101.301C100.37 102.396 103.185 101.812 103.968 100.05C106.688 93.9381 105.774 87.6146 105.463 81.1107Z" fill="#E0DFE6"/>
<path d="M65.4881 62.8768C64.4907 61.7111 62.9849 61.676 61.8404 60.779C59.6597 59.0698 57.0953 57.7577 54.8626 56.0909C52.622 54.418 50.494 52.598 48.2498 50.9288C46.8311 49.8733 46.0716 49.0707 44.2904 49.4381C44.0519 49.4871 43.8776 49.7008 43.8068 49.9217C42.7186 53.3382 48.1003 57.8926 50.2162 60.0025C52.0513 61.8321 53.9651 63.5788 55.9545 65.239C57.657 66.6595 59.6143 68.6677 61.8277 69.1639C65.6152 70.0143 67.9248 65.7232 65.4881 62.8768Z" fill="#E0DFE6"/>
<path d="M85.7057 44.5739C80.4668 44.2894 74.8471 44.8438 69.6112 45.308C66.9004 45.5489 64.1902 45.9635 61.4981 46.3648C59.1691 46.7122 56.733 46.786 54.6922 48.0231C54.1814 48.333 54.1015 49.0236 54.5082 49.4533C57.6064 52.7246 63.8555 52.7657 68.0794 53.0678C73.6161 53.4636 79.87 53.8134 85.3855 53.078C87.1013 52.8493 89.1694 51.9293 89.4939 49.9502C89.512 49.8394 89.5302 49.7287 89.5483 49.6185C89.9799 46.9857 88.4928 44.7252 85.7057 44.5739Z" fill="#E0DFE6"/>
<path d="M85.0835 59.0294C83.5492 58.8526 82.1112 58.6033 80.5993 58.2777C79.2418 57.9853 77.8322 57.4255 76.4432 57.6821C76.0159 57.7614 75.5946 58.2934 75.6412 58.7358C76.0225 62.3763 81.0908 65.0224 84.1206 66.1433C86.1887 66.9083 88.373 65.1102 88.6405 63.1323C88.9552 60.8051 87.246 59.2787 85.0835 59.0294Z" fill="#E0DFE6"/>
<path d="M48.7603 75.5746C46.3199 74.8259 44.5466 75.942 42.1898 76.4619C39.3858 77.0804 36.6743 76.0346 33.8672 76.1768C29.6802 76.3898 26.7823 78.4198 24.6241 81.846C24.566 81.938 24.6816 82.053 24.7736 81.9955C27.1509 80.5139 30.5463 79.7955 33.2856 80.477C35.7973 81.1022 37.8473 82.6667 40.4504 83.0753C44.1804 83.6611 49.5737 82.9802 50.4652 78.5759C50.7321 77.2547 50.0936 75.9837 48.7603 75.5746Z" fill="#E0DFE6"/>
<path d="M87.883 76.5999C87.687 74.4616 85.6582 73.1343 83.6633 74.1783C79.043 76.5956 71.7287 74.4561 68.9936 80.1756C68.6384 80.9182 69.2351 81.9847 70.149 81.6784L70.563 81.6821C70.6018 81.6875 70.6375 81.6821 70.6738 81.679C70.744 81.7486 70.8935 81.745 71.1319 81.659C71.601 81.607 72.0701 81.5549 72.5385 81.5023C73.6195 81.4708 74.6478 81.6469 75.6876 81.9229C77.6304 82.4392 79.4527 83.2647 81.5129 83.2024C84.9271 83.1001 88.2093 80.1587 87.883 76.5999Z" fill="#E0DFE6"/>
<path d="M117.854 36.5769C115.625 34.3624 111.404 33.7196 108.638 32.4026C104.966 30.6541 101.52 28.4752 97.9819 26.4798C97.3101 26.1009 96.2999 26.9216 96.8356 27.6261C99.1046 30.6075 101.708 33.0623 104.645 35.3858C105.873 36.3572 107.131 37.2935 108.418 38.1856C109.536 38.961 111.093 39.6425 112.331 40.4934C111.757 42.5004 110.032 45.026 109.425 46.6232C109.387 46.7237 109.355 46.8236 109.318 46.9234C107.089 49.8431 105.35 53.2312 103.524 56.2991C101.178 60.2404 95.0931 67.1692 98.5393 71.8591C99.2868 72.8765 100.252 73.3045 101.501 73.0642C106.091 72.1811 109.772 64.8366 111.455 60.9346C113.006 57.3395 114.123 53.414 115.1 49.5211C115.972 48.0528 116.759 46.5343 117.487 45.0327C118.773 42.3824 120.347 39.0523 117.854 36.5769Z" fill="#E0DFE6"/>
<path d="M82.3198 96.4226C80.0302 97.6954 78.7356 99.5468 77.1601 101.596C75.0164 104.384 75.7832 104.618 72.6675 103.727C68.1924 102.448 63.8214 100.942 59.2343 100.09C57.5578 99.7792 51.3129 98.1263 50.091 99.9487C50.005 100.077 49.355 101.323 49.9693 101.359C50.9262 101.416 52.2323 102.614 53.0693 103.083C54.9649 104.145 56.8617 105.2 58.7271 106.316C62.2459 108.42 65.8955 110.364 69.7781 111.712C73.4313 112.98 77.0548 113.971 80.3497 111.359C83.3838 108.954 86.9256 104.487 87.9836 100.777C88.9235 97.4787 85.2158 94.8121 82.3198 96.4226Z" fill="#E0DFE6"/>
<path d="M42.2306 37.5089C41.2876 35.1551 38.6324 34.2049 36.6279 36.0297C35.1826 37.3455 34.5768 39.4741 32.8591 40.4897C31.0979 41.5313 29.1254 40.8552 27.3049 41.4925C26.3504 41.8266 25.9503 42.6328 26.1029 43.6097C26.7438 47.7113 32.8228 48.4358 35.9773 47.4432C39.7981 46.2418 43.9373 41.7691 42.2306 37.5089Z" fill="#E0DFE6"/>
<ellipse cx="32.5" cy="39" rx="6.5" ry="6" fill="url(#paint0_linear)"/>
<path d="M96.5601 98.9307C96.5298 98.9307 96.4983 98.9295 96.4681 98.9271C57.0563 95.7914 7.61401 94.1809 7.26963 94.1772C7.01604 94.1772 6.757 94.1796 6.49735 94.1839C6.17537 94.1851 5.84975 94.0532 5.62581 93.8098C5.40188 93.5671 5.29233 93.2397 5.32501 92.9105C6.92586 76.6532 10.6747 36.4807 10.9059 14.6257C10.9132 13.9926 11.4264 13.4818 12.0595 13.4781C21.4194 13.4261 30.78 13.443 40.14 13.4582C44.6665 13.466 49.1931 13.4739 53.7197 13.4739C67.2636 13.4739 83.243 13.4091 99.0639 12.9304C99.3895 12.9098 99.7212 13.0551 99.9494 13.3008C100.177 13.5465 100.287 13.8776 100.253 14.2111C98.1567 34.127 97.0945 54.179 97.0945 73.8092C97.0945 86.7298 97.4092 93.1332 97.7173 97.6936C97.7397 98.0302 97.615 98.3594 97.3753 98.5967C97.1574 98.8109 96.8639 98.9307 96.5601 98.9307ZM7.75745 91.8719C12.9159 92.0383 58.389 93.6198 95.3163 96.5098C95.0355 91.9899 94.7746 85.5865 94.7746 73.8092C94.7746 54.5313 95.795 34.8508 97.8081 15.2878C82.3921 15.7314 66.9023 15.7932 53.7191 15.7932C49.1913 15.7932 44.6635 15.7853 40.1351 15.7774C31.1601 15.7611 22.1851 15.746 13.21 15.7913C12.8735 37.4025 9.39341 75.148 7.75745 91.8719Z" fill="#525D7D"/>
<path d="M86.2989 88.06C84.6623 88.0419 83.0421 88.0382 81.4231 88.0382L78.1603 88.04C70.2638 88.04 68.1285 87.925 62.9688 87.6479C56.5854 87.3041 45.9012 86.7291 14.4864 85.8237C14.1699 85.8146 13.8703 85.676 13.6585 85.4406C13.446 85.2045 13.3395 84.8928 13.3637 84.5763C15.0318 62.6801 16.5715 42.8895 18.5337 22.4149C18.5887 21.8418 19.056 21.3957 19.6309 21.3673C25.3341 21.0864 31.5729 20.9563 39.2648 20.9563C43.3368 20.9563 47.4076 20.9908 51.4754 21.0253C55.5317 21.0598 59.5844 21.0943 63.634 21.0943C71.102 21.0943 80.9413 20.9902 90.8194 20.1816C91.1516 20.1586 91.4803 20.2724 91.72 20.5036C91.9596 20.7354 92.0885 21.0586 92.0722 21.3915C91.8719 25.679 91.2091 32.9019 90.4411 41.265C89.1053 55.8252 87.4422 73.9453 87.4422 85.2584C87.4422 85.7976 87.447 86.3369 87.4579 86.8762C87.4652 87.1903 87.3441 87.4941 87.1226 87.7175C86.9053 87.9359 86.6087 88.06 86.2989 88.06ZM81.4231 85.7184C82.6553 85.7184 83.8888 85.7202 85.1235 85.7292C85.1229 85.5713 85.1223 85.4139 85.1223 85.2566C85.1223 73.8382 86.7909 55.6587 88.1315 41.0514C88.8227 33.5246 89.4279 26.9252 89.6852 22.5965C80.1739 23.3167 70.8127 23.4124 63.6334 23.4124C59.5777 23.4124 55.5172 23.3779 51.4548 23.3434C47.3937 23.3089 43.3296 23.2744 39.2642 23.2744C32.0601 23.2744 26.1409 23.3894 20.7464 23.6345C18.8677 43.3561 17.3734 62.49 15.7683 83.5383C46.2728 84.4244 56.7815 84.9903 63.0929 85.3298C68.209 85.6052 70.3255 85.719 78.1603 85.719L81.4231 85.7184Z" fill="#525D7D"/>
<path d="M75.2883 108.092C75.117 108.092 74.9433 108.054 74.7793 107.974L50.1353 95.9094C49.5603 95.6273 49.3219 94.9331 49.6039 94.3576C49.886 93.7826 50.5802 93.5459 51.1557 93.8261L74.7926 105.398C76.2803 102.615 77.932 99.6189 79.9359 96.0655C80.25 95.5075 80.9582 95.3096 81.5156 95.6249C82.0736 95.939 82.2709 96.6465 81.9562 97.2046C79.7229 101.166 77.9296 104.429 76.3142 107.475C76.1066 107.867 75.7047 108.092 75.2883 108.092Z" fill="#525D7D"/>
<path d="M95.9489 70.9071C95.7643 70.9071 95.5773 70.8629 95.403 70.7703C94.8383 70.4683 94.6253 69.7656 94.9273 69.2003L96.2104 66.7981C101.145 57.5544 105.817 48.8027 111.351 40.3451L96.9694 32.8844C96.401 32.5896 96.1789 31.89 96.4743 31.321C96.7702 30.7539 97.4675 30.53 98.0376 30.826L113.562 38.8792C113.855 39.0305 114.069 39.2993 114.151 39.6188C114.234 39.9378 114.176 40.2767 113.994 40.5509C108.208 49.2493 103.374 58.3037 98.2573 67.89L96.9736 70.294C96.7636 70.685 96.3629 70.9071 95.9489 70.9071Z" fill="#525D7D"/>
<path d="M64.2669 15.775C64.0872 15.775 63.905 15.7332 63.7337 15.6442L38.8204 2.72063C36.4781 7.19393 34.1389 11.4966 32.135 15.1606C31.8269 15.7217 31.1212 15.9257 30.5607 15.6218C29.9985 15.3144 29.7921 14.6099 30.0996 14.0476C32.2512 10.1148 34.7895 5.44419 37.2988 0.624097C37.5948 0.056991 38.292 -0.16392 38.8616 0.130224L64.802 13.5864C65.3703 13.8812 65.5924 14.5808 65.297 15.1498C65.0907 15.5474 64.6857 15.775 64.2669 15.775Z" fill="#525D7D"/>
<path d="M8.25091 75.2738C8.07962 75.2738 7.90592 75.2357 7.7419 75.1558L0.649751 71.6836C0.353791 71.5383 0.13288 71.2738 0.0439104 70.9567C-0.0462697 70.6389 0.00396483 70.2982 0.180694 70.0204C0.755062 69.1155 1.33004 68.2016 1.89714 67.269C4.74357 62.5857 7.08462 58.0712 8.80591 54.6619C9.094 54.0906 9.79244 53.8612 10.3638 54.1493C10.9357 54.438 11.1651 55.1352 10.8764 55.7072C9.13576 59.1552 6.76747 63.7223 3.87868 68.4746C3.53188 69.0453 3.18145 69.6094 2.82981 70.1686L8.76172 73.0726C9.3373 73.3546 9.57516 74.0488 9.29312 74.6244C9.09218 75.0354 8.68002 75.2738 8.25091 75.2738Z" fill="#525D7D"/>
<path d="M32.3195 46.107C28.5943 46.107 24.584 43.9542 24.584 39.2279C24.584 35.1546 27.828 31.7133 31.6683 31.7133C32.17 31.7133 32.6784 31.7701 33.1801 31.8815C34.6279 32.2029 35.9812 32.6883 36.9889 33.2487C38.7386 34.2201 39.8692 36.3524 39.8692 38.6789C39.8698 42.251 36.9828 46.107 32.3195 46.107ZM31.6689 34.0331C29.0863 34.0331 26.9039 36.4123 26.9039 39.2279C26.9039 42.8272 30.3077 43.7877 32.3195 43.7877C35.5502 43.7877 37.5499 41.1362 37.5499 38.6795C37.5499 37.2282 36.8557 35.8289 35.8626 35.2769C35.0558 34.829 33.8949 34.4168 32.6766 34.1457C32.3401 34.0713 32.0005 34.0331 31.6689 34.0331Z" fill="#525D7D"/>
<path d="M61.3016 70.0839C60.9712 70.0839 60.6431 69.9435 60.4144 69.6718C60.0288 69.2148 59.5761 68.6556 59.0253 67.9753C56.5669 64.9394 52.0403 59.3513 42.549 49.4133C41.2496 50.3938 39.9544 51.3755 38.6604 52.3548C31.8067 57.5459 24.72 62.9137 17.4148 67.8409C16.884 68.2004 16.1625 68.0588 15.8049 67.528C15.4466 66.9972 15.587 66.2764 16.1178 65.9181C23.3709 61.0266 30.4322 55.6781 37.2605 50.5058C38.8286 49.3183 40.3998 48.1284 41.9765 46.9409C42.4467 46.5875 43.1046 46.6401 43.5113 47.0644C53.557 57.5386 58.2869 63.3785 60.8277 66.5155C61.0656 66.8096 61.2847 67.0801 61.4874 67.3289C63.8128 65.5919 66.2192 63.939 68.5554 62.3339C70.4407 61.0381 72.3908 59.6993 74.2531 58.3448C74.7003 58.0204 75.3159 58.0549 75.7226 58.4307C76.2739 58.9397 76.8205 59.453 77.3664 59.9656C80.4688 62.878 83.3994 65.6282 87.0326 67.6103C87.5955 67.9166 87.8025 68.6217 87.4956 69.1833C87.1888 69.7462 86.4831 69.9532 85.9226 69.6463C82.0285 67.5226 78.8516 64.54 75.7795 61.6566C75.4678 61.3643 75.1561 61.0714 74.8432 60.7796C73.1975 61.9592 71.5089 63.1189 69.8693 64.2452C67.2571 66.0397 64.556 67.8948 62.0055 69.8449C61.7955 70.0058 61.548 70.0839 61.3016 70.0839Z" fill="#525D7D"/>
<path d="M64.1408 49.7238C55.8763 49.7238 53.3555 48.6713 53.3555 45.2196C53.3555 41.6046 56.9439 39.0856 60.1644 39.0856C61.249 39.0856 62.2016 39.2913 63.0162 39.7011C63.4109 36.7948 66.0255 34.027 70.175 34.027C72.3151 34.027 73.8469 35.2581 75.0483 36.8044C76.4864 34.5905 79.2741 33.3231 82.9182 33.3231C83.8702 33.3231 84.8525 33.4187 85.758 33.6003C86.3856 33.7262 86.7929 34.3369 86.6676 34.9657C86.5418 35.5934 85.9329 35.9958 85.3022 35.8754C84.5439 35.7235 83.7195 35.6436 82.9182 35.6436C81.2181 35.6436 77.1818 36.017 76.4125 39.4772C76.3096 39.9408 75.935 40.2948 75.4665 40.3705C74.9951 40.4455 74.5302 40.2301 74.2857 39.8221C72.8047 37.3546 71.613 36.3475 70.175 36.3475C66.9975 36.3475 65.2835 38.4706 65.2835 40.4673C65.2835 41.0175 65.2956 41.4097 65.3034 41.6772C65.3198 42.2146 65.344 43.0269 64.4906 43.3089C64.1063 43.4366 63.541 43.4366 63.0368 42.714C62.7639 42.3224 62.1235 41.4054 60.165 41.4054C58.046 41.4054 55.6759 43.0372 55.6759 45.2202C55.6759 46.2443 55.6759 47.4045 64.1414 47.4045C66.3541 47.4045 68.5989 47.275 70.7705 47.1497C72.9633 47.0232 75.2305 46.8919 77.4874 46.8919C78.5768 46.8919 79.5797 46.9216 80.5541 46.9821C81.1939 47.022 81.6793 47.5728 81.6393 48.2119C81.5994 48.8517 81.0414 49.3134 80.4095 49.2971C77.5364 49.1161 74.0902 49.2808 70.9043 49.4648C68.6988 49.5925 66.4201 49.7238 64.1408 49.7238Z" fill="#525D7D"/>
<path d="M25.51 79.0336C25.2425 79.0336 24.9744 78.9416 24.7553 78.754C24.2693 78.3376 24.213 77.6052 24.63 77.1186C26.548 74.8817 28.4611 73.7475 30.3156 73.7475C31.2507 73.7475 32.1876 74.1342 33.1796 74.5434C34.2902 75.0015 35.4383 75.4748 36.6681 75.4748C37.5518 75.4748 38.2793 75.0475 39.1211 74.5524C40.0581 74.0011 41.1202 73.3765 42.4917 73.3765C43.9515 73.3765 45.1905 74.1112 46.2835 74.7594C46.9862 75.1758 47.6501 75.5692 48.3165 75.7599C48.9326 75.9354 49.2891 76.5776 49.1136 77.1931C48.9369 77.8092 48.2971 78.1651 47.6798 77.9902C46.7247 77.7172 45.8992 77.2276 45.1003 76.7543C44.1827 76.2102 43.3154 75.6963 42.4911 75.6963C41.7509 75.6963 41.0767 76.0928 40.2965 76.5521C39.3064 77.1344 38.183 77.7947 36.6675 77.7947C34.9783 77.7947 33.49 77.181 32.2947 76.6877C31.5212 76.3688 30.7907 76.0673 30.315 76.0673C29.1838 76.0673 27.8268 76.9534 26.3894 78.6293C26.1618 78.8962 25.8368 79.0336 25.51 79.0336Z" fill="#525D7D"/>
<path d="M66.4872 80.2827C66.2252 80.2827 65.9619 80.1944 65.7452 80.014C65.2531 79.6037 65.1872 78.8725 65.5969 78.3805C66.9127 76.802 68.5602 75.1879 70.7989 75.1879C72.1256 75.1879 73.163 75.7762 74.0787 76.2954C74.8225 76.7179 75.4653 77.0823 76.1401 77.0823C76.5632 77.0823 77.2961 76.8232 78.0055 76.5726C79.1506 76.1683 80.4494 75.7096 81.8378 75.7096C82.7826 75.7096 83.6529 75.9154 84.4978 76.3378C85.0704 76.6247 85.3028 77.3213 85.0159 77.8945C84.729 78.467 84.0348 78.6982 83.4592 78.4126C82.0569 77.7087 80.3846 78.191 78.7777 78.7594C77.8433 79.0898 76.9602 79.4015 76.1401 79.4015C74.8534 79.4015 73.8336 78.8229 72.9342 78.3127C72.1722 77.8806 71.5137 77.5071 70.7989 77.5071C69.5213 77.5071 68.4004 78.6407 67.3787 79.8657C67.1493 80.1405 66.8195 80.2827 66.4872 80.2827Z" fill="#525D7D"/>
<defs>
<linearGradient id="paint0_linear" x1="38.9815" y1="38.937" x2="25.9834" y2="38.937" gradientUnits="userSpaceOnUse">
<stop stop-color="#FFCC80"/>
<stop offset="1" stop-color="#FF8080"/>
</linearGradient>
</defs>
</svg>
