<svg width="145" height="108" viewBox="0 0 145 108" fill="none" xmlns="http://www.w3.org/2000/svg">
<path d="M42.9102 21.1397C44.1723 2.96587 67.4154 0.525863 78.8792 1.57759C105.13 0.820345 116.11 1.89311 118.319 2.52414C138.512 2.27173 140.405 26.188 138.828 38.1776C141.352 61.6521 123.472 67.9415 114.217 68.1518C114.974 72.6953 121.474 82.2449 124.629 86.4518C114.28 85.4422 99.7034 75.0932 93.7086 70.0449H85.8207C85.5683 88.2187 54.3741 93.1829 38.8085 93.3932C32.4982 100.713 23.5585 105.278 19.8775 106.645L27.1344 94.3398C10.2226 95.3494 6.83604 78.5639 7.2567 70.0449C-3.34469 63.7346 2.41877 57.5294 6.62567 55.2156L7.88774 39.1242C11.674 22.4649 32.8136 20.1931 42.9102 21.1397Z" fill="white"/>
<path d="M75.596 35.7009C73.5685 35.9312 72.8529 38.3323 71.6514 39.6442C70.1647 41.2679 68.8825 41.2212 66.8979 40.6955C65.2591 40.2614 63.2719 39.1981 61.7593 40.3977C60.0644 41.743 61.1453 44.5354 62.1133 45.9697C63.5837 48.1474 65.9873 49.1375 68.5335 49.4177C73.997 50.0191 79.3482 45.5696 79.2005 39.9074C79.1494 37.9423 77.8779 35.4415 75.596 35.7009Z" fill="#E0DFE6"/>
<path d="M101.439 39.3142C100.59 36.7515 97.6768 36.0599 95.677 37.7927C94.6383 38.6932 94.1789 40.1863 93.0292 40.9555C91.8586 41.738 90.0456 41.719 88.735 41.3164C87.1883 40.8413 86.8558 39.9023 85.7085 38.9747C85.0548 38.4465 84.1701 38.0205 83.3523 38.4553C81.1083 39.6486 81.1916 42.7451 82.1041 44.7606C83.3119 47.428 86.3705 49.005 89.1489 49.5275C94.5651 50.546 103.635 45.9463 101.439 39.3142Z" fill="#E0DFE6"/>
<path d="M123.374 39.2322C123.197 36.7112 120.482 34.6755 118.088 36.1981C116.066 37.4829 114.852 39.6303 112.336 40.0443C111.702 40.1484 110.59 40.2159 110.081 39.7206C109.531 39.1855 109.867 38.3165 108.854 38.0597C106.74 37.5246 105.264 40.0102 105.298 41.8623C105.354 44.7985 107.939 46.8418 110.555 47.5195C115.669 48.8453 123.813 45.4617 123.374 39.2322Z" fill="#E0DFE6"/>
<path d="M137.64 19.4959C136.279 14.8003 133.356 3.63857 126.285 5.84341C125.908 5.96078 125.757 6.44416 126.05 6.73317C131.459 12.0698 131.978 22.8561 132.035 29.9288C132.098 37.5712 132.631 48.4566 127.616 54.849C125.438 57.6255 122.453 59.7218 119.417 61.4452C117.118 62.7502 114.002 63.5396 112.312 65.6561C110.534 67.8836 110.997 70.5864 112.057 73.0386C113.771 77.0021 115.786 81.2837 118.202 84.8484C119.541 86.8248 123.338 85.6397 122.338 83.1048C121.514 81.0161 120.438 79.1249 119.354 77.1567C118.377 75.3822 115.87 72.2719 115.659 70.2216C115.336 67.0841 123.528 65.9085 125.898 64.8774C133.712 61.4761 137.649 54.8061 139.044 46.5887C140.599 37.4311 140.23 28.4319 137.64 19.4959Z" fill="#E0DFE6"/>
<path d="M102.614 76.3604C100.234 72.6398 95.9905 68.9223 91.9228 67.1435C87.2847 65.1153 82.008 65.4125 77.072 65.3576C71.3593 65.2945 65.81 64.3114 60.3988 62.4896C57.9435 61.6629 55.4837 60.8495 53.2587 59.4953C51.0614 58.1575 49.7924 56.4998 48.0634 54.6755C47.6235 54.2116 46.6057 54.3795 46.506 55.0869C45.1442 64.7323 59.2579 69.3003 66.2649 70.8192C71.9644 72.0548 77.6261 72.1116 83.4228 72.2485C86.3502 72.3179 89.193 72.747 91.9664 73.7327C95.1171 74.8528 97.5908 77.0501 100.612 78.3626C101.832 78.8946 103.487 77.724 102.614 76.3604Z" fill="#E0DFE6"/>
<path d="M143.342 30.5598C142.622 25.3184 141.988 15.8819 137.181 12.5999C137.081 12.5311 136.955 12.605 136.92 12.7059C135.954 15.5153 136.924 18.8592 137.3 21.743C137.838 25.8775 138.103 30.0203 138.102 34.1902C138.098 41.6206 138.453 51.1032 134.292 57.5883C132.32 60.6615 129.692 62.381 126.277 63.503C123.433 64.4376 120.521 65.3614 118.384 67.5694C115.635 70.4116 113.251 77.7934 118.668 79.1849C120 79.5275 121.006 78.5595 121.139 77.3025C121.303 75.7546 120.78 74.6212 121.81 73.2108C122.831 71.8137 124.821 71.4477 126.381 71.0395C129.545 70.2109 132.662 69.6739 135.465 67.8672C140.767 64.4489 143.301 58.1215 144.145 52.1071C145.132 45.0749 144.305 37.558 143.342 30.5598Z" fill="#E0DFE6"/>
<path d="M119.051 83.9625C116.833 83.1017 114.195 83.2734 111.849 82.9086C111.233 82.8133 110.63 82.7105 110.029 82.6127C110.012 82.2158 109.834 81.815 109.497 81.603C106.95 80.0002 104.427 78.6056 102.041 76.7428C99.873 75.0504 97.7344 73.3137 95.2538 72.0921C89.2974 69.1577 82.917 68.7267 76.4161 68.102C69.847 67.471 62.1737 66.5465 56.3612 63.1579C53.5386 61.5121 51.3533 58.8933 49.6785 56.1275C48.477 54.1429 47.569 51.6825 45.5572 50.4166C45.4815 50.3693 45.354 50.3952 45.3143 50.4804C43.23 54.9557 46.3858 62.8013 49.257 66.332C54.0125 72.181 61.653 73.8381 68.7402 75.0567C69.9247 75.2605 71.1186 75.405 72.3175 75.5179C70.5841 78.5741 68.7383 81.3153 65.1862 83.0954C59.9215 85.7338 53.5259 86.8393 47.8832 88.475C45.3212 89.2177 42.2853 89.7775 40.1972 91.5582C38.4379 93.0588 37.4579 95.2933 35.7339 96.9397C33.7884 98.7981 31.5318 100.345 29.1308 101.556C26.6249 102.82 23.695 103.417 21.3665 104.986C20.5676 105.524 20.6389 106.823 21.6423 107.094C29.5416 109.232 37.2042 102.131 42.7617 97.1978C46.7057 97.3682 50.608 96.356 54.5104 95.6751C59.1762 94.8617 64.0068 94.3171 68.455 92.6165C74.9136 90.1479 81.3224 84.5985 83.0104 77.6363C83.5014 77.2217 83.8857 76.7049 84.075 76.077C86.6547 76.2134 89.2135 76.4456 91.7194 76.9548C96.478 77.9216 100.541 82.1091 105.151 83.4185C108.234 86.5017 114.945 88.5671 119.051 87.0425C120.578 86.4759 120.546 84.5424 119.051 83.9625Z" fill="#E0DFE6"/>
<path d="M25.6788 93.2822C22.4971 91.5778 18.6143 91.7696 15.3935 89.8494C13.7301 88.8574 12.1847 87.6786 11.1347 86.0234C10.2424 84.6162 9.98618 82.8701 9.0024 81.567C8.87366 81.3967 8.68246 81.3664 8.51461 81.5039C5.41875 84.0483 8.28365 89.814 10.2354 92.1609C13.4058 95.9729 18.8932 98.0358 23.6853 98.6523C25.097 98.834 26.1312 97.5631 26.5944 96.4374C26.6562 96.2878 26.7181 96.1376 26.7793 95.9881C27.1649 95.0523 26.5288 93.7372 25.6788 93.2822Z" fill="#E0DFE6"/>
<path d="M42.011 30.5964C45.093 29.2788 44.029 24.3473 40.7704 23.3793C40.1526 22.3507 39.1038 21.5417 37.7452 21.3959C32.1769 20.7983 26.6914 22.049 21.9226 24.972C21.6525 25.1373 21.4102 25.3285 21.1969 25.5393C20.2106 25.5519 19.2111 25.709 18.2172 26.0473C12.1378 28.1171 8.26512 36.0138 6.5241 41.7285C5.90694 43.7547 7.04912 45.2232 8.58947 45.7482C8.70874 46.1369 8.93528 46.4632 9.22808 46.7263C8.52763 47.5618 7.83413 48.4112 7.1545 49.2814C5.84573 50.1522 6.93048 52.8461 8.92519 51.9481C12.9884 50.1187 16.3298 46.6802 19.0609 42.9843C20.2131 41.8263 21.2928 40.6103 22.2564 39.3312C24.7736 40.3289 27.2896 41.2218 29.8913 42.0554C31.8848 42.694 34.2265 43.9321 36.3727 43.2259C39.107 42.3267 39.5714 39.434 39.2957 36.4978C40.3034 36.5502 41.3415 36.4032 42.4868 35.9198C43.8076 35.362 44.1578 33.33 43.458 32.2169C43.0383 31.548 42.5493 31.0249 42.011 30.5964ZM22.6414 33.467C22.7221 33.5143 22.7966 33.5774 22.8742 33.6329C22.577 33.5787 22.2804 33.5225 21.9819 33.4689C21.4657 33.3767 20.8801 33.4171 20.3425 33.5888C20.4245 33.4436 20.5041 33.2979 20.5873 33.1534C21.2644 32.9899 21.9542 33.0637 22.6414 33.467Z" fill="#E0DFE6"/>
<circle cx="70" cy="37" r="6" fill="url(#paint0_linear)"/>
<ellipse cx="91.5" cy="38" rx="6.5" ry="6" fill="url(#paint1_linear)"/>
<ellipse cx="114.5" cy="38" rx="6.5" ry="6" fill="url(#paint2_linear)"/>
<path d="M43.5059 40.3352C43.4851 40.3352 43.4655 40.3345 43.4447 40.3333C42.7771 40.2998 42.264 39.7325 42.2975 39.0655C42.3215 38.5834 42.3322 38.1007 42.3322 37.6179C42.3322 35.4838 42.117 33.2846 41.9088 31.158C41.6955 28.9765 41.4746 26.7206 41.4746 24.4754C41.4746 10.3168 51.5238 1.1687 67.0763 1.1687C67.561 1.1687 68.045 1.17754 68.529 1.1952C69.1966 1.21855 69.7185 1.77891 69.6945 2.44655C69.6712 3.11355 69.0912 3.631 68.4432 3.61207C67.9876 3.59566 67.5313 3.58809 67.0763 3.58809C52.7765 3.58809 43.8927 11.5915 43.8927 24.476C43.8927 26.6032 44.1073 28.7992 44.3155 30.9226C44.5295 33.1079 44.7509 35.3664 44.7509 37.6186C44.7509 38.1411 44.7396 38.6642 44.7131 39.186C44.6803 39.8329 44.1464 40.3352 43.5059 40.3352Z" fill="#525D7D"/>
<path d="M124.872 87.9076C124.769 87.9076 124.665 87.895 124.563 87.8672C115.953 85.5911 103.573 80.8262 93.2322 71.0344C90.8601 71.0905 88.3303 71.1196 85.702 71.1196C46.6447 71.1196 43.1602 64.0128 43.1602 43.7036C43.1602 43.0353 43.7016 42.4945 44.3692 42.4945C45.0369 42.4945 45.5783 43.036 45.5783 43.7036C45.5783 62.2781 47.5219 68.7014 85.7014 68.7014C88.4956 68.7014 91.1782 68.6693 93.672 68.6043C94.0014 68.5923 94.3087 68.7172 94.5416 68.9419C103.209 77.2886 113.458 81.9229 121.526 84.4691C118.092 79.8285 115.239 74.2659 113.338 68.4528C113.228 68.1184 113.27 67.753 113.452 67.452C113.634 67.1504 113.938 66.9434 114.285 66.8847C137.781 62.9016 137.781 52.5596 137.781 33.7844C137.781 10.5478 134.808 2.41687 101.489 2.41687C97.3869 2.41687 93.205 2.56768 89.1601 2.71345C85.1385 2.85859 80.9806 3.00815 76.9256 3.00815C76.258 3.00815 75.7165 2.46672 75.7165 1.79908C75.7165 1.13145 76.258 0.590018 76.9256 0.590018C80.9371 0.590018 85.0729 0.441094 89.073 0.296587C93.1394 0.151448 97.344 0 101.489 0C136.698 0 140.199 9.77789 140.199 33.7856C140.199 52.2005 140.198 64.4823 116.086 69.0207C118.339 75.3652 121.751 81.3165 125.779 85.8997C126.131 86.2991 126.179 86.8822 125.899 87.334C125.676 87.6969 125.283 87.9076 124.872 87.9076Z" fill="#525D7D"/>
<path d="M66.3923 43.1357C66.2105 43.1357 66.0263 43.0953 65.8527 43.0082C63.9748 42.0692 61.6387 40.9006 61.6387 37.363C61.6387 31.353 66.5311 28.5506 70.3892 29.5905C71.0335 29.7647 71.4159 30.4285 71.2418 31.0728C71.0676 31.7171 70.4031 32.1001 69.7595 31.9253C69.437 31.8383 69.1038 31.7941 68.7681 31.7941C66.9469 31.7941 64.0574 33.306 64.0574 37.3623C64.0574 39.3185 64.9914 39.8726 66.9349 40.8444C67.5319 41.1435 67.7749 41.8698 67.4757 42.4668C67.2631 42.8908 66.8359 43.1357 66.3923 43.1357Z" fill="#525D7D"/>
<path d="M70.4543 44.6584C69.81 44.6584 69.2749 44.1491 69.2472 43.4992C69.2194 42.8315 69.7375 42.2686 70.4051 42.2409C72.7936 42.1418 74.9688 39.9761 74.9688 37.6974C74.9688 36.6966 74.5239 36.094 73.9604 35.331C73.5647 34.7959 73.116 34.1889 72.8617 33.4247C72.651 32.7905 72.9936 32.1058 73.6265 31.8951C74.2658 31.6874 74.9454 32.0269 75.1562 32.6599C75.2893 33.0599 75.5752 33.4468 75.9058 33.8942C76.5659 34.7877 77.3875 35.9009 77.3875 37.6974C77.3875 41.252 74.1718 44.505 70.4543 44.6584Z" fill="#525D7D"/>
<path d="M86.0652 35.5204C85.9895 35.5204 85.9131 35.5128 85.8355 35.4983C85.1798 35.3721 84.7507 34.7379 84.8763 34.0823C85.3925 31.401 87.7223 29.8 91.109 29.8C91.9294 29.8 92.7832 29.8998 93.5777 30.0891C94.2276 30.2437 94.629 30.8955 94.4744 31.5449C94.3198 32.1955 93.6673 32.5993 93.0186 32.4422C92.4046 32.2964 91.7432 32.2194 91.1084 32.2194C89.8344 32.2194 87.6396 32.5211 87.2509 34.5404C87.1405 35.1184 86.6338 35.5204 86.0652 35.5204Z" fill="#525D7D"/>
<path d="M90.1269 45.8005C86.5363 45.8005 83.5029 43.099 83.5029 39.9009C83.5029 39.1961 83.6468 38.4861 83.9301 37.7895C84.1826 37.1717 84.8868 36.8732 85.5065 37.1256C86.1249 37.3774 86.4221 38.0829 86.1703 38.702C86.0056 39.1071 85.9217 39.5103 85.9217 39.9009C85.9217 41.9524 88.1379 43.3824 90.1269 43.3824C90.7945 43.3824 91.336 43.9238 91.336 44.5914C91.336 45.2591 90.7945 45.8005 90.1269 45.8005Z" fill="#525D7D"/>
<path d="M94.6967 45.5468C94.265 45.5468 93.8479 45.3152 93.6296 44.9082C93.3147 44.3194 93.5362 43.5868 94.1249 43.2713C96.0124 42.2604 97.33 40.0442 97.33 37.8816C97.33 35.9563 96.5361 35.2325 95.7682 34.5321C95.623 34.3989 95.4861 34.2734 95.363 34.1509C94.891 33.6789 94.891 32.9129 95.363 32.4402C95.8357 31.9688 96.6005 31.9688 97.0738 32.4402C97.1722 32.5386 97.2826 32.639 97.3988 32.745C98.2778 33.547 99.7487 34.8893 99.7487 37.8816C99.7487 40.944 97.9471 43.9667 95.2665 45.4029C95.0847 45.5007 94.8898 45.5468 94.6967 45.5468Z" fill="#525D7D"/>
<path d="M108.989 41.0406C108.545 41.0406 108.118 40.7957 107.906 40.3717C107.512 39.5835 107.458 38.8389 107.458 38.1523C107.458 34.5258 109.713 30.7749 113.487 30.7749C114.754 30.7749 115.498 31.081 115.828 31.7385C116.128 32.3348 115.887 33.0618 115.29 33.3615C114.857 33.5799 114.356 33.513 114 33.2315C113.874 33.2107 113.675 33.1937 113.487 33.1937C110.996 33.1937 109.876 36.0933 109.876 38.153C109.876 38.7158 109.925 39.003 110.069 39.292C110.368 39.8889 110.125 40.6153 109.528 40.9137C109.354 41.0002 109.17 41.0406 108.989 41.0406ZM113.667 32.8232C113.667 32.8239 113.667 32.8251 113.668 32.8251C113.667 32.8245 113.667 32.8239 113.667 32.8232Z" fill="#525D7D"/>
<path d="M113.861 45.5873C112.271 45.5873 110.753 45.0995 109.472 44.1763C108.93 43.7863 108.807 43.0303 109.197 42.4889C109.587 41.9468 110.342 41.8238 110.884 42.2138C111.752 42.8385 112.781 43.1685 113.861 43.1685C117.146 43.1685 119.436 40.1421 119.436 37.4267C119.436 36.5887 118.739 35.8189 118.066 35.0749C117.916 34.9089 117.77 34.7474 117.635 34.5896C117.201 34.0829 117.26 33.3187 117.767 32.8845C118.273 32.4504 119.038 32.5091 119.472 33.0158C119.593 33.1571 119.724 33.3023 119.859 33.4512C120.701 34.382 121.854 35.6554 121.854 37.4261C121.855 41.3682 118.643 45.5873 113.861 45.5873Z" fill="#525D7D"/>
<path d="M19.6959 107.748C19.3147 107.748 18.9449 107.568 18.7121 107.243C18.3903 106.795 18.4136 106.186 18.7683 105.762C21.3738 102.654 23.5496 99.0915 25.2515 95.152C25.1966 95.152 25.1417 95.152 25.0868 95.152C12.5538 95.152 7.72072 88.8738 6.19046 70.363C2.29508 69.3079 0 66.5036 0 62.7174C0 58.6169 2.76835 55.8852 5.60675 54.5549C5.60296 53.8381 5.60107 53.1092 5.60107 52.3678C5.60107 41.1543 5.60107 20.2809 37.7403 20.2809C39.323 20.2809 41.0072 20.3307 42.8902 20.4336C43.5572 20.4702 44.0683 21.04 44.0317 21.707C43.9951 22.374 43.4209 22.8826 42.7583 22.8486C40.9195 22.7476 39.2782 22.699 37.7403 22.699C8.01983 22.699 8.01983 40.5523 8.01983 52.3671C8.01983 53.3825 8.02298 54.3738 8.03119 55.3425C8.03497 55.8479 7.72324 56.3035 7.24996 56.4827C4.91387 57.3668 2.41813 59.4694 2.41813 62.7167C2.41813 66.78 6.00935 67.902 7.55286 68.1948C8.08987 68.297 8.49184 68.7469 8.53286 69.2921C10.0372 89.2253 15.0698 92.7326 25.0874 92.7326C25.7273 92.7326 26.3823 92.73 27.0493 92.7256C27.3939 92.7225 27.8255 92.9187 28.0527 93.2487C28.2798 93.5788 28.3291 93.9997 28.1839 94.3726C26.8991 97.6793 25.307 100.756 23.4297 103.566C28.8465 100.869 33.8083 97.1858 37.9612 92.7565C38.1738 92.5294 38.4654 92.3937 38.7759 92.376C59.6574 91.208 84.5486 86.4014 84.5486 70.1384L84.5474 69.9188C84.5423 69.2511 85.08 68.7053 85.7476 68.7009C86.4266 68.6636 86.9611 69.2341 86.9655 69.9011L86.9668 70.1384C86.9668 84.6389 70.9593 92.9231 39.3917 94.7632C34.0052 100.404 27.3566 104.86 20.1325 107.665C19.9906 107.722 19.8423 107.748 19.6959 107.748Z" fill="#525D7D"/>
<path d="M7.77181 52.8858C7.54906 52.8858 7.32378 52.8246 7.12184 52.6958C6.55896 52.3361 6.39426 51.5884 6.75395 51.0255C7.88098 49.2617 9.09509 47.515 10.2688 45.8257C13.1268 41.7139 16.0819 37.4626 17.8652 32.8012C17.9984 32.4528 18.2849 32.1859 18.642 32.0767C18.9998 31.9657 19.3854 32.03 19.6908 32.244C23.7925 35.1291 28.2155 36.9692 32.5929 37.6248C31.9058 35.5967 31.4205 33.3249 31.0905 30.6298C31.0444 30.2505 31.1794 29.8713 31.4565 29.6075C31.7328 29.3437 32.1178 29.2257 32.4951 29.2907C36.2157 29.9274 39.4902 30.2366 42.5046 30.2366L43.1325 30.2316C43.7755 30.2417 44.3498 30.7541 44.3605 31.4217C44.3706 32.09 43.8374 32.6396 43.1704 32.6497L42.5046 32.6548C39.8025 32.6548 36.913 32.4188 33.7149 31.936C34.1245 34.5233 34.7151 36.6574 35.543 38.56C35.7115 38.9475 35.6655 39.3949 35.4213 39.74C35.1777 40.0846 34.77 40.2764 34.3498 40.2486C29.3589 39.8991 24.2715 38.1139 19.552 35.066C17.6545 39.4359 14.9139 43.3792 12.2553 47.2046C11.0948 48.8743 9.89398 50.6014 8.79283 52.326C8.56124 52.6882 8.17062 52.8858 7.77181 52.8858Z" fill="#525D7D"/>
<path d="M29.389 66.2587C28.043 66.2587 26.8743 65.3614 26.1379 64.1669C25.9303 63.8747 25.7712 63.5453 25.6596 63.1963C25.4374 62.6107 25.3144 61.9974 25.3144 61.4086C25.3144 60.9385 25.3882 60.4589 25.5384 60.009C24.0902 60.7978 22.4899 62.3861 20.9842 64.5764C20.6062 65.1248 19.854 65.2649 19.3025 64.8875C18.7522 64.5095 18.6128 63.7561 18.9914 63.2058C20.5772 60.8987 23.7841 57.028 27.4403 57.028C28.7933 57.028 30.2087 57.5889 31.1527 58.5841C31.4493 58.8018 31.7068 59.0555 31.9156 59.3382C32.4268 59.9332 32.6937 60.775 32.6937 61.8396C32.6943 64.7405 31.0316 66.2587 29.389 66.2587ZM28.1383 62.8019C28.3162 62.9906 28.6866 62.9691 28.9346 62.8941C28.9996 62.6006 29.1744 62.3312 29.4445 62.1507C29.5758 62.063 29.6893 61.9652 29.7827 61.8585C29.8307 61.6408 29.8395 61.4446 29.8395 61.3278C29.8395 61.1152 29.7991 60.9214 29.7285 60.7473C29.5972 60.7246 29.4357 60.7182 29.2407 60.7182C27.9521 60.7182 27.8871 61.7487 27.8871 61.9557C27.8871 62.0213 27.8915 62.1923 27.9332 62.3741C27.9919 62.5217 28.0613 62.6656 28.1383 62.8019Z" fill="#525D7D"/>
<path d="M19.406 56.3754C19.2104 56.3754 19.0141 56.3281 18.8355 56.2322C18.4418 56.022 18.1963 55.6125 18.1963 55.1664V54.9726C18.1963 54.3296 18.698 53.804 19.3315 53.7655C22.3599 51.779 25.421 50.0796 29.0993 50.0796C29.7676 50.0796 30.3084 50.621 30.3084 51.2887C30.3084 51.9569 29.767 52.4977 29.0993 52.4977C25.8514 52.4977 23.0912 54.1618 20.0761 56.1716C19.8742 56.3066 19.6407 56.3754 19.406 56.3754Z" fill="#525D7D"/>
<path d="M48.5452 79.3401C44.0289 79.3401 40.1202 78.1923 36.9304 75.9281C36.3858 75.5413 36.2577 74.7866 36.6439 74.242C37.0301 73.6974 37.7854 73.5699 38.33 73.9555C41.1034 75.9237 44.54 76.9214 48.5458 76.9214C51.4877 76.9214 54.6732 76.3888 58.0139 75.3393C58.6487 75.1412 59.3296 75.4927 59.5296 76.1307C59.7297 76.7674 59.3757 77.4464 58.7383 77.6464C55.1635 78.7703 51.7338 79.3401 48.5452 79.3401Z" fill="#525D7D"/>
<path d="M48.875 83.7126H46.1602C45.492 83.7126 44.9512 83.1711 44.9512 82.5035C44.9512 81.8359 45.4926 81.2944 46.1602 81.2944H48.875C49.5432 81.2944 50.084 81.8359 50.084 82.5035C50.0846 83.1711 49.5432 83.7126 48.875 83.7126Z" fill="#525D7D"/>
<defs>
<linearGradient id="paint0_linear" x1="75.9829" y1="36.937" x2="63.9847" y2="36.937" gradientUnits="userSpaceOnUse">
<stop stop-color="#FFCC80"/>
<stop offset="1" stop-color="#FF8080"/>
</linearGradient>
<linearGradient id="paint1_linear" x1="97.9815" y1="37.937" x2="84.9834" y2="37.937" gradientUnits="userSpaceOnUse">
<stop stop-color="#FFCC80"/>
<stop offset="1" stop-color="#FF8080"/>
</linearGradient>
<linearGradient id="paint2_linear" x1="120.981" y1="37.937" x2="107.983" y2="37.937" gradientUnits="userSpaceOnUse">
<stop stop-color="#FFCC80"/>
<stop offset="1" stop-color="#FF8080"/>
</linearGradient>
</defs>
</svg>
