<svg width="129" height="108" viewBox="0 0 129 108" fill="none" xmlns="http://www.w3.org/2000/svg">
<path d="M9.78083 47.0115H19.5617C-5.99484 37.8616 0.630938 11.3585 15.4601 3.78616C37.6722 -5.04821 47.0114 11.043 48.9045 20.1929H50.7976C56.1613 -1.26206 79.5093 -3.47065 92.4453 8.51886C103.551 24.9256 93.9177 38.4926 87.7126 43.2253V63.1027L95.6005 61.8406L109.799 52.6907L111.061 47.0115L119.579 46.3805C120.842 68.3402 119.685 88.1334 118.948 95.285L111.061 95.9161V91.1834L96.8625 82.98H88.6592C88.4488 83.7162 88.1544 86.3876 88.6592 91.1834C89.164 95.9792 86.7661 98.6505 85.504 99.3867C68.0456 99.8074 31.9299 100.649 27.1341 100.649C12.2418 102.416 9.36014 100.544 9.78083 99.3867L8.51877 88.9748L3.15505 86.7662L2.52402 64.3647L8.51877 63.1027L9.78083 47.0115Z" fill="white"/>
<path d="M49.0768 13.4434C46.7319 7.34388 38.8397 0.0675123 31.976 4.31054C30.4022 5.28358 30.5493 7.33505 31.976 8.33712C35.5293 10.8328 39.0309 12.7127 40.1175 17.321C41.2414 22.0859 39.4758 28.3438 37.0432 32.4625C32.3256 40.4507 19.5063 42.6561 12.1599 37.0551C11.9832 36.9201 11.6904 37.0627 11.6462 37.264C10.3444 43.1565 20.538 45.81 24.5987 46.4947C32.5288 47.8312 40.8192 44.9114 45.4226 38.1475C50.149 31.203 52.1443 21.4227 49.0768 13.4434Z" fill="#E0DFE6"/>
<path d="M28.4863 18.4197C26.4367 18.9377 25.1501 20.5342 24.0559 22.2475C23.9997 22.3352 23.9606 22.3932 23.9272 22.4425C23.77 22.604 23.6091 22.7611 23.4526 22.9239C23.1876 23.1997 22.5509 23.8459 22.3736 24.0219C22.2915 24.068 21.9419 24.3008 21.8877 24.3267C21.8397 24.3494 21.817 24.3608 21.7867 24.3753C21.7526 24.3886 21.7009 24.4094 21.6006 24.4523C20.9714 24.7179 20.329 24.9647 19.6986 25.2329C18.4688 25.756 18.1854 27.598 18.8064 28.6354C20.5 31.4649 24.2376 32.0833 27.264 31.569C31.0786 30.9216 34.7076 27.3967 34.7076 23.3978C34.7089 20.1891 31.6282 17.6258 28.4863 18.4197Z" fill="#E0DFE6"/>
<path d="M78.6991 18.9503C76.0046 19.9707 74.8511 21.8228 73.0722 23.5373C71.8392 24.7255 70.2421 25.6443 69.1687 26.9738C68.3837 27.9469 68.2992 29.1338 69.1687 30.1069C71.1583 32.3332 74.8019 32.3306 77.4756 31.6567C81.3153 30.6887 84.6775 27.7847 84.9463 23.7095C85.145 20.7021 81.6018 17.8517 78.6991 18.9503Z" fill="#E0DFE6"/>
<path d="M98.7306 17.9666C96.6892 10.9042 89.6388 4.92328 82.2482 4.62986C79.9765 4.53962 79.0533 6.99684 79.8661 8.78138C81.797 13.0231 86.1902 15.681 87.8852 20.013C89.5548 24.28 87.0396 29.9328 84.559 33.4097C81.8279 37.2369 78.0254 40.0305 73.3217 40.8306C70.8298 41.2547 68.1858 41.0489 65.7809 40.2886C63.7238 39.638 61.972 38.1872 59.8392 37.854C59.6126 37.8187 59.3242 37.9519 59.347 38.2289C59.795 43.6696 68.1302 46.6114 72.6301 47.2772C79.803 48.3386 87.3646 45.5412 92.2878 40.2008C97.584 34.4553 100.973 25.7251 98.7306 17.9666Z" fill="#E0DFE6"/>
<path d="M65.4053 72.3131C65.3201 68.1818 64.7452 65.4236 60.6486 63.764C58.5725 62.9228 56.2112 64.3553 55.0981 66.0231C54.4317 67.0207 54.2399 68.2916 54.4879 69.4559C54.2286 68.7592 54.4362 70.6687 54.428 70.8309C54.3686 72.0639 54.3857 73.3026 54.3314 74.5369C54.3257 74.6606 54.2948 74.9881 54.2494 75.4355C49.6776 75.3761 44.4514 77.1512 40.2841 77.9451C36.5806 78.6505 32.1906 79.0475 28.3053 80.1921C28.1015 79.1156 27.8933 78.0403 27.7027 76.9619C27.196 74.0895 26.9221 71.1704 26.2501 68.3314C25.9825 67.1999 24.2939 67.2422 24.0017 68.3314C22.987 72.1182 22.7384 76.1782 22.5699 80.0842C22.4507 82.8519 21.8171 86.8854 24.0068 89.0309C26.2173 91.196 30.531 91.2389 33.4268 91.5708C37.7423 92.0655 42.1728 92.1003 46.513 92.034C52.7665 91.9381 63.068 92.6511 64.8115 84.9255C65.717 80.9153 65.4892 76.3902 65.4053 72.3131Z" fill="#E0DFE6"/>
<path d="M90.7032 49.7495C88.9086 44.1012 81.4593 45.598 80.8567 51.0822C80.5854 53.5495 80.4648 56.0112 80.4434 58.4709C80.285 58.4482 80.1342 58.4135 79.9669 58.404C78.0328 58.2949 76.4805 59.2483 75.1781 60.5987C74.4846 61.3175 73.8883 62.4779 73.0092 62.9727C71.7466 63.6832 69.9992 62.2539 69.0691 63.7532C67.1704 66.8137 71.7623 69.6073 74.1855 69.9789C76.1751 70.2844 78.7289 69.7941 80.786 68.6481C81.0416 72.7031 81.3754 76.7631 81.5615 80.8421C81.672 83.2589 81.7584 85.677 81.8203 88.0951C81.8543 89.4379 81.8796 90.7814 81.8985 92.1248C81.9004 92.2371 81.8979 92.347 81.8941 92.4555C81.6449 92.5079 81.4069 92.5508 81.2006 92.5697L77.918 92.8675L69.7115 93.6115C59.8549 94.5051 50.0127 95.5065 40.1687 96.5256C35.0795 97.0525 30.025 97.7012 24.9591 98.4206C22.5353 98.7651 20.1033 99.0724 17.6934 99.5059C16.6295 99.6971 15.5599 99.9016 14.5036 100.131C13.7369 100.206 12.9967 100.381 12.2836 100.658C12.1821 100.668 12.0943 100.681 12.0167 100.697C11.6009 100.103 10.7988 99.7653 10.1363 100.247C7.41527 102.223 8.34856 105.759 11.2576 107.18C13.646 108.347 17.1022 107.931 19.6528 107.916C22.9335 107.898 26.2211 107.72 29.5006 107.608C42.9124 107.152 56.3419 105.848 69.7115 104.709C72.9941 104.429 76.2767 104.149 79.5593 103.869C82.1926 103.645 85.1836 103.768 87.704 102.905C93.5353 100.907 93.2923 94.8225 93.4779 89.7074C93.9574 76.4766 94.7475 62.4786 90.7032 49.7495Z" fill="#E0DFE6"/>
<path d="M12.3668 86.0096C11.5433 84.7412 10.1859 84.2194 8.72449 84.5273C8.64561 84.5444 8.30549 84.6018 8.16792 84.639C7.91046 84.1803 7.60315 83.6843 7.58801 83.6553C6.32091 81.3123 5.73847 78.412 4.11673 76.317C3.78481 75.8879 3.032 75.9649 2.68809 76.317C0.810783 78.2398 0.468766 81.4486 0.153884 84.0004C-0.199492 86.8665 -0.0890618 89.9548 2.06211 92.1621C4.16469 94.3202 7.66247 94.82 10.2219 93.2033C12.4778 91.7785 13.9406 88.4327 12.3668 86.0096Z" fill="#E0DFE6"/>
<path d="M126.129 46.7515C124.231 41.8308 117.533 42.6606 117.033 47.9826C116.345 55.2994 114.522 62.5613 113.747 69.8957C113.461 72.6129 112.821 75.9498 112.567 79.2576C110.483 78.0391 107.924 77.94 105.243 77.7905C103.276 77.68 100.698 77.0818 98.8262 77.882C97.3989 78.4922 98.1643 80.1145 99.374 81.6776C97.9977 81.6006 96.6189 81.8953 95.3852 82.7068C93.9705 83.6382 94.1251 84.7583 93.0492 85.7445C92.5122 86.2374 90.048 87.3328 89.1034 88.0604C88.4793 88.5413 88.5317 89.9245 89.5741 89.7983C90.4733 89.6891 91.5051 89.7579 92.379 89.5679C92.9224 89.4499 93.0473 89.2366 93.0429 89.0694C93.1388 89.2 93.2965 89.3881 93.5616 89.6613C94.8659 91.0067 95.998 92.0372 97.7112 92.9029C100.992 94.5613 104.048 96.1445 107.117 98.1991C112.523 101.819 120.743 103.379 124.294 96.3717C125.805 93.3894 125.833 89.7926 126.35 86.5579C127.047 82.202 127.861 77.8466 128.223 73.4477C128.945 64.6929 129.341 55.0823 126.129 46.7515ZM110.623 89.6014C111.075 89.578 111.54 89.5358 112.031 89.4695C112.732 89.3742 113.338 89.0903 113.854 88.6883C114.152 89.2568 114.491 89.8014 114.911 90.2936C115.678 91.1909 116.648 91.5475 117.629 91.5342C115.99 93.4172 113.264 91.8687 110.623 89.6014Z" fill="#E0DFE6"/>
<circle cx="75.5" cy="59.5" r="3.5" fill="url(#paint0_linear)"/>
<path d="M25.8952 48.6679C11.2472 48.6679 1.01758 38.5387 1.01758 24.0352C1.01758 11.231 12.4625 0 25.5096 0C25.9823 0 26.4562 0.0157757 26.9301 0.0454339C29.7981 0.229063 32.851 0.514918 35.897 1.79716C44.9957 5.62876 50.4282 13.6239 50.4282 23.1858C50.4282 37.2363 39.4225 48.6679 25.8952 48.6679ZM25.5096 2.41873C13.7504 2.41873 3.43504 12.5196 3.43504 24.0352C3.43504 37.1145 12.6707 46.2492 25.8952 46.2492C39.5556 46.2492 48.0108 34.2774 48.0108 23.1852C48.0108 14.6291 43.131 7.46631 34.958 4.02532C32.5241 2.9999 30.0227 2.66609 26.778 2.45785C26.3533 2.43198 25.9311 2.41873 25.5096 2.41873Z" fill="#525D7D"/>
<path d="M24.8959 32.8765C20.3708 32.8765 15.6924 29.6886 15.6924 24.3545C15.6924 19.76 19.8092 15.7643 24.87 15.4469C25.0171 15.4375 25.1641 15.433 25.3105 15.433C28.9824 15.433 34.5317 18.8658 34.5317 24.0402C34.5317 29.2481 29.4538 32.8765 24.8959 32.8765ZM25.3105 17.8518C25.2158 17.8518 25.1199 17.8537 25.0253 17.86C21.2107 18.0985 18.1098 21.012 18.1098 24.3545C18.1098 28.1754 21.5609 30.4584 24.8959 30.4584C28.3104 30.4584 32.1149 27.8226 32.1149 24.0402C32.1142 20.2011 27.709 17.8518 25.3105 17.8518Z" fill="#525D7D"/>
<path d="M74.2956 48.6679C59.6475 48.6679 49.418 38.5387 49.418 24.0352C49.418 11.231 60.8616 0 73.9081 0C74.3808 0 74.8559 0.0157757 75.3298 0.0454339C78.1978 0.229063 81.2507 0.514918 84.2967 1.79716C93.3955 5.62813 98.8267 13.6239 98.8267 23.1858C98.8274 37.2363 87.8229 48.6679 74.2956 48.6679ZM73.9081 2.41873C62.1502 2.41873 51.8348 12.5196 51.8348 24.0352C51.8348 37.1145 61.0705 46.2492 74.2949 46.2492C87.9541 46.2492 96.4093 34.2774 96.4093 23.1852C96.4093 14.6285 91.5302 7.46631 83.3577 4.02532C80.9239 2.9999 78.4225 2.66609 75.1777 2.45785C74.7537 2.43198 74.3296 2.41873 73.9081 2.41873Z" fill="#525D7D"/>
<path d="M73.2963 32.8765C68.7712 32.8765 64.0928 29.6886 64.0928 24.3545C64.0928 19.76 68.2096 15.7643 73.2704 15.4469C73.4175 15.4375 73.5645 15.433 73.7109 15.433C77.3828 15.433 82.9321 18.8658 82.9321 24.0402C82.9327 29.2481 77.8548 32.8765 73.2963 32.8765ZM73.7115 17.8518C73.6169 17.8518 73.5209 17.8537 73.4263 17.86C69.6117 18.0985 66.5109 21.012 66.5109 24.3545C66.5109 28.1754 69.962 30.4584 73.2969 30.4584C76.7114 30.4584 80.5152 27.8226 80.5152 24.0402C80.5152 20.2011 76.11 17.8518 73.7115 17.8518Z" fill="#525D7D"/>
<path d="M13.2668 102.424C8.2747 102.424 7.92574 96.6903 7.73833 93.6103C7.42282 88.4586 7.0625 81.6618 7.0625 74.7685C7.0625 70.2806 7.2272 66.6749 7.38685 63.1885C7.52946 60.063 7.66576 57.1117 7.66576 53.8076C7.66576 52.2282 7.63106 50.7781 7.55975 49.3759L7.55533 49.1721C7.55533 46.9812 9.39288 45.6245 11.0954 45.6245H19.9948C20.6624 45.6245 21.2032 46.1659 21.2032 46.8335C21.2032 47.5012 20.6624 48.0426 19.9948 48.0426H11.096C11.0847 48.0426 9.97343 48.1088 9.97343 49.1715C10.0491 50.6967 10.0839 52.1865 10.0839 53.807C10.0839 57.166 9.94755 60.145 9.80305 63.2989C9.64466 66.7582 9.48059 70.3355 9.48059 74.7678C9.48059 81.5955 9.83965 88.345 10.152 93.4626C10.4208 97.8628 11.0159 100.189 13.5305 99.995C31.2119 98.7866 49.2283 98.543 66.6516 98.3076C72.9032 98.2231 79.151 98.1385 85.3919 98.0111C86.4905 97.2816 87.1505 96.6247 87.1505 89.1609C87.1505 86.5649 86.9776 83.9442 86.8117 81.4094C86.3769 74.7697 86.1661 67.441 86.1661 59.0029C86.1661 55.1997 86.1794 51.3965 86.1939 47.5933L86.2097 43.3174C86.2116 42.6511 86.753 42.1122 87.4181 42.1122C88.0895 42.1147 88.629 42.6574 88.6265 43.3256L88.612 47.6027C88.5975 51.4034 88.583 55.2035 88.583 59.0035C88.583 67.388 88.7925 74.6656 89.2241 81.2516C89.3938 83.8249 89.5674 86.4866 89.5674 89.1615C89.5674 97.3832 88.759 98.6913 86.6179 100.1L86.4362 100.22C86.2456 100.347 86.0216 100.418 85.7907 100.422C79.428 100.553 73.0578 100.64 66.6844 100.726C49.2933 100.961 31.3103 101.205 13.6971 102.408C13.5513 102.419 13.4075 102.424 13.2668 102.424Z" fill="#525D7D"/>
<path d="M47.7663 47.0412C45.2377 47.0412 42.6594 47.0058 40.1024 46.937C39.4342 46.9194 38.9085 46.3634 38.9262 45.6952C38.9439 45.0276 39.5181 44.4868 40.1674 44.5196C42.7029 44.5884 45.2598 44.6231 47.7663 44.6231C53.1451 44.6231 58.3858 44.471 63.7893 44.158C64.4885 44.1176 65.028 44.6287 65.0671 45.2951C65.105 45.9615 64.5964 46.5332 63.93 46.5717C58.4786 46.8878 53.1918 47.0412 47.7663 47.0412Z" fill="#525D7D"/>
<path d="M6.14667 89.0101C2.14848 89.0101 1.55153 86.7308 1.55153 85.3722C1.55153 84.8056 1.64177 84.2528 1.72885 83.7177C1.80331 83.2652 1.87399 82.8374 1.87399 82.4802C1.72443 80.7859 0.972249 71.7553 0.972249 67.2018C0.972249 67.0049 0.96026 66.8068 0.948901 66.6112C0.897788 65.7265 0.827113 64.5149 1.75977 63.5273C2.80917 62.4161 4.77355 61.9422 8.33065 61.9422C8.99891 61.9422 9.53907 62.4836 9.53907 63.1512C9.53907 63.8189 8.99828 64.3603 8.33065 64.3603C4.82277 64.3603 3.81061 64.8784 3.51844 65.1869C3.32346 65.3945 3.32093 65.7372 3.36321 66.4711C3.37646 66.7134 3.38971 66.9582 3.38971 67.2012C3.38971 71.7502 4.19364 81.2724 4.28514 82.3433C4.2883 82.3774 4.29145 82.4449 4.29145 82.479C4.29145 83.0324 4.20248 83.5788 4.11666 84.107C4.04093 84.567 3.96963 85.0005 3.96963 85.371C3.96963 85.8569 3.96963 86.5901 6.1473 86.5901C6.41486 86.5901 6.68241 86.5819 6.94807 86.5731C7.23014 86.5642 7.50779 86.556 7.77787 86.556C8.4455 86.556 8.98629 87.0974 8.98629 87.7651C8.98629 88.4327 8.4455 88.9741 7.77787 88.9741C7.5324 88.9741 7.27936 88.9817 7.02317 88.9905C6.73289 89.0013 6.43883 89.0101 6.14667 89.0101Z" fill="#525D7D"/>
<path d="M88.1325 84.3645C87.516 84.3645 86.9885 83.895 86.9291 83.269C86.8667 82.6039 87.3551 82.0139 88.0196 81.9514C90.8819 81.6814 93.2817 81.504 95.4587 81.4037C95.3843 79.7599 95.3218 78.1186 95.2593 76.4804C95.0965 72.2526 94.9306 67.8922 94.5513 63.5659C93.3038 63.6977 92.0506 63.7564 90.8283 63.8138C89.7309 63.865 88.5969 63.9186 87.5046 64.0246C86.8313 64.0921 86.2483 63.6024 86.1845 62.9373C86.1195 62.2729 86.6061 61.6816 87.2705 61.6172C88.4234 61.5056 89.5889 61.4513 90.7147 61.3983C92.3642 61.3213 93.9216 61.2481 95.4556 61.0121C95.7831 60.9622 96.1188 61.0487 96.3813 61.2525C96.6444 61.4563 96.8104 61.7592 96.8432 62.0899C97.3127 66.8933 97.4976 71.7206 97.6762 76.3883C97.7544 78.4234 97.832 80.4597 97.9324 82.5036C97.9481 82.8267 97.8345 83.1435 97.6143 83.382C97.3947 83.6205 97.0893 83.7612 96.7656 83.772C94.3128 83.8553 91.605 84.042 88.2467 84.3588C88.2082 84.3626 88.1704 84.3645 88.1325 84.3645Z" fill="#525D7D"/>
<path d="M95.4508 62.9784C95.1019 62.9784 94.7548 62.8282 94.5163 62.5379C94.0916 62.0224 94.1648 61.2601 94.6816 60.8361C99.6604 56.7363 105.198 53.6973 109.999 51.1706C110.59 50.8576 111.32 51.0861 111.632 51.6773C111.943 52.268 111.716 52.9993 111.125 53.3104C106.431 55.7815 101.02 58.748 96.2182 62.7026C95.9929 62.8882 95.7209 62.9784 95.4508 62.9784Z" fill="#525D7D"/>
<path d="M111.143 92.434C110.954 92.434 110.763 92.3899 110.583 92.2959C107.459 90.6602 104.556 88.6914 101.75 86.7876C99.8559 85.5028 97.8978 84.1752 95.9328 82.9958C95.3598 82.6519 95.1749 81.9091 95.5182 81.3368C95.8602 80.7632 96.6054 80.5796 97.1772 80.9222C99.1996 82.1357 101.185 83.4836 103.107 84.786C105.858 86.6519 108.702 88.5816 111.705 90.1535C112.297 90.4627 112.526 91.1941 112.215 91.7853C111.999 92.198 111.579 92.434 111.143 92.434Z" fill="#525D7D"/>
<path d="M110.987 97.375C110.679 97.375 110.379 97.2564 110.153 97.0412C109.902 96.802 109.765 96.4663 109.778 96.1199C109.976 90.9972 110.072 85.7811 110.072 80.1757C110.072 68.4153 109.636 56.7274 109.211 46.8455C109.185 46.2599 109.583 45.7412 110.156 45.6131C113.284 44.9165 116.549 44.7448 119.33 44.6697C120.005 44.6338 120.544 45.1701 120.572 45.8321C120.951 55.7051 121.134 64.4915 121.134 72.6936C121.134 80.8799 120.956 88.4062 120.588 95.7021C120.558 96.301 120.094 96.7869 119.498 96.8449C117.99 96.9907 116.472 97.0626 115.005 97.1327C113.719 97.1939 112.388 97.2576 111.092 97.3699C111.058 97.3731 111.022 97.375 110.987 97.375ZM111.671 47.7719C112.084 57.4562 112.489 68.7762 112.489 80.1751C112.489 85.3192 112.41 90.1384 112.245 94.8591C113.136 94.801 114.023 94.7594 114.89 94.7184C115.986 94.666 117.11 94.6124 118.223 94.5278C118.555 87.601 118.716 80.4458 118.716 72.6943C118.716 64.8575 118.547 56.4819 118.199 47.1263C116.073 47.2058 113.861 47.3649 111.671 47.7719Z" fill="#525D7D"/>
<path d="M21.0068 92.5337C20.6888 92.5337 20.3834 92.4082 20.1568 92.1848C19.9246 91.9564 19.7953 91.6446 19.7978 91.3197C19.8035 89.8216 19.8211 88.3204 19.8382 86.8173C19.8596 84.916 19.8817 83.0116 19.8817 81.1065C19.8817 76.4135 19.7656 70.8668 18.9131 65.3075C18.862 64.9692 18.9554 64.6253 19.1718 64.3597C19.3883 64.0946 19.7057 63.9337 20.0483 63.9167C28.5994 63.4876 37.2343 63.3235 45.5847 63.1658C52.3108 63.0383 59.2647 62.9064 66.136 62.637C66.4875 62.6193 66.7815 62.7449 67.0182 62.9695C67.2548 63.1948 67.3892 63.5065 67.393 63.834C67.3987 64.4045 67.4006 64.9743 67.4006 65.5435C67.4006 68.5465 67.3368 71.5748 67.2744 74.5034C67.2119 77.4112 67.1469 80.4187 67.1469 83.3801C67.1469 85.4233 67.1772 87.2722 67.2397 89.0309C67.2617 89.6664 66.7878 90.2103 66.1562 90.2759C50.7591 91.868 35.3659 92.3015 21.0068 92.5337ZM21.494 66.2673C22.1989 71.5313 22.2992 76.6924 22.2992 81.1059C22.2992 83.0198 22.2777 84.9337 22.2569 86.8438C22.2449 87.9285 22.2323 89.0126 22.2235 90.0948C35.8057 89.8645 50.2953 89.4297 64.7875 87.9828C64.7484 86.5352 64.7294 85.0182 64.7294 83.3782C64.7294 80.3909 64.7932 77.3708 64.8556 74.4504C64.9181 71.5338 64.9825 68.5188 64.9825 65.5416C64.9825 65.3945 64.9812 65.2475 64.9812 65.0992C58.4943 65.3384 51.9612 65.4621 45.6301 65.5826C37.7297 65.7328 29.5756 65.8874 21.494 66.2673Z" fill="#525D7D"/>
<path d="M75.8281 64.2537C72.7518 64.2537 70.6846 62.6408 70.6846 60.2403C70.6846 57.5175 73.4409 55.2193 75.1724 55.2193C75.3655 55.2193 75.5504 55.242 75.7479 55.271C75.7927 55.2779 75.8407 55.2849 75.8899 55.2912C76.0963 55.1265 76.3581 55.0287 76.6427 55.0287C79.2634 55.0287 80.8845 57.082 80.8845 58.9846C80.8839 60.335 79.6395 64.2537 75.8281 64.2537ZM75.1724 57.6373C74.6752 57.6872 73.102 58.9202 73.102 60.2397C73.102 61.7901 75.5498 61.8349 75.8281 61.8349C77.9086 61.8349 78.4664 59.3228 78.4664 58.9846C78.4664 58.3782 77.9041 57.5515 76.8472 57.4556C76.4503 57.7762 75.8306 57.7257 75.3964 57.6632C75.3195 57.6519 75.2482 57.6373 75.1724 57.6373Z" fill="#525D7D"/>
<defs>
<linearGradient id="paint0_linear" x1="78.99" y1="59.4633" x2="71.9911" y2="59.4633" gradientUnits="userSpaceOnUse">
<stop stop-color="#FFCC80"/>
<stop offset="1" stop-color="#FF8080"/>
</linearGradient>
</defs>
</svg>
