<svg width="119" height="104" viewBox="0 0 119 104" fill="none" xmlns="http://www.w3.org/2000/svg">
<path d="M106.872 2.03406H2.11621L3.81128 95.263L108.906 93.2289L106.872 2.03406Z" fill="white"/>
<path d="M63.36 44.36C63.2915 44.2745 63.2224 44.1891 63.1539 44.1037C62.5071 43.2988 61.288 43.187 60.3448 43.5023C59.7604 41.3407 55.286 37.5005 54.21 39.1745C54.1402 39.283 54.0703 39.3915 54.0005 39.5C53.9571 38.826 53.7475 38.8711 53.4736 38.2269C53.3007 37.8201 52.6545 37.7849 52.3813 38.0859C51.8931 38.6249 51.5215 39.2792 51.2293 40C50.5493 40.3688 51.3399 44.3579 51.2294 45.2651C50.9968 47.1765 50.984 49.0587 51.224 50.9694C51.523 53.3499 54.0804 55.2368 54.1191 52.7335C55.128 52.6291 56.9438 50.3205 57.6605 49.5198C57.8266 49.6045 57.9866 49.6947 58.1745 49.7598C59.1569 50.1029 59.0329 49.4366 60.0005 49C60.4426 48.8 60.884 48.5138 61.2189 48.1518C61.3613 47.968 61.503 47.7843 61.6454 47.5998C61.6644 47.5714 61.6752 47.551 61.6915 47.5259C63.0835 46.555 64.396 45.6496 63.36 44.36Z" fill="url(#paint0_linear)"/>
<path d="M109.255 3.23758C107.584 -0.30715 102.088 1.56421 102.108 5.17335C102.175 16.9236 101.126 28.7762 100.34 40.5549C100.155 40.121 99.849 39.7352 99.3975 39.4728C97.3227 38.2672 94.6011 39.4565 92.5121 40.1617C91.3147 40.5658 91.4401 42.5158 92.8233 42.4622C94.8831 42.3829 96.1843 43.9267 98.1553 44.0603C99.0917 44.1234 99.7839 43.6603 100.179 42.9951C100.071 44.7058 99.969 46.4151 99.8802 48.1224C99.5222 55.0233 99.1954 61.9257 98.8998 68.8294C97.1552 67.935 94.837 68.5432 93.2281 69.5725C92.091 70.3 92.5968 71.9327 93.8932 72.0276C94.4268 72.0663 94.951 72.1985 95.4202 72.4568C95.6975 72.6094 95.9354 72.8094 96.2026 72.9742C96.7708 73.3247 97.303 73.4128 97.9553 73.484C98.215 73.5125 98.4591 73.4901 98.6848 73.4271C98.6177 74.8733 98.5594 76.3223 98.5296 77.7712C97.2481 78.2126 95.8527 78.5374 94.5441 78.3333C92.946 78.0844 92.2571 80.2894 93.8634 80.8033C95.0296 81.1769 96.2595 81.3268 97.4793 81.1952C97.8577 81.1546 98.2001 81.0766 98.5269 80.9776C98.5818 84.0545 98.8354 87.1158 99.5148 90.1215C99.5812 90.4171 99.7039 90.6605 99.8463 90.8829C96.4901 91.3602 91.9507 90.9229 90.5099 90.9466C86.6051 91.0111 82.7003 91.0572 78.7956 91.085C70.1487 91.146 61.5018 91.1094 52.8556 90.9968C44.4914 90.8877 36.1252 90.9744 27.7604 90.8599C19.7495 90.75 11.068 89.895 3.19745 91.6552C1.96343 91.9311 2.13904 93.6235 3.19745 93.9842C5.0627 94.6195 6.99847 95.105 8.97696 95.4888C6.99644 95.6474 5.02338 95.8596 3.06523 96.1525C1.36541 96.4068 1.48542 99.1203 3.06523 99.4695C16.4983 102.442 31.1343 102.377 44.846 102.714C59.1389 103.066 73.5598 103.492 87.8473 102.872C94.1922 102.597 101.646 103.203 107.798 101.548C114.539 99.7325 114.26 92.5604 114.88 86.9226C116.392 73.1749 118.13 59.3892 118.076 45.5337C118.017 30.8584 115.526 16.5473 109.255 3.23758ZM107.272 48.121C107.31 47.1691 107.341 46.2124 107.375 45.2577C107.363 46.9141 107.332 48.5699 107.279 50.2229C107.212 52.2963 107.109 54.3677 106.98 56.437C107.08 53.6653 107.162 50.8928 107.272 48.121Z" fill="#E0DFE6"/>
<path d="M17.1567 80.0873C16.9987 78.5665 16.4535 77.2613 15.0717 76.4524C13.7991 75.708 12.0911 75.6639 10.8225 76.4524C10.3723 76.7325 9.89159 77.0817 9.52274 77.4708C9.36815 77.6336 9.21491 77.8221 9.06914 78.0173C8.73284 78.0953 8.40874 78.2323 8.08803 78.4804C7.48865 78.9435 6.92114 79.7843 7.02759 80.5938C7.30084 82.674 8.48942 84.4661 10.6117 85.0729C13.6628 85.9455 17.5072 83.4768 17.1567 80.0873Z" fill="#E0DFE6"/>
<path d="M14.5498 67.4469C13.9301 66.6685 13.0893 66.4732 12.1333 66.6231C11.6939 66.6922 11.2858 66.8489 10.9067 67.0841C10.8857 67.0977 10.4036 67.4292 10.4226 67.4299C10.2979 67.5065 10.1738 67.5832 10.0429 67.6503C9.49916 67.9276 8.95538 68.1981 8.57094 68.4809C8.02784 68.8809 7.80544 69.504 8.13768 70.1332C8.70247 71.2025 9.868 71.6717 11.0369 71.7395C12.5313 71.8263 13.947 71.3299 14.7301 70.0003C15.196 69.2084 15.1173 68.1588 14.5498 67.4469Z" fill="#E0DFE6"/>
<path d="M10.9492 58.4017C10.9534 58.3996 10.9577 58.3996 10.9619 58.3982C10.9809 58.389 10.9858 58.3862 10.9492 58.4017Z" fill="#E0DFE6"/>
<path d="M13.5643 58.2989C12.6632 58.086 11.8306 58.0351 10.9613 58.3979C10.9179 58.4182 10.7627 58.4881 10.6033 58.5626C10.4881 58.5532 10.3897 58.5403 10.2921 58.5267C10.0799 58.5193 8.88927 58.701 9.95784 58.5599C8.88927 58.7003 8.28243 59.158 7.87562 60.1452C7.34336 61.4368 8.20107 62.9461 9.12658 63.8302C10.8176 65.4446 13.2897 65.785 15.0749 64.0201C16.8595 62.2565 16.0879 58.8956 13.5643 58.2989Z" fill="#E0DFE6"/>
<path d="M11.4834 47.8749C10.1673 47.9353 9.13809 48.5665 8.41328 49.6344C7.95222 50.3131 8.07087 51.1945 8.41328 51.8821C8.42819 52.0645 8.44108 52.215 8.46481 52.3709C8.53396 52.8198 8.95434 52.9147 9.29946 52.7838C9.332 52.8266 9.36319 52.8706 9.39709 52.912C10.0507 53.7005 11.3268 53.9297 12.2679 53.6707C13.1588 53.4253 13.8273 52.7988 14.1799 51.9621C14.9549 50.1246 13.6049 47.778 11.4834 47.8749Z" fill="#E0DFE6"/>
<path d="M15.1413 42.0134C14.8396 41.397 14.0172 40.7909 13.3561 40.6403C13.034 40.5671 12.737 40.5583 12.4455 40.578C12.4713 40.5712 12.4977 40.5637 12.5235 40.5569C12.4448 40.5637 12.3655 40.5766 12.2862 40.5875C12.2306 40.5942 12.1743 40.5997 12.1187 40.6092C11.8759 40.6492 11.6366 40.7109 11.4047 40.7902C10.7979 40.8953 10.2392 41.0967 9.73609 41.5577C9.63032 41.6547 9.54285 41.7679 9.44928 41.875C9.36114 41.8757 9.27367 41.8811 9.18417 41.8811C8.40444 41.8838 8.33799 42.9212 9.00924 43.1748C9.0506 43.606 9.10552 43.9627 9.26147 44.3322C9.3191 44.4692 9.78016 45.5445 9.38758 44.5838C9.95306 45.9696 10.8623 46.7087 12.3601 46.847C12.3919 46.8497 12.4245 46.8531 12.4563 46.8558C13.9975 46.9982 15.8146 45.2903 15.6031 43.7091C15.5054 42.9856 15.4641 42.6724 15.1413 42.0134Z" fill="#E0DFE6"/>
<path d="M14.0588 34.1625C13.5028 32.8457 12.1719 32.4823 10.8544 32.8485C10.5073 32.9454 10.154 33.0288 9.84282 33.2302C9.77502 33.2824 9.7079 33.3346 9.64009 33.3868C9.5967 33.3983 9.575 33.4031 9.52822 33.418C9.66383 33.3753 8.15182 34.0425 9.12479 33.6377C7.8223 34.1794 7.37887 35.2785 7.92807 36.5783C8.4427 37.7954 9.83943 38.2761 11.0748 38.2456C13.0411 38.1974 14.8962 36.1471 14.0588 34.1625Z" fill="#E0DFE6"/>
<path d="M13.1217 21.5376C11.7047 21.084 10.095 21.9668 9.46988 23.2482C9.28003 23.6374 9.16409 24.0341 9.03865 24.445C8.99661 24.5819 8.96339 24.7352 8.89898 24.8653C8.88542 24.8931 8.87932 24.9081 8.87254 24.925C8.86101 24.8999 8.8088 24.8958 8.63997 24.9989C7.78159 25.5251 8.34571 26.8276 9.31664 26.6045C10.1296 26.4173 10.9846 26.9089 11.845 26.793C12.6932 26.6791 13.4235 26.4451 13.9761 25.7298C14.4364 25.1338 14.8507 24.4829 14.7551 23.6842C14.6331 22.6563 14.1428 21.8644 13.1217 21.5376Z" fill="#E0DFE6"/>
<path d="M17.0025 14.499C15.7929 14.1511 14.6532 14.0515 13.4042 14.2718C12.0821 14.5051 10.8691 15.0733 9.51846 15.1967C8.13596 15.3228 8.08375 17.4308 9.51846 17.3921C12.1655 17.3209 14.4192 18.3298 17.0032 17.2511C18.2298 16.7392 18.4759 14.9227 17.0025 14.499Z" fill="#E0DFE6"/>
<path d="M102.432 14.4563C102.066 13.1239 100.57 12.2127 99.2171 12.631C98.4191 12.8778 97.7241 13.2968 96.9071 13.4928C96.406 13.6128 95.9077 13.6372 95.4222 13.7457C95.151 13.7009 94.8676 13.7552 94.6743 13.9755C94.6242 14.0325 94.574 14.0895 94.5245 14.1471C94.18 14.5403 94.1007 15.0468 94.3482 15.5133C94.8418 16.4422 95.968 16.8816 96.9071 17.2369C98.1208 17.6959 99.3229 17.8457 100.606 17.6708C102.006 17.4796 102.77 15.6869 102.432 14.4563Z" fill="#E0DFE6"/>
<path d="M100.518 22.4C99.2889 22.1674 98.2135 22.4712 97.0188 22.6787C96.6778 22.7377 96.3638 22.7533 96.018 22.7817C96.0336 22.7804 95.9109 22.7994 95.7821 22.8204C95.6458 22.7227 95.481 22.6617 95.2973 22.659C93.4408 22.6332 93.7222 25.1196 94.6681 26.041C96.3679 27.6968 99.8543 27.8934 101.526 26.2126C102.659 25.0728 102.249 22.7275 100.518 22.4Z" fill="#E0DFE6"/>
<path d="M101.808 32.6701C100.3 31.0428 97.0331 31.2218 95.1855 32.2314C94.3108 32.7094 94.1671 33.9909 94.8709 34.6757C95.5265 35.3137 96.3124 35.6995 97.0996 36.1409C98.3044 36.8163 99.2618 37.2468 100.684 36.9268C102.632 36.4888 103.048 34.0079 101.808 32.6701Z" fill="#E0DFE6"/>
<path d="M98.7683 47.8376C97.2943 48.3773 95.7687 48.7509 94.2628 49.1876C93.3454 49.454 93.1956 50.6989 94.0004 51.1939C95.4785 52.1045 97.0841 52.6252 98.7683 53.0212C100.461 53.4192 102.171 52.215 102.171 50.4291C102.171 48.7903 100.432 47.2288 98.7683 47.8376Z" fill="#E0DFE6"/>
<path d="M99.8482 57.5958C98.5877 57.3442 97.7924 57.6317 96.7597 58.2691C96.5116 58.4223 96.2431 58.6271 95.9787 58.7512C95.542 58.9559 95.0525 58.9539 94.5799 59.0074C93.312 59.1512 93.3093 60.8395 94.5799 60.9839C95.4722 61.0849 96.0085 61.2585 96.7604 61.7223C97.0174 61.8809 97.2757 62.0633 97.5415 62.2044C98.3226 62.6193 99.0135 62.5617 99.8488 62.3956C102.222 61.9223 102.224 58.0691 99.8482 57.5958Z" fill="#E0DFE6"/>
<path d="M55.3059 70.5258C46.0426 70.5258 32.2617 64.17 32.2617 46.6599C32.2617 34.7246 42.8681 24.2545 54.9601 24.2545C56.5392 24.2545 58.1197 24.4355 59.6581 24.7921C64.4776 25.9136 69.9235 27.5802 73.7835 31.4388C77.4706 35.1266 79.2633 39.7454 79.2633 45.5568C79.2633 57.6162 69.6367 70.5258 55.3059 70.5258ZM54.9601 26.852C44.2527 26.852 34.8606 36.1084 34.8606 46.6599C34.8606 55.2092 40.3052 67.9283 55.3059 67.9283C68.0826 67.9283 76.6651 56.3611 76.6651 45.5574C76.6651 40.4695 75.1213 36.4522 71.946 33.277C68.5491 29.8801 63.531 28.3613 59.0703 27.3225C57.7237 27.0113 56.3405 26.852 54.9601 26.852Z" fill="#525D7D"/>
<path d="M51.3146 56.4553C51.1098 56.4553 50.9044 56.4072 50.7159 56.3102C50.2996 56.0933 50.0317 55.6702 50.0155 55.201C49.9775 54.0761 49.9619 52.9459 49.9619 51.8149C49.9619 50.0168 49.9999 48.2132 50.0372 46.4103C50.0751 44.6285 50.1118 42.8487 50.1118 41.0749C50.1118 39.9535 50.0968 38.8354 50.0575 37.7201C50.0412 37.2685 50.2609 36.8407 50.6379 36.5918C51.0156 36.3403 51.4949 36.3064 51.9051 36.4969C55.3177 38.0882 58.5986 40.0769 61.7718 41.9998C63.018 42.7544 64.2649 43.5104 65.524 44.2461C65.9024 44.4664 66.1444 44.8644 66.1661 45.3025C66.1885 45.7411 65.9871 46.1602 65.6318 46.4178C64.2236 47.4409 62.8309 48.481 61.4382 49.5198C58.4149 51.7756 55.2885 54.1087 52.0245 56.2438C51.8102 56.3848 51.5627 56.4553 51.3146 56.4553ZM52.7045 39.784C52.7093 40.2138 52.712 40.6444 52.712 41.0756C52.712 42.867 52.674 44.6651 52.6367 46.4659C52.5994 48.2498 52.5615 50.0351 52.5615 51.8156C52.5615 52.1282 52.5628 52.4407 52.5649 52.754C55.0695 51.0325 57.5097 49.2113 59.8855 47.4389C60.7602 46.786 61.6355 46.133 62.5143 45.4835C61.8172 45.0651 61.1209 44.6434 60.4259 44.223C57.9138 42.7002 55.3326 41.1366 52.7045 39.784Z" fill="#525D7D"/>
<path d="M90.315 83.289C90.3082 83.289 88.8518 83.2856 88.8518 83.2856C79.4035 83.2856 69.8413 83.2029 60.5943 83.1216C47.724 83.009 34.415 82.8937 21.3521 83.0029C20.6469 83.0029 20.0747 82.4578 20.0435 81.7628C19.9038 78.6825 19.8414 75.4103 19.8414 71.1523C19.8414 69.1325 19.855 67.1113 19.8692 65.0935C19.8828 63.0858 19.897 61.0809 19.897 59.0841C19.897 55.7448 19.8604 53.9914 19.8224 52.1614C19.7797 50.1436 19.7363 48.058 19.7363 43.7139C19.7363 40.2817 19.7689 36.8488 19.8021 33.4153C19.8346 29.9886 19.8672 26.5625 19.8672 23.1371C19.8672 19.4106 19.8272 16.1561 19.7451 13.189C19.7356 12.8351 19.8706 12.492 20.1194 12.2398C20.3682 11.9869 20.6971 11.8343 21.0632 11.8533C25.1111 11.9137 29.165 11.9143 33.2203 11.8682C33.9295 11.8886 34.5262 12.4351 34.5343 13.1524C34.5418 13.8698 33.9668 14.4583 33.2501 14.4664C29.622 14.5071 25.9972 14.5119 22.3766 14.4692C22.4362 17.0925 22.4661 19.9429 22.4661 23.1364C22.4661 26.5699 22.4328 30.0048 22.4003 33.4384C22.3678 36.8638 22.3352 40.2892 22.3352 43.7132C22.3352 48.0309 22.3786 50.1023 22.4206 52.1072C22.4593 53.9501 22.4966 55.7184 22.4966 59.0834C22.4966 61.0863 22.483 63.0973 22.4688 65.1097C22.4552 67.1228 22.441 69.1379 22.441 71.1516C22.441 74.7961 22.4864 77.7089 22.5881 80.3939C35.2686 80.303 48.1477 80.4128 60.6174 80.5234C69.8589 80.604 79.415 80.6874 88.8518 80.6874H88.9481C88.7406 76.7766 88.4355 72.8101 88.1141 68.6362C87.3785 59.0732 86.5445 48.235 86.5445 33.8404C86.5445 29.0563 86.6143 24.1955 86.6821 19.4961C86.7154 17.2308 86.7472 14.9648 86.773 12.6995C79.7079 12.8975 72.5364 13.1884 65.5866 13.4704C57.4822 13.7993 49.1017 14.139 40.8617 14.3322C40.1348 14.3532 39.5483 13.781 39.532 13.0643C39.5151 12.3463 40.0833 11.7516 40.8 11.7347C49.0177 11.5421 57.3866 11.2024 65.4802 10.8736C72.8809 10.5732 80.5338 10.2627 88.0511 10.0647C88.3874 10.0437 88.7447 10.1894 88.9962 10.4376C89.2478 10.6851 89.3875 11.0234 89.3841 11.376C89.357 14.0949 89.3183 16.8138 89.279 19.5327C89.2112 24.2246 89.1413 29.0739 89.1413 33.8404C89.1413 48.136 89.9713 58.9207 90.7029 68.4361C91.0629 73.1172 91.4033 77.538 91.61 81.9289C91.627 82.2849 91.4968 82.632 91.2507 82.889C91.0073 83.1453 90.6689 83.289 90.315 83.289Z" fill="#525D7D"/>
<path d="M2.02053 9.45243C1.30317 9.45243 0.721424 8.87068 0.721424 8.15332C0.721424 6.19314 0.721424 4.16652 0.619042 2.19074C0.600057 1.83613 0.727526 1.49034 0.970261 1.23201C1.21367 0.973681 1.55133 0.826549 1.90594 0.823159L49.193 0.451599C49.9158 0.451599 50.4968 1.02657 50.5023 1.74053C50.5077 2.45856 49.9307 3.04438 49.2133 3.0498L3.26945 3.41119C3.31963 5.00592 3.31963 6.59996 3.31963 8.15265C3.31963 8.87068 2.73856 9.45243 2.02053 9.45243Z" fill="#525D7D"/>
<path d="M3.51203 96.4183C2.8157 96.4183 2.24141 95.8685 2.21429 95.1701C1.63457 80.1952 1.40811 64.9666 1.18911 50.2399C1.00604 37.9282 0.816194 25.1996 0.421581 12.6934C0.398528 11.9767 0.96197 11.3766 1.67932 11.3536C2.37905 11.3312 2.99606 11.8947 3.01911 12.6113C3.4144 25.1379 3.60357 37.8787 3.78731 50.1992C4.00022 64.4968 4.2199 79.2669 4.763 93.8045L107.71 92.5475C105.822 52.6204 105.763 33.8472 105.715 18.7326C105.697 13.0331 105.681 8.05498 105.576 2.6077L58.5571 2.9779C57.8343 2.9779 57.2532 2.40293 57.2478 1.68897C57.2424 0.971615 57.8194 0.38512 58.5368 0.379696L106.837 0C107.554 0 108.131 0.56412 108.146 1.2713C108.277 7.25355 108.294 12.8263 108.314 18.7258C108.362 33.9848 108.421 52.9744 110.369 93.77C110.386 94.1219 110.259 94.4663 110.017 94.7226C109.775 94.9802 109.439 95.1274 109.086 95.1314C109.087 95.1308 3.52831 96.4183 3.51203 96.4183Z" fill="#525D7D"/>
<path d="M11.806 17.4782C11.6698 17.4782 11.5314 17.4565 11.3945 17.4111C10.9578 17.266 10.3544 17.2789 9.73805 17.3155C8.96985 17.3636 8.20571 17.3677 7.55006 17.2219C6.84965 17.0667 6.40758 16.373 6.56352 15.672C6.71879 14.9709 7.40631 14.5302 8.1135 14.6854C8.50947 14.7736 9.05257 14.7546 9.57804 14.722C10.5286 14.6644 11.4419 14.6868 12.2176 14.9458C12.899 15.1736 13.2658 15.9093 13.0387 16.5893C12.857 17.1345 12.3498 17.4782 11.806 17.4782Z" fill="#525D7D"/>
<path d="M9.35502 25.801C9.10279 25.801 8.85328 25.7888 8.60648 25.763C7.89319 25.6864 7.37721 25.0464 7.45383 24.3324C7.53045 23.6198 8.17186 23.1058 8.88447 23.1797C9.48113 23.2455 10.111 23.1703 10.7389 23.1031C11.5166 23.0218 12.3526 22.939 13.1499 23.0279C13.8632 23.1092 14.3758 23.7527 14.2945 24.4653C14.2131 25.1793 13.5608 25.6803 12.857 25.6105C12.2624 25.54 11.6359 25.6213 11.0094 25.6871C10.4744 25.744 9.9205 25.801 9.35502 25.801Z" fill="#525D7D"/>
<path d="M8.44012 34.8974C7.82379 34.8974 7.2773 34.4581 7.16271 33.8302C7.03456 33.1244 7.50308 32.4477 8.20891 32.3196C9.01305 32.1738 9.85855 32.1087 10.9509 32.1087C11.3794 32.1087 11.8079 32.1182 12.2357 32.1277C12.6439 32.1372 13.0521 32.1467 13.4609 32.1467C14.1789 32.1467 14.76 32.7277 14.76 33.4451C14.76 34.1631 14.1783 34.7435 13.4609 34.7435C13.0324 34.7435 12.6046 34.734 12.1761 34.7245C11.7679 34.715 11.3597 34.7056 10.9509 34.7056C10.0213 34.7056 9.31884 34.7584 8.67404 34.8757C8.59539 34.89 8.51673 34.8974 8.44012 34.8974Z" fill="#525D7D"/>
<path d="M13.7633 44.3248C12.2357 44.3248 10.6566 44.3248 9.07138 44.1668C8.35741 44.0949 7.83669 43.4589 7.90788 42.745C7.97907 42.031 8.61371 41.5001 9.3297 41.5815C10.7854 41.7279 12.2317 41.7279 13.7627 41.7279C14.48 41.7279 15.0618 42.309 15.0618 43.0264C15.0631 43.7437 14.4814 44.3248 13.7633 44.3248Z" fill="#525D7D"/>
<path d="M13.4596 52.3859H9.35281C8.63478 52.3859 8.05371 51.8048 8.05371 51.0874C8.05371 50.3694 8.63546 49.789 9.35281 49.789H13.4596C14.1777 49.789 14.7587 50.3701 14.7587 51.0874C14.7594 51.8041 14.1777 52.3859 13.4596 52.3859Z" fill="#525D7D"/>
<path d="M13.6134 61.2083C13.57 61.2083 13.5266 61.2056 13.4825 61.2009C12.0268 61.0544 10.7175 61.0544 9.20145 61.0544C8.48409 61.0544 7.90234 60.4734 7.90234 59.756C7.90234 59.038 8.48409 58.4576 9.20145 58.4576C10.7209 58.4576 12.1556 58.4576 13.7408 58.6156C14.4548 58.6874 14.9755 59.3234 14.9043 60.0374C14.8379 60.7073 14.2724 61.2083 13.6134 61.2083Z" fill="#525D7D"/>
<path d="M14.2225 69.7244C14.1791 69.7244 14.1357 69.723 14.0916 69.7183C12.6352 69.5725 10.9727 69.5725 9.50613 69.5725C8.7881 69.5725 8.20703 68.9914 8.20703 68.2741C8.20703 67.556 8.78878 66.9756 9.50613 66.9756C11.0337 66.9756 12.7647 66.9756 14.3506 67.1336C15.0646 67.2055 15.5853 67.8415 15.5141 68.5555C15.4463 69.2247 14.8815 69.7244 14.2225 69.7244Z" fill="#525D7D"/>
<path d="M13.354 78.8933C12.5586 78.8933 11.7789 78.8445 10.9951 78.7936C10.256 78.7469 9.51224 78.698 8.74539 78.698C8.02736 78.698 7.44629 78.117 7.44629 77.3996C7.44629 76.6823 8.02804 76.1012 8.74539 76.1012C9.5692 76.1012 10.3672 76.1514 11.1612 76.2015C12.2393 76.27 13.3072 76.3419 14.4266 76.2565C15.1433 76.2076 15.7657 76.7379 15.8206 77.4532C15.8742 78.1685 15.3385 78.793 14.6232 78.8465C14.194 78.8784 13.7723 78.8933 13.354 78.8933Z" fill="#525D7D"/>
<path d="M99.5464 14.8197C99.5023 14.8197 99.4596 14.817 99.4149 14.8129C97.9585 14.6671 96.296 14.6671 94.8294 14.6671C94.112 14.6671 93.5303 14.0854 93.5303 13.368C93.5303 12.65 94.112 12.0689 94.8294 12.0689C96.357 12.0689 98.088 12.0689 99.6739 12.2276C100.388 12.2988 100.909 12.9354 100.837 13.6494C100.77 14.3193 100.205 14.8197 99.5464 14.8197Z" fill="#525D7D"/>
<path d="M98.136 23.2015C97.0369 23.2015 95.7466 23.1343 94.499 22.636C93.8325 22.3695 93.5084 21.6135 93.7749 20.947C94.0414 20.2812 94.7967 19.9591 95.4632 20.2229C96.5433 20.6541 97.7759 20.6107 98.9109 20.5951C99.1754 20.5904 99.4378 20.5863 99.6954 20.5863C100.413 20.5863 100.995 21.1681 100.995 21.8854C100.995 22.6035 100.413 23.1845 99.6954 23.1845C99.452 23.1845 99.2039 23.1879 98.9543 23.1927C98.6838 23.1981 98.4106 23.2015 98.136 23.2015Z" fill="#525D7D"/>
<path d="M95.1331 32.4613C94.4639 32.4613 93.8957 31.9487 93.8394 31.2693C93.7804 30.5554 94.3113 29.9275 95.0267 29.8679C96.2919 29.7661 97.5564 29.7973 98.8202 29.8306C99.4162 29.8475 100.013 29.8645 100.609 29.8645C101.326 29.8645 101.908 30.4455 101.908 31.1629C101.908 31.8809 101.326 32.4613 100.609 32.4613C99.9892 32.4613 99.3681 32.4444 98.7484 32.4281C97.5788 32.3949 96.4092 32.3589 95.2409 32.4579C95.205 32.46 95.169 32.4613 95.1331 32.4613Z" fill="#525D7D"/>
<path d="M96.7147 41.4675C96.4482 41.4675 96.1811 41.4567 95.9146 41.4289C95.2006 41.3556 94.6813 40.7183 94.7538 40.0043C94.8264 39.289 95.4583 38.7608 96.1784 38.8435C96.8496 38.9093 97.5242 38.8354 98.1982 38.7683C99.0057 38.6869 99.8675 38.6055 100.735 38.6917C101.449 38.7601 101.971 39.3948 101.903 40.1087C101.834 40.8241 101.196 41.3583 100.485 41.277C99.8099 41.2132 99.1332 41.2865 98.4579 41.3536C97.8965 41.4099 97.3175 41.4675 96.7147 41.4675Z" fill="#525D7D"/>
<path d="M100.304 51.3213C98.9043 51.3213 97.3611 51.1715 95.9019 51.0101C95.1893 50.9308 94.6754 50.2873 94.754 49.5747C94.8334 48.8621 95.4721 48.3515 96.1894 48.4268C97.574 48.5814 99.0304 48.7238 100.304 48.7238C101.022 48.7238 101.603 49.3048 101.603 50.0222C101.603 50.7395 101.022 51.3213 100.304 51.3213Z" fill="#525D7D"/>
<path d="M101.065 60.9026H96.3504C95.8249 60.9026 95.351 60.5859 95.1496 60.1011C94.9489 59.6157 95.0594 59.0563 95.431 58.6847L95.5829 58.5329C95.9971 58.1172 96.6209 58.042 97.1132 58.305H101.065C101.782 58.305 102.364 58.8861 102.364 59.6035C102.364 60.3215 101.782 60.9026 101.065 60.9026Z" fill="#525D7D"/>
<path d="M101.065 70.3325C99.6033 70.3325 98.0194 70.0261 96.525 69.6938C95.8246 69.5379 95.3832 68.8429 95.5391 68.1432C95.6958 67.4421 96.3908 67.0088 97.0891 67.156C98.4384 67.4563 99.8541 67.735 101.065 67.735C101.782 67.735 102.364 68.3161 102.364 69.0334C102.364 69.7515 101.782 70.3325 101.065 70.3325Z" fill="#525D7D"/>
<path d="M100.915 79.3076C100.867 79.3076 100.819 79.3042 100.769 79.2995C99.4724 79.1544 98.3076 79.1544 96.9583 79.1544C96.2403 79.1544 95.6592 78.5733 95.6592 77.856C95.6592 77.1386 96.2409 76.5576 96.9583 76.5576C98.3252 76.5576 99.6162 76.5576 101.057 76.7169C101.77 76.7962 102.284 77.4397 102.205 78.1523C102.131 78.8154 101.568 79.3076 100.915 79.3076Z" fill="#525D7D"/>
<defs>
<linearGradient id="paint0_linear" x1="63.7139" y1="45.8181" x2="50.9339" y2="45.8181" gradientUnits="userSpaceOnUse">
<stop stop-color="#FFCC80"/>
<stop offset="1" stop-color="#FF8080"/>
</linearGradient>
</defs>
</svg>
