<svg width="118" height="108" viewBox="0 0 118 108" fill="none" xmlns="http://www.w3.org/2000/svg">
<path d="M7.74412 1.01013C2.35667 1.01013 1.45876 4.37729 1.68324 6.06087C2.01996 30.7534 2.76074 81.4179 3.03012 86.536C3.29949 91.6541 6.73399 91.8112 8.41757 91.25L73.4038 89.9032L69.6999 95.964C76.4342 103.237 91.8109 102.137 98.6575 100.678C113.473 98.7925 114.259 77.8936 112.8 67.6799C103.371 72.2592 94.9536 72.7306 91.9231 72.3939C91.3619 55.5581 90.2396 19.9336 90.2396 12.1218C91.0477 4.30995 87.8825 2.58147 86.199 2.69371C62.2921 2.13252 13.1316 1.01013 7.74412 1.01013Z" fill="white"/>
<path d="M85.6399 62.4103C85.7309 55.515 84.1416 48.8622 83.3038 42.0578C82.5442 35.8865 82.2741 29.2633 82.2458 23.0408C82.2182 16.9826 85.1692 8.17609 76.0503 8.35051C72.3491 8.42122 68.72 9.51285 65.078 10.0395C59.4549 10.8523 53.299 10.3203 47.558 10.1567C41.7032 9.98964 35.9615 10.0139 30.1222 10.4092C25.3786 10.7304 19.4678 11.4638 15.2838 8.74177C12.3281 6.81845 9.34953 10.5035 10.7489 13.2767C10.8183 13.414 10.8789 13.5588 10.9368 13.7043C9.71116 20.8198 10.058 28.1494 10.2183 35.3531C10.324 40.119 10.3435 44.8828 10.2566 49.6447C9.86134 53.2698 9.21552 56.7467 10.0465 60.4358C11.056 64.9201 17.3364 63.5524 17.6536 59.4061C18.2671 51.3922 18.1547 43.3804 17.8947 35.3531C17.892 35.2723 17.8893 35.1915 17.8866 35.11C17.8321 32.9597 17.7883 30.8101 17.8193 28.6605C17.8732 24.8967 18.6543 20.6945 18.4186 16.7314C24.6398 17.9705 31.2118 17.0674 37.6155 17.0472C48.249 17.0129 58.8959 18.4661 69.452 16.7293C71.1046 16.4573 72.7599 16.1563 74.4293 16.0108C74.4812 16.0061 74.6287 16.0088 74.8159 16.0121C74.6893 17.3422 74.8132 19.0648 74.7041 19.9638C74.5041 21.6063 74.3371 23.1465 74.3445 24.8038C74.3734 31.0916 74.1647 37.3875 74.9627 43.637C75.6543 49.0554 76.75 54.387 76.9594 59.8357C76.486 60.7839 76.3971 61.9166 76.9284 63.0972C70.2258 62.4136 63.1938 66.3094 57.277 68.6752C53.6169 70.1386 49.4692 70.6618 45.5916 71.2484C40.8224 71.9696 35.7063 71.9104 31.3337 69.6658C30.9546 69.4712 30.3667 69.9082 30.6818 70.3177C35.938 77.145 44.8259 76.8022 52.6391 75.8351C56.8703 75.3112 60.4751 74.0546 64.3305 72.2949C66.7589 71.1864 69.2399 70.3083 71.8629 69.785C74.56 69.2469 77.3089 69.4436 79.9501 68.7156C81.0963 68.3998 81.6822 67.5223 81.7718 66.5808C83.7503 66.23 85.6096 64.7302 85.6399 62.4103Z" fill="#E0DFE6"/>
<path d="M99.9533 83.6598C99.9425 79.7336 99.861 75.8089 99.8933 71.8828C99.96 63.7598 99.993 55.5972 99.4367 47.4884C98.8913 39.5365 98.0192 31.5705 97.2077 23.6395C96.4986 16.7038 95.5962 10.0368 92.79 3.58465C91.8795 1.49095 88.352 2.9826 89.0901 5.14432C92.3044 14.5616 91.763 24.6839 91 34.6561C90.9656 30.4896 90.9091 26.3231 90.8074 22.1572C90.6639 16.2863 90.5218 9.88191 87.8173 4.55641C87.191 3.32269 85.0933 4.09646 85.3775 5.36992C84.9654 11.4281 85.5209 17.6237 85.4428 23.7088C85.3539 30.6229 85.2603 37.5297 85.2825 44.4451C85.3041 51.1188 85.3263 57.7919 85.3479 64.4656C85.3694 71.1023 84.8367 78.0568 85.5492 84.6665C71.8341 84.6928 58.1197 85.2895 44.4039 85.4423C37.2372 85.5225 30.0773 85.68 22.9153 85.9636C16.5278 86.2161 9.78543 86.3804 3.99594 89.3563C3.33732 89.695 3.73801 90.5422 4.3367 90.6136C4.66802 90.6533 5.00205 90.6769 5.33405 90.7119C5.19936 90.8264 5.08151 90.9557 4.9906 91.0904C4.75759 91.4332 4.52458 91.7759 4.29158 92.1194C3.53801 93.2279 4.29629 94.8764 5.53945 95.1869C10.8885 96.523 16.507 96.6711 21.9624 97.3917C27.7829 98.1608 33.5939 99.1702 39.4393 99.7352C50.3173 100.787 62.8438 101.052 73.255 97.2604C75.3467 96.4987 76.2734 94.83 76.2814 93.1753C76.4437 93.1821 76.606 93.1895 76.7683 93.1955C80.6419 93.3531 84.5101 93.4178 88.3864 93.4663C91.5118 93.5053 94.9658 93.9181 97.5114 91.7113C99.9459 89.6021 99.9613 86.6498 99.9533 83.6598ZM91.1959 84.4861C91.0983 84.4908 90.9717 84.5083 90.8478 84.5251C90.936 83.6759 91.0081 82.822 91.0599 81.9627C91.1414 82.8112 91.2222 83.7722 91.1959 84.4861Z" fill="#E0DFE6"/>
<path d="M117.179 82.696C116.898 81.6118 115.99 80.7155 114.911 80.4279C114.744 80.3835 114.578 80.339 114.412 80.2946C111.427 79.4993 109.48 82.9762 110.956 85.1507C110.925 86.8451 110.157 88.9543 109.925 90.5375C109.669 92.2938 109.694 94.2306 109.16 95.9236C107.704 100.547 101.866 101.591 97.6633 101.722C89.3922 101.98 81.6626 100.904 73.8642 98.2362C73.5565 98.1311 73.3194 98.5028 73.4609 98.7608C75.8286 103.09 80.6996 104.691 85.2446 105.813C90.9687 107.226 97.0909 108.525 103.002 107.785C108.017 107.158 113.352 104.907 115.564 100.052C116.655 97.6584 116.853 94.9067 117.057 92.3127C117.293 89.3307 117.931 85.5938 117.179 82.696Z" fill="#E0DFE6"/>
<path d="M18.5 30L19.5 23.5L32 31.5L18.5 30Z" fill="url(#paint0_linear)"/>
<path d="M75.5 56.5L74 48L63.5 56.5H75.5Z" fill="url(#paint1_linear)"/>
<path d="M6.76058 92.3808C4.10187 92.3808 1.8681 90.277 1.73476 87.5981C0.896338 70.8424 0 47.6905 0 32.9612C0 24.6443 0.128625 15.687 0.393284 5.5774C0.469382 2.67356 2.80148 0.322613 5.70195 0.225639C12.4464 -0.000634287 20.1713 -0.00467489 23.4826 0.001386H23.892C39.1466 0.001386 54.6955 0.422281 69.7319 0.828361C75.2796 0.979209 80.8226 1.12804 86.3569 1.25868C89.2122 1.32603 91.4756 3.61637 91.5086 6.47441C91.6945 22.5088 92.143 38.8557 92.5767 54.6652C92.8629 65.1189 93.1592 75.9281 93.3767 86.5414C93.4043 87.8607 92.8871 89.1544 91.9591 90.0904C91.0305 91.0265 89.755 91.5262 88.4216 91.537C78.6474 91.4083 69.7218 91.3457 61.1355 91.3457C41.4026 91.3457 23.6853 91.6831 6.97002 92.3767C6.89998 92.3794 6.83062 92.3808 6.76058 92.3808ZM22.9398 2.58265C19.4029 2.58265 12.1453 2.59208 5.78747 2.80556C4.24936 2.85674 3.01293 4.10393 2.97253 5.64475C2.70922 15.7321 2.58126 24.6672 2.58126 32.9612C2.58126 47.6427 3.47558 70.7447 4.31266 87.4694C4.38 88.8089 5.54773 89.8588 6.86362 89.7975C23.6139 89.1018 41.3669 88.7638 61.1362 88.7638C69.7339 88.7638 78.6696 88.8264 88.4553 88.955C89.1058 88.9806 89.689 88.7133 90.1274 88.2715C90.5665 87.8297 90.8103 87.2176 90.7981 86.594C90.5806 75.9894 90.2843 65.1849 89.9981 54.7359C89.5644 38.9163 89.1159 22.5587 88.9287 6.50405C88.9119 5.04404 87.7563 3.87295 86.2969 3.8386C80.76 3.70863 75.2136 3.55913 69.6632 3.40828C54.6423 3.0022 39.1116 2.58265 23.892 2.58265H23.4819C23.3135 2.58265 23.1317 2.58265 22.9398 2.58265Z" fill="#525D7D"/>
<path d="M46.9865 79.1155C31.3339 79.1155 28.5937 74.4506 26.1761 70.336C24.4514 67.3998 23.0884 65.0805 16.0133 65.0805C14.1641 65.0805 12.195 65.2778 10.2905 65.4691C9.72617 65.5256 9.16184 65.5822 8.59952 65.6347C8.25069 65.665 7.89848 65.5539 7.6318 65.3216C7.3658 65.0893 7.20687 64.7579 7.19138 64.4044C6.96847 59.2237 6.85938 53.5749 6.85938 47.1383C6.85938 40.9777 6.9577 34.7148 7.05265 28.6566C7.1476 22.6132 7.24458 16.3651 7.24458 10.2342C7.24458 9.14525 7.24188 8.05564 7.23448 6.96737C7.23246 6.6219 7.36916 6.2899 7.61362 6.04611C7.85807 5.80166 8.15708 5.6562 8.53555 5.66899L83.97 6.30875C84.6677 6.31481 85.2341 6.87376 85.2495 7.57144C85.6422 25.4807 85.8556 44.6782 85.9035 66.2604C85.9048 66.9311 85.393 67.4907 84.7256 67.5493C68.6629 68.9521 65.5941 71.8748 62.8855 74.4527C60.2578 76.9538 57.987 79.1155 46.9865 79.1155ZM16.0133 62.4992C24.5659 62.4992 26.5162 65.8186 28.4011 69.0288C30.5689 72.7186 32.8108 76.5342 46.9865 76.5342C56.9553 76.5342 58.787 74.7907 61.1063 72.5819C63.9044 69.9178 67.3693 66.6186 83.3208 65.0845C83.269 44.4977 83.0649 26.0854 82.6972 8.8779L9.82315 8.25969C9.82517 8.91763 9.82652 9.57557 9.82652 10.2335C9.82652 16.3846 9.72819 22.6435 9.63391 28.6963C9.53896 34.7444 9.44131 40.9972 9.44131 47.1376C9.44131 52.9783 9.53088 58.1617 9.71473 62.9323C9.82113 62.9215 9.92686 62.9107 10.0333 62.8999C12.0004 62.7033 14.0348 62.4992 16.0133 62.4992Z" fill="#525D7D"/>
<path d="M74.9712 24.4335C74.2587 24.4335 73.6809 23.8556 73.6809 23.1432V18.2944C69.3494 18.2554 65.0273 18.2372 60.7106 18.2372C47.3625 18.2372 33.0433 18.4136 16.9348 18.7753C16.2116 18.7827 15.6311 18.2264 15.6156 17.5146C15.5994 16.8014 16.1644 16.2115 16.8762 16.1954C33.0043 15.8324 47.343 15.6566 60.7099 15.6566C65.4596 15.6566 70.2161 15.6788 74.984 15.726C75.6911 15.7334 76.2615 16.3092 76.2615 17.0163V23.1425C76.2615 23.8557 75.6837 24.4335 74.9712 24.4335Z" fill="#525D7D"/>
<path d="M76.7715 33.0891C76.7581 33.0891 18.5156 32.4688 18.5156 32.4688C17.8078 32.4614 17.2388 31.8856 17.2388 31.1785L17.2455 28.2087C17.2455 26.4739 17.222 24.6193 17.0543 22.801C17.0085 22.3027 17.2543 21.8232 17.6846 21.57C18.1169 21.3175 18.655 21.3343 19.0672 21.6171C23.0748 24.3567 27.8945 27.4713 33.2517 29.7926C33.3985 29.8559 33.5278 29.9441 33.6369 30.0492L76.7857 30.5085C77.4982 30.5159 78.0699 31.0997 78.0625 31.8129C78.0537 32.52 77.4773 33.0891 76.7715 33.0891ZM19.8221 29.9017L27.7208 29.9852C24.8587 28.468 22.2006 26.812 19.785 25.2119C19.8194 26.2349 19.8268 27.2403 19.8268 28.208L19.8221 29.9017Z" fill="#525D7D"/>
<path d="M19.1559 44.0499C18.4508 44.0499 17.8751 43.4822 17.8663 42.7751C17.8582 42.0633 18.4286 41.478 19.1404 41.4693C31.9518 41.3124 45.1996 41.1508 58.485 41.1508C64.2745 41.1508 69.6 41.1811 74.7632 41.2437C75.4764 41.2524 76.0468 41.8377 76.038 42.5495C76.0293 43.262 75.4952 43.825 74.7322 43.8243C69.5791 43.7617 64.2644 43.7314 58.485 43.7314C45.2144 43.732 31.976 43.8936 19.1559 44.0499Z" fill="#525D7D"/>
<path d="M19.3708 58.1616C18.6549 58.1616 18.0381 57.5838 18.0381 56.8713C18.0381 56.1588 18.5768 55.581 19.2893 55.581C36.7285 55.581 56.3476 55.581 74.0629 55.2032L73.2386 47.786C73.1598 47.0782 73.6703 46.4398 74.3794 46.361C75.0805 46.2809 75.7256 46.7934 75.8044 47.5018L76.7836 56.3197C76.8233 56.68 76.7102 57.0396 76.4718 57.3124C76.2334 57.5851 75.892 57.7447 75.5296 57.7528C57.4231 58.1616 37.2073 58.1616 19.3708 58.1616Z" fill="#525D7D"/>
<path d="M63.0446 57.7118C62.6095 57.7118 62.1853 57.4923 61.9422 57.0943C61.5711 56.4862 61.7624 55.6922 62.3705 55.3198C66.2905 52.9244 69.6678 49.5471 72.9339 46.281C73.4383 45.7779 74.2545 45.7779 74.7596 46.281C75.2633 46.7847 75.2633 47.6022 74.7596 48.1066C71.3864 51.4792 67.8987 54.9669 63.7167 57.5226C63.5065 57.6505 63.2742 57.7118 63.0446 57.7118Z" fill="#525D7D"/>
<path d="M88.4607 103.071C81.224 103.071 74.3268 100.96 68.515 96.9674C68.2181 96.7634 68.0201 96.4442 67.9682 96.0879C67.917 95.731 68.0167 95.3694 68.2443 95.0892C69.7535 93.2326 71.1711 91.2561 72.5422 89.3449C72.9583 88.7657 73.7644 88.6337 74.3422 89.0485C74.9214 89.464 75.0541 90.2701 74.6386 90.8486C73.5139 92.4164 72.3583 94.0279 71.1354 95.599C76.2642 98.8032 82.2234 100.489 88.4607 100.489C96.7574 100.489 102.829 98.622 106.507 94.939C111.547 89.8903 111.536 82.2832 111.526 76.1712L111.525 75.4136C111.525 73.5273 111.508 71.6363 111.488 69.748C105.523 72.3993 98.8619 73.899 92.9202 73.899C92.5222 73.899 92.1235 73.8923 91.7249 73.8808C91.0124 73.8586 90.4528 73.2633 90.475 72.5508C90.4972 71.839 91.0595 71.2578 91.805 71.3009C92.1774 71.313 92.5485 71.3184 92.9209 71.3184C99.0976 71.3184 106.119 69.5877 112.183 66.57C112.58 66.3714 113.053 66.3929 113.432 66.6246C113.811 66.8569 114.043 67.2677 114.048 67.7122L114.06 68.8907C114.083 71.0625 114.106 73.2411 114.106 75.4136L114.107 76.1665C114.117 82.4078 114.131 90.9557 108.333 96.762C104.094 101.007 97.5945 103.071 88.4607 103.071Z" fill="#525D7D"/>
<path d="M99.2432 101.737C99.1112 101.737 98.9772 101.717 98.8446 101.673C98.1671 101.453 97.7954 100.726 98.0156 100.047C99.0149 96.9708 99.7766 93.8394 100.6 90.3577C100.701 89.9288 101.015 89.5813 101.431 89.4358C103.173 88.8291 104.891 88.1886 106.54 87.5327C107.2 87.2667 107.952 87.592 108.216 88.2546C108.479 88.9166 108.157 89.6668 107.494 89.9308C106.023 90.516 104.497 91.0898 102.948 91.6386C102.173 94.9048 101.433 97.882 100.47 100.844C100.293 101.391 99.7874 101.737 99.2432 101.737Z" fill="#525D7D"/>
<defs>
<linearGradient id="paint0_linear" x1="31.9808" y1="27.458" x2="18.4828" y2="27.458" gradientUnits="userSpaceOnUse">
<stop stop-color="#FFCC80"/>
<stop offset="1" stop-color="#FF8080"/>
</linearGradient>
<linearGradient id="paint1_linear" x1="75.4829" y1="52.2054" x2="63.4847" y2="52.2054" gradientUnits="userSpaceOnUse">
<stop stop-color="#FFCC80"/>
<stop offset="1" stop-color="#FF8080"/>
</linearGradient>
</defs>
</svg>
