<svg width="75" height="74" viewBox="0 0 75 74" fill="none" xmlns="http://www.w3.org/2000/svg">
<circle cx="40.5" cy="39.5" r="34.5" fill="#E0DFE6"/>
<path d="M49.7093 42.9968C49.0824 42.4353 48.1191 42.49 47.5606 43.1155C44.3863 46.6627 39.8089 48.6957 34.9987 48.6957C30.19 48.6957 25.611 46.6627 22.4367 43.1155C21.8752 42.49 20.915 42.4353 20.288 42.9968C19.661 43.5568 19.6093 44.5185 20.1693 45.1455C23.9204 49.3363 29.3256 51.7392 34.9987 51.7392C40.6732 51.7392 46.0784 49.3348 49.828 45.1455C50.388 44.5185 50.3348 43.5568 49.7093 42.9968Z" fill="#525D7D"/>
<path d="M35 0C15.7013 0 0 15.7013 0 35C0 54.2987 15.7013 70 35 70C54.2987 70 70 54.2987 70 35C70 15.7013 54.2987 0 35 0ZM35 66.9565C17.3783 66.9565 3.04348 52.6217 3.04348 35C3.04348 17.3783 17.3783 3.04348 35 3.04348C52.6217 3.04348 66.9565 17.3783 66.9565 35C66.9565 52.6217 52.6217 66.9565 35 66.9565Z" fill="#525D7D"/>
<path d="M47.1751 24.3479C42.9797 24.3479 39.5664 27.7612 39.5664 31.9566C39.5664 32.7966 40.2481 33.4783 41.0881 33.4783C41.9281 33.4783 42.6099 32.7966 42.6099 31.9566C42.6099 29.4396 44.6581 27.3914 47.1751 27.3914C49.6921 27.3914 51.7403 29.4396 51.7403 31.9566C51.7403 32.7966 52.4221 33.4783 53.2621 33.4783C54.1021 33.4783 54.7838 32.7966 54.7838 31.9566C54.7838 27.7612 51.3705 24.3479 47.1751 24.3479Z" fill="#525D7D"/>
<path d="M27.3927 31.9566C27.3927 32.7966 28.0744 33.4783 28.9144 33.4783C29.7544 33.4783 30.4361 32.7966 30.4361 31.9566C30.4361 27.7612 27.0229 24.3479 22.8274 24.3479C18.632 24.3479 15.2188 27.7612 15.2188 31.9566C15.2188 32.7966 15.9005 33.4783 16.7405 33.4783C17.5805 33.4783 18.2622 32.7966 18.2622 31.9566C18.2622 29.4396 20.3105 27.3914 22.8274 27.3914C25.3444 27.3914 27.3927 29.4396 27.3927 31.9566Z" fill="#525D7D"/>
</svg>
